# Blender 4.4.3
# www.blender.org
o Pants
v 0.317049 2.304806 0.172356
v 0.317049 2.633022 0.172356
v 0.317049 2.304806 -0.202321
v 0.317049 2.633022 -0.202321
v -0.003605 2.304806 -0.202321
v -0.003605 2.633022 -0.202321
v -0.003605 2.304806 0.172356
v -0.003605 2.633022 0.172356
v 0.487025 0.344053 0.172969
v 0.487025 0.295944 -0.385758
v 0.008856 0.344053 0.172969
v 0.008856 0.295944 -0.385758
v 0.462725 0.289002 0.144577
v 0.462725 0.240893 -0.357364
v 0.033156 0.289002 0.144577
v 0.033156 0.240893 -0.357364
v 0.504656 0.344633 0.188600
v 0.504656 0.296526 -0.401585
v 0.001184 0.344633 0.188600
v 0.001184 0.296526 -0.401585
v 0.504656 0.288420 0.188600
v 0.504656 0.240313 -0.401585
v 0.001184 0.288420 0.188600
v 0.001184 0.240313 -0.401585
v 0.360763 0.909677 0.025434
v 0.360763 0.909677 -0.238223
v 0.135119 0.909677 0.025434
v 0.135119 0.909677 -0.238223
v 0.397486 1.363019 0.223074
v 0.397486 1.363019 -0.232992
v 0.007176 1.363019 -0.232992
v 0.007176 1.363019 0.223074
v 0.409079 1.224860 0.226378
v 0.007393 1.224860 -0.242980
v 0.409079 1.224860 -0.242980
v 0.007393 1.224860 0.226378
v 0.419177 1.104544 0.218803
v 0.007583 1.104544 -0.262132
v 0.419177 1.104544 -0.262132
v 0.007583 1.104544 0.218803
v -0.324260 2.304806 0.172356
v -0.324260 2.633022 0.172356
v -0.324260 2.304806 -0.202321
v -0.324260 2.633022 -0.202321
v -0.003605 2.304806 -0.202321
v -0.003605 2.633022 -0.202321
v -0.003605 2.304806 0.172356
v -0.003605 2.633022 0.172356
v -0.494236 0.344053 0.172969
v -0.494236 0.295944 -0.385758
v -0.016067 0.344053 0.172969
v -0.016067 0.295944 -0.385758
v -0.469936 0.289002 0.144577
v -0.469936 0.240893 -0.357364
v -0.040367 0.289002 0.144577
v -0.040367 0.240893 -0.357364
v -0.511867 0.344633 0.188600
v -0.511867 0.296526 -0.401585
v -0.008395 0.344633 0.188600
v -0.008395 0.296526 -0.401585
v -0.511867 0.288420 0.188600
v -0.511867 0.240313 -0.401585
v -0.008395 0.288420 0.188600
v -0.008395 0.240313 -0.401585
v -0.367974 0.909677 0.025434
v -0.367974 0.909677 -0.238223
v -0.142330 0.909677 0.025434
v -0.142330 0.909677 -0.238223
v -0.404697 1.363019 0.223074
v -0.404697 1.363019 -0.232992
v -0.014387 1.363019 -0.232992
v -0.014387 1.363019 0.223074
v -0.416290 1.224860 0.226378
v -0.014604 1.224860 -0.242980
v -0.416290 1.224860 -0.242980
v -0.014604 1.224860 0.226378
v -0.426387 1.104544 0.218803
v -0.014794 1.104544 -0.262132
v -0.426387 1.104544 -0.262132
v -0.014794 1.104544 0.218803
v -0.202377 3.729162 0.183789
v -0.202377 4.126703 0.183789
v -0.202377 3.729162 -0.213754
v -0.202377 4.126703 -0.213754
v 0.195166 3.729162 0.183789
v 0.195166 4.126703 0.183789
v 0.195166 3.729162 -0.213754
v 0.195166 4.126703 -0.213754
v 1.578345 3.501636 0.098570
v 1.658493 3.565969 -0.000669
v 1.658493 3.461426 -0.030032
v 1.658493 3.523769 -0.088561
v -0.003605 3.426832 -0.030032
v -0.003605 3.523769 -0.129270
v -0.003605 3.501636 0.098570
v -0.003605 3.598572 -0.000669
v 1.089632 3.523769 -0.133086
v 1.060125 3.501636 0.087396
v 1.064260 3.426832 -0.030032
v 1.077068 3.598572 -0.000669
v 1.139326 3.523769 -0.129270
v 1.155956 3.501636 0.086212
v 1.153832 3.426832 -0.030032
v 1.148134 3.598572 -0.000669
v 1.109046 3.426832 -0.030032
v 1.109046 3.598572 -0.000669
v 1.114134 3.523769 -0.133086
v 1.109046 3.501636 0.087019
v -1.585556 3.501636 0.098570
v -1.665704 3.565969 -0.000669
v -1.665704 3.461426 -0.030032
v -1.665704 3.523769 -0.088561
v -1.096843 3.523769 -0.133086
v -1.067336 3.501636 0.087396
v -1.071471 3.426832 -0.030032
v -1.084279 3.598572 -0.000669
v -1.146537 3.523769 -0.129270
v -1.163167 3.501636 0.086212
v -1.161043 3.426832 -0.030032
v -1.155345 3.598572 -0.000669
v -1.116257 3.426832 -0.030032
v -1.116257 3.598572 -0.000669
v -1.121345 3.523769 -0.133086
v -1.116257 3.501636 0.087019
v 0.309045 3.407427 -0.210077
v 0.344106 2.334583 0.226807
v 0.344106 2.300983 -0.238526
v 0.309045 3.399134 0.171743
v -0.003605 2.319890 0.233370
v -0.003605 3.350026 0.171743
v -0.003605 3.350026 -0.188819
v -0.003605 2.285713 -0.238526
v 0.297908 3.640752 0.151496
v -0.003605 3.664011 0.151496
v 0.297908 3.637870 -0.145356
v -0.003605 3.667428 -0.154070
v 0.326576 2.939830 0.180238
v 0.288976 2.939830 -0.207339
v -0.003605 2.939830 0.193793
v -0.003605 2.939830 -0.198099
v 0.344106 2.306911 -0.011341
v 0.309045 3.351192 -0.033393
v 0.326576 2.939830 -0.022367
v -0.003605 3.665720 -0.001287
v 0.297908 3.643075 0.000944
v 0.552548 3.432203 -0.157334
v 0.553042 3.425961 0.119834
v 0.614007 3.601035 0.108014
v 0.612470 3.595596 -0.128707
v 0.550269 3.377732 -0.029970
v 0.616404 3.619126 0.000541
v 0.336662 2.591586 0.200725
v 0.320697 2.572252 -0.225283
v -0.003605 2.583132 0.210258
v -0.003605 2.563467 -0.221360
v 0.336662 2.575665 -0.016023
v -0.316256 3.407427 -0.210077
v -0.351317 2.334583 0.226807
v -0.351317 2.300983 -0.238526
v -0.316256 3.399134 0.171743
v -0.305119 3.640752 0.151496
v -0.305119 3.637870 -0.145356
v -0.333786 2.939830 0.180238
v -0.296187 2.939830 -0.207339
v -0.351317 2.306911 -0.011341
v -0.316256 3.351192 -0.033393
v -0.333786 2.939830 -0.022367
v -0.305119 3.643075 0.000944
v -0.559759 3.432203 -0.157334
v -0.560253 3.425961 0.119834
v -0.621218 3.601035 0.108014
v -0.619681 3.595596 -0.128707
v -0.557480 3.377732 -0.029970
v -0.623615 3.619126 0.000541
v -0.343873 2.591586 0.200725
v -0.327908 2.572252 -0.225283
v -0.343873 2.575665 -0.016023
v -0.441389 0.003271 0.167475
v -0.441389 0.307287 0.153811
v -0.076474 0.003271 0.167475
v -0.076474 0.307287 0.153811
v -0.441389 0.092785 0.167475
v -0.076474 0.092785 0.167475
v -0.360661 0.003271 0.477654
v -0.441389 0.003271 0.396898
v -0.441389 0.204947 0.328967
v -0.360661 0.204350 0.409746
v -0.157202 0.204350 0.409746
v -0.076474 0.204947 0.328967
v -0.076474 0.003271 0.396898
v -0.157202 0.003271 0.477654
v -0.441389 0.092785 0.396898
v -0.360661 0.092785 0.477654
v -0.076474 0.092785 0.396898
v -0.157202 0.092785 0.477654
v -0.441389 0.003271 -0.281403
v -0.372230 0.003271 -0.350562
v -0.372230 0.293514 -0.364228
v -0.441389 0.307287 -0.295068
v -0.145632 0.003271 -0.350562
v -0.076474 0.003271 -0.281403
v -0.076474 0.307287 -0.295068
v -0.145632 0.293514 -0.364228
v -0.441389 0.092785 -0.281403
v -0.372230 0.092785 -0.350562
v -0.145632 0.092785 -0.350562
v -0.076474 0.092785 -0.281403
v -0.258931 0.003271 0.477654
v -0.258931 0.092785 0.477654
v -0.258931 0.204350 0.409746
v -0.258931 0.003271 -0.350562
v -0.258931 0.092785 -0.350562
v -0.258931 0.293514 -0.364228
v -0.401026 0.255820 0.281780
v -0.116837 0.255820 0.281780
v -0.258931 0.261416 0.308325
v -0.258931 0.306742 0.154214
v -0.358862 0.307287 -0.349548
v -0.158465 0.307287 -0.338122
v -0.260050 0.293514 -0.256812
v -0.069163 0.087364 0.165737
v -0.069163 0.012726 0.165737
v -0.141093 0.012726 -0.373059
v -0.258931 0.012726 -0.373059
v -0.448700 0.012726 0.165737
v -0.448700 0.087364 0.165737
v -0.448700 0.087364 0.404351
v -0.364737 0.087364 0.488342
v -0.069163 0.087364 0.404351
v -0.153126 0.087364 0.488342
v -0.153126 0.012726 0.488342
v -0.069163 0.012726 0.404351
v -0.448700 0.012726 0.404351
v -0.364737 0.012726 0.488342
v -0.258931 0.012726 0.488342
v -0.258931 0.087364 0.488342
v -0.448700 0.087364 -0.301129
v -0.376770 0.087364 -0.373059
v -0.376770 0.012726 -0.373059
v -0.448700 0.012726 -0.301129
v -0.141093 0.087364 -0.373059
v -0.069163 0.087364 -0.301129
v -0.069163 0.012726 -0.301129
v -0.258931 0.087364 -0.373059
v 0.069378 0.003271 0.167475
v 0.069378 0.307287 0.153811
v 0.434293 0.003271 0.167475
v 0.434293 0.307287 0.153811
v 0.069378 0.092785 0.167475
v 0.434293 0.092785 0.167475
v 0.150106 0.003271 0.477654
v 0.069378 0.003271 0.396898
v 0.069378 0.204947 0.328967
v 0.434293 0.204947 0.328967
v 0.434293 0.003271 0.396898
v 0.353565 0.003271 0.477654
v 0.069378 0.092785 0.396898
v 0.150106 0.092785 0.477654
v 0.434293 0.092785 0.396898
v 0.353565 0.092785 0.477654
v 0.069378 0.003271 -0.281403
v 0.138536 0.003271 -0.350562
v 0.138536 0.293514 -0.364228
v 0.069378 0.307287 -0.295068
v 0.365134 0.003271 -0.350562
v 0.434293 0.003271 -0.281403
v 0.434293 0.307287 -0.295068
v 0.365134 0.293514 -0.364228
v 0.069378 0.092785 -0.281403
v 0.138536 0.092785 -0.350562
v 0.365134 0.092785 -0.350562
v 0.434293 0.092785 -0.281403
v 0.251835 0.003271 0.477654
v 0.251835 0.092785 0.477654
v 0.251835 0.003271 -0.350562
v 0.251835 0.092785 -0.350562
v 0.251835 0.293514 -0.364228
v 0.251835 0.306742 0.154214
v 0.151905 0.307287 -0.349548
v 0.352304 0.307287 -0.338122
v 0.250717 0.293514 -0.256812
v 0.441604 0.087364 0.165737
v 0.441604 0.012726 0.165737
v 0.369674 0.012726 -0.373059
v 0.251835 0.012726 -0.373059
v 0.062067 0.012726 0.165737
v 0.062067 0.087364 0.165737
v 0.062067 0.087364 0.404351
v 0.146030 0.087364 0.488342
v 0.441604 0.087364 0.404351
v 0.357641 0.087364 0.488342
v 0.357641 0.012726 0.488342
v 0.441604 0.012726 0.404351
v 0.062067 0.012726 0.404351
v 0.146030 0.012726 0.488342
v 0.251835 0.012726 0.488342
v 0.251835 0.087364 0.488342
v 0.062067 0.087364 -0.301129
v 0.133997 0.087364 -0.373059
v 0.133997 0.012726 -0.373059
v 0.062067 0.012726 -0.301129
v 0.369674 0.087364 -0.373059
v 0.441604 0.087364 -0.301129
v 0.441604 0.012726 -0.301129
v 0.251835 0.087364 -0.373059
v 0.069378 0.092785 0.396898
v 0.150106 0.092785 0.477654
v 0.150106 0.204350 0.409746
v 0.069378 0.204947 0.328967
v 0.434293 0.092785 0.396898
v 0.353565 0.092785 0.477654
v 0.434293 0.204947 0.328967
v 0.353565 0.204350 0.409746
v 0.251835 0.092785 0.477654
v 0.069378 0.307287 0.153811
v 0.251835 0.204350 0.409746
v 0.434293 0.307287 0.153811
v 0.109741 0.255820 0.281780
v 0.393930 0.255820 0.281780
v 0.251835 0.261416 0.308325
v 0.251835 0.306742 0.154214
vn -0.0000 -0.0000 -1.0000
vn 1.0000 -0.0000 -0.0000
vn 0.9963 0.0862 -0.0057
vn 0.9961 0.0883 -0.0010
vn 0.9964 0.0847 -0.0073
vn -0.0000 -0.0000 1.0000
vn -0.1052 0.9912 -0.0808
vn -1.0000 -0.0016 -0.0000
vn -1.0000 -0.0016 0.0001
vn -0.0000 -0.0602 0.9982
vn -0.0000 0.1510 -0.9885
vn -0.0000 0.1511 -0.9885
vn -0.0000 0.1572 -0.9876
vn -0.0000 -0.1754 0.9845
vn -0.0939 -0.9923 0.0809
vn -0.0000 0.9993 0.0367
vn -0.1133 -0.9890 0.0948
vn -1.0000 -0.0000 -0.0000
vn -0.0000 -0.9999 -0.0132
vn -0.0894 0.9927 -0.0809
vn -0.0000 0.9993 -0.0371
vn -0.0000 -0.9999 0.0131
vn -0.9881 -0.1533 0.0147
vn 0.9868 -0.1621 -0.0000
vn -0.0000 -0.1885 -0.9821
vn -0.0000 0.0325 -0.9995
vn -0.0000 0.0538 0.9986
vn -0.9999 -0.0114 -0.0000
vn -0.9999 -0.0112 -0.0000
vn -0.9999 -0.0113 -0.0000
vn 0.9964 0.0851 -0.0000
vn 0.9964 0.0843 -0.0000
vn -0.0000 0.0721 -0.9974
vn -0.0000 0.0239 0.9997
vn 0.9965 0.0836 -0.0000
vn -0.0000 -0.0628 0.9980
vn -0.9963 0.0862 -0.0057
vn -0.9961 0.0883 -0.0010
vn -0.9965 0.0836 -0.0000
vn -0.0432 0.9954 -0.0857
vn 1.0000 -0.0016 0.0001
vn 1.0000 -0.0016 -0.0000
vn -0.1478 -0.9845 0.0944
vn 0.1133 -0.9890 0.0948
vn -0.2448 0.9660 -0.0832
vn 0.9881 -0.1533 0.0147
vn 0.9999 -0.0114 -0.0000
vn -0.9964 0.0843 -0.0000
vn -0.9964 0.0851 -0.0000
vn 1.0000 -0.0010 -0.0000
vn 0.9999 -0.0113 -0.0000
vn 0.0469 -0.6837 -0.7283
vn 0.8155 -0.1565 0.5572
vn -0.0158 -0.8407 0.5413
vn -0.0000 0.8690 -0.4948
vn -0.0003 0.8669 -0.4984
vn -0.0000 0.8706 -0.4919
vn 0.0073 0.7153 0.6987
vn 0.0013 0.6707 0.7418
vn 0.0037 0.6717 0.7408
vn 0.0055 0.6719 0.7406
vn -0.0000 0.8707 -0.4918
vn -0.0000 -0.8644 0.5028
vn 0.0053 -0.8644 0.5028
vn -0.0000 -0.7154 -0.6988
vn 0.0575 0.9000 -0.4321
vn -0.0218 0.6663 0.7454
vn 0.0073 -0.8413 0.5405
vn 0.0008 -0.8426 0.5386
vn -0.0000 -0.8426 0.5385
vn 0.0001 -0.7283 -0.6852
vn -0.0000 -0.7284 -0.6852
vn -0.0013 -0.7282 -0.6853
vn 0.0027 -0.8431 0.5377
vn 0.0021 -0.8434 0.5373
vn -0.0000 0.8644 -0.5028
vn 0.0101 0.6685 0.7436
vn 0.0128 0.6679 0.7441
vn -0.0550 -0.7102 -0.7018
vn -0.0645 -0.9403 0.3342
vn 0.0003 0.8669 -0.4984
vn -0.0055 0.6719 0.7406
vn -0.0000 0.6724 0.7402
vn -0.0037 0.6717 0.7408
vn -0.0013 0.6707 0.7418
vn -0.0000 0.6708 0.7416
vn -0.0000 -0.8434 0.5373
vn -0.0021 -0.8434 0.5373
vn -0.0027 -0.8431 0.5377
vn -0.0396 0.8626 -0.5044
vn -0.0523 0.8182 0.5726
vn -0.0008 -0.8425 0.5386
vn -0.0073 -0.8413 0.5405
vn -0.1028 -0.7271 -0.6788
vn -0.0001 -0.7283 -0.6852
vn 0.0013 -0.7282 -0.6853
vn -0.0740 0.8695 -0.4883
vn -0.0101 0.6685 0.7436
vn -0.0128 0.6679 0.7441
vn 0.0417 0.0464 0.9981
vn 0.0410 0.0536 0.9977
vn 0.0410 0.0498 0.9979
vn 0.9967 0.0263 -0.0765
vn -0.0137 0.0595 -0.9981
vn -0.0137 0.0617 -0.9980
vn -0.0134 0.0493 -0.9987
vn -0.0101 0.0643 0.9979
vn 0.0972 0.9952 0.0111
vn -0.0872 0.1084 -0.9903
vn -0.0673 -0.0030 -0.9977
vn 0.9990 -0.0430 -0.0137
vn 0.0410 0.0461 0.9981
vn 0.9992 0.0388 -0.0075
vn 0.9991 0.0418 -0.0017
vn 0.9992 0.0380 -0.0089
vn 0.9996 0.0281 -0.0027
vn 0.9996 0.0276 -0.0010
vn 0.9996 0.0288 -0.0021
vn 0.0765 0.9970 0.0147
vn 0.0751 0.9971 0.0119
vn 0.0748 0.9971 0.0112
vn 0.0741 0.9831 0.1672
vn 0.1536 -0.9622 0.2249
vn 0.1385 0.0186 0.9902
vn 0.1769 0.2740 -0.9453
vn 0.1062 -0.9149 -0.3894
vn 0.1349 0.9902 -0.0352
vn 0.9996 0.0286 -0.0018
vn 0.9996 0.0277 -0.0000
vn 0.0151 0.0875 0.9961
vn -0.0315 0.0617 -0.9976
vn 0.9797 0.0237 -0.1991
vn 0.9797 0.0240 -0.1991
vn 0.9793 0.0363 -0.1990
vn -0.0410 0.0536 0.9977
vn -0.0417 0.0464 0.9981
vn -0.0410 0.0498 0.9979
vn -0.9967 0.0263 -0.0765
vn 0.0021 0.0486 -0.9988
vn 0.0101 0.0643 0.9979
vn -0.0751 0.9965 -0.0355
vn 0.0872 0.1084 -0.9903
vn 0.0673 -0.0030 -0.9977
vn -0.9793 0.0364 -0.1991
vn -0.9797 0.0240 -0.1991
vn -0.9793 0.0363 -0.1990
vn -0.0265 0.0595 0.9979
vn -0.9991 0.0418 -0.0017
vn -0.9992 0.0388 -0.0075
vn -0.9992 0.0380 -0.0089
vn -0.9996 0.0280 -0.0007
vn -0.9996 0.0287 -0.0021
vn -0.9996 0.0288 -0.0021
vn -0.0765 0.9970 0.0147
vn -0.0751 0.9971 0.0119
vn -0.0769 0.9969 0.0154
vn -0.1267 0.9918 0.0153
vn -0.1536 -0.9622 0.2249
vn -0.1977 0.0909 0.9760
vn -0.1769 0.2740 -0.9453
vn -0.1605 -0.9405 -0.2994
vn -0.1349 0.9902 -0.0352
vn -0.9996 0.0286 -0.0018
vn -0.0151 0.0875 0.9961
vn 0.0134 0.0476 -0.9988
vn 0.0134 0.0493 -0.9987
vn 0.0137 0.0595 -0.9981
vn -0.9797 0.0237 -0.1991
vn 0.3135 -0.8964 -0.3135
vn -0.0000 -0.7490 0.6626
vn -0.0000 -0.0679 -0.9977
vn -0.0000 0.9722 -0.2343
vn 0.4748 -0.7412 0.4746
vn 0.4747 -0.7412 0.4746
vn -0.0000 -1.0000 -0.0000
vn -0.0000 0.5199 0.8542
vn 0.1929 0.9621 -0.1929
vn -0.6490 0.3947 0.6503
vn -0.6492 0.3948 0.6502
vn -0.6496 0.3953 0.6494
vn -0.0000 -0.9219 -0.3875
vn 0.3259 0.8875 0.3258
vn 0.6490 0.3947 0.6503
vn 0.6492 0.3948 0.6502
vn 0.6486 0.3943 0.6511
vn 0.7911 -0.6117 -0.0000
vn -0.5956 0.8033 -0.0000
vn -0.7071 -0.0475 -0.7055
vn -0.7101 -0.0453 -0.7026
vn -0.7108 -0.0447 -0.7019
vn 0.7101 -0.0453 -0.7027
vn 0.7071 -0.0475 -0.7055
vn 0.7108 -0.0447 -0.7019
vn -0.3135 -0.8964 -0.3135
vn -0.0000 0.8919 0.4523
vn 0.4461 0.7727 0.4515
vn -0.4461 0.7727 0.4515
vn -0.0000 0.8715 0.4904
vn -0.0020 0.9280 0.3726
vn 0.0020 0.9280 0.3726
vn -0.0000 0.8844 -0.4666
vn -0.0000 0.7293 -0.6842
vn 0.1990 0.9037 -0.3790
vn -0.3166 0.8184 -0.4796
vn -0.1355 0.9908 -0.0014
vn 0.1367 0.9906 0.0014
vn 0.7072 -0.0000 0.7070
vn -0.7072 -0.0000 0.7070
vn -0.7071 -0.0000 -0.7071
vn 0.7071 -0.0000 -0.7071
vn 0.5956 0.8033 -0.0000
vn -0.7911 -0.6117 -0.0000
vn -0.3259 0.8875 0.3258
vn -0.4748 -0.7412 0.4746
vn -0.4747 -0.7412 0.4746
vn -0.1929 0.9621 -0.1929
vn -0.0000 1.0000 -0.0000
vn -0.7101 -0.0453 -0.7027
vn -0.0001 1.0000 0.0001
vn 0.0001 1.0000 -0.0000
vn -0.0000 1.0000 -0.0001
vn 0.0432 0.9954 -0.0857
vn 0.1478 -0.9845 0.0944
vn 0.0717 -0.9941 0.0810
vn 0.2448 0.9660 -0.0832
vn -0.9868 -0.1621 -0.0000
vn -0.9964 0.0847 -0.0073
vn 0.1052 0.9912 -0.0808
vn 0.0939 -0.9923 0.0809
vn -0.0717 -0.9941 0.0810
vn 0.0894 0.9927 -0.0809
vn 0.0550 -0.7102 -0.7018
vn 0.0645 -0.9403 0.3342
vn -0.0024 -0.7281 -0.6855
vn 0.0396 0.8626 -0.5044
vn 0.0523 0.8182 0.5726
vn 0.0093 -0.8410 0.5410
vn 0.1028 -0.7271 -0.6788
vn 0.0740 0.8695 -0.4884
vn -0.0469 -0.6837 -0.7283
vn -0.8155 -0.1565 0.5572
vn 0.0158 -0.8407 0.5413
vn -0.0073 0.7153 0.6987
vn -0.0053 -0.8644 0.5028
vn 0.0024 -0.7281 -0.6855
vn -0.0575 0.9000 -0.4321
vn 0.0218 0.6663 0.7454
vn -0.0093 -0.8410 0.5410
vn -0.0029 0.0184 0.9998
vn 0.9963 0.0861 -0.0022
vn -0.0021 0.0486 -0.9988
vn 0.0065 0.0838 0.9965
vn 0.0751 0.9965 -0.0355
vn 0.0545 0.2724 -0.9606
vn -0.0316 0.0226 -0.9992
vn 0.9793 0.0364 -0.1991
vn 0.0265 0.0595 0.9979
vn 0.9991 0.0426 -0.0000
vn 0.9996 0.0276 -0.0032
vn 0.0769 0.9969 0.0154
vn 0.1267 0.9918 0.0153
vn 0.1000 -0.9477 0.3032
vn 0.1977 0.0909 0.9760
vn 0.0719 0.1465 -0.9866
vn 0.1605 -0.9405 -0.2994
vn 0.0735 0.9808 -0.1808
vn 0.0253 0.1017 0.9945
vn -0.0134 0.0476 -0.9988
vn 0.9930 0.0895 -0.0772
vn 0.0029 0.0184 0.9998
vn -0.9963 0.0861 -0.0022
vn 0.0137 0.0617 -0.9980
vn -0.0065 0.0838 0.9965
vn -0.0972 0.9952 0.0111
vn -0.0545 0.2724 -0.9606
vn 0.0316 0.0226 -0.9992
vn -0.9990 -0.0430 -0.0137
vn -0.0410 0.0461 0.9981
vn -0.9991 0.0426 -0.0000
vn -0.9996 0.0276 -0.0032
vn -0.0748 0.9971 0.0112
vn -0.0741 0.9831 0.1671
vn -0.1000 -0.9477 0.3032
vn -0.1385 0.0186 0.9902
vn -0.0719 0.1465 -0.9866
vn -0.1062 -0.9149 -0.3894
vn -0.0735 0.9808 -0.1808
vn -0.9996 0.0277 -0.0000
vn -0.0253 0.1017 0.9945
vn 0.0315 0.0617 -0.9976
vn -0.9930 0.0895 -0.0772
vn -0.6486 0.3943 0.6511
vn 0.6496 0.3953 0.6494
vn -0.7063 -0.0481 -0.7063
vn 0.7063 -0.0481 -0.7063
vn -0.1107 0.9095 0.4007
vn 0.1107 0.9095 0.4007
vn 0.0901 0.9555 0.2810
vn -0.0901 0.9555 0.2810
vn -0.0534 0.9934 0.1016
vn 0.0572 0.9946 0.0867
vn -0.0001 1.0000 -0.0000
vt 0.374708 0.259825
vt 0.441488 0.329024
vt 0.374282 0.328608
vt 0.615498 0.004687
vt 0.697986 0.068669
vt 0.619598 0.073356
vt 0.622303 0.325368
vt 0.722980 0.479131
vt 0.606688 0.496186
vt 0.325861 0.871058
vt 0.258006 0.831480
vt 0.325205 0.830396
vt 0.804413 0.885414
vt 0.713349 0.881718
vt 0.807161 0.881718
vt 0.358676 0.516430
vt 0.258006 0.670000
vt 0.258064 0.510320
vt 0.504367 0.880071
vt 0.590619 0.972094
vt 0.490397 0.972366
vt 0.461334 0.580890
vt 0.374282 0.750225
vt 0.375067 0.580356
vt 0.815950 0.954075
vt 0.884615 0.858907
vt 0.905986 0.954075
vt 0.912687 0.851610
vt 0.912687 0.962013
vt 0.807161 0.987244
vt 0.804413 0.985636
vt 0.807161 0.851610
vt 0.815950 0.859384
vt 0.486245 0.383930
vt 0.474502 0.260783
vt 0.486245 0.259825
vt 0.713349 0.987244
vt 0.706384 0.881718
vt 0.715019 0.726776
vt 0.703239 0.621250
vt 0.715019 0.621250
vt 0.685101 0.620292
vt 0.696843 0.497144
vt 0.696843 0.621250
vt 0.905986 0.859384
vt 0.715920 0.985636
vt 0.715920 0.885414
vt 0.807161 0.962013
vt 0.596080 0.728215
vt 0.528832 0.865183
vt 0.490397 0.728215
vt 0.596080 0.728215
vt 0.663327 0.865183
vt 0.608320 0.859911
vt 0.116276 0.910267
vt 0.184941 0.780590
vt 0.206312 0.910267
vt 0.375318 0.526090
vt 0.258245 0.706196
vt 0.340042 0.704877
vt 0.282987 0.259825
vt 0.355859 0.461986
vt 0.260450 0.456192
vt 0.625123 0.270894
vt 0.457124 0.526597
vt 0.375184 0.555077
vt 0.258006 0.688521
vt 0.342187 0.687163
vt 0.258006 0.485054
vt 0.722980 0.294070
vt 0.624785 0.299941
vt 0.459374 0.555599
vt 0.506444 0.865412
vt 0.590635 0.879837
vt 0.356196 0.491016
vt 0.722920 0.319351
vt 0.149289 0.358768
vt 0.216070 0.289569
vt 0.216496 0.358351
vt 0.515391 0.068669
vt 0.597879 0.004687
vt 0.593778 0.073356
vt 0.591074 0.325368
vt 0.490397 0.479131
vt 0.490457 0.319351
vt 0.807161 0.841057
vt 0.739306 0.880634
vt 0.739962 0.839973
vt 0.356035 0.973972
vt 0.264971 0.977667
vt 0.267541 0.973972
vt 0.116276 0.699744
vt 0.015605 0.546174
vt 0.116217 0.540064
vt 0.682348 0.880071
vt 0.596096 0.972094
vt 0.596080 0.879837
vt 0.216496 0.779969
vt 0.129444 0.610634
vt 0.215711 0.610099
vt 0.028072 0.861172
vt 0.096737 0.956340
vt 0.006701 0.956340
vt 0.000000 0.853875
vt 0.006701 0.861649
vt 0.358783 0.872141
vt 0.356035 0.873750
vt 0.105526 0.853875
vt 0.096737 0.861649
vt 0.486245 0.510910
vt 0.474502 0.634058
vt 0.474502 0.509952
vt 0.258006 0.977667
vt 0.264971 0.872141
vt 0.474502 0.740542
vt 0.486283 0.635016
vt 0.486283 0.740542
vt 0.486245 0.508994
vt 0.474502 0.385846
vt 0.486245 0.384888
vt 0.267541 0.873750
vt 0.000000 0.964278
vt 0.441529 0.887814
vt 0.374282 0.750846
vt 0.479964 0.750846
vt 0.105683 0.716907
vt 0.038435 0.853875
vt 0.000000 0.716907
vt 0.845988 0.461618
vt 0.914653 0.591294
vt 0.824617 0.591294
vt 0.215460 0.555834
vt 0.806922 0.715773
vt 0.091295 0.289569
vt 0.018423 0.491730
vt 0.012912 0.294329
vt 0.588254 0.270894
vt 0.215594 0.584821
vt 0.133654 0.556341
vt 0.725125 0.714453
vt 0.807161 0.698097
vt 0.116276 0.514797
vt 0.113832 0.485936
vt 0.490397 0.294070
vt 0.492839 0.265189
vt 0.131404 0.585343
vt 0.680271 0.865412
vt 0.596080 0.865183
vt 0.018086 0.520760
vt 0.588592 0.299941
vt 0.759070 0.105775
vt 0.738950 -0.000000
vt 0.751820 -0.000000
vt 0.715844 0.600739
vt 0.696843 0.588210
vt 0.715844 0.572619
vt 0.824617 0.590964
vt 0.793447 0.679941
vt 0.795647 0.591410
vt 0.739086 0.348370
vt 0.722980 0.121865
vt 0.739099 0.119231
vt 0.760959 0.125416
vt 0.787857 0.348370
vt 0.759070 0.348370
vt 0.761023 0.115162
vt 0.787857 0.121865
vt 0.722980 0.115162
vt 0.739099 0.114096
vt 0.824617 0.348370
vt 0.795437 0.571324
vt 0.793447 0.348370
vt 0.759070 0.124549
vt 0.759070 0.348370
vt 0.793447 0.000000
vt 0.787857 0.106970
vt 0.783817 0.000000
vt 0.759070 0.016799
vt 0.761159 0.105330
vt 0.795504 0.581577
vt 0.824617 0.581577
vt 0.759070 0.115162
vt 0.739086 0.108816
vt 0.824617 0.572190
vt 0.722980 0.106970
vt 0.759070 0.590964
vt 0.738950 0.696740
vt 0.739086 0.587924
vt 0.342187 0.715283
vt 0.361187 0.702754
vt 0.358366 0.722993
vt 0.824617 0.105775
vt 0.793447 0.016799
vt 0.820791 -0.000000
vt 0.722980 0.574875
vt 0.739099 0.577508
vt 0.760959 0.571324
vt 0.787857 0.574875
vt 0.761023 0.581577
vt 0.787857 0.581577
vt 0.722980 0.581577
vt 0.739099 0.582644
vt 0.795437 0.125416
vt 0.824617 0.124549
vt 0.759070 0.572190
vt 0.722980 0.589770
vt 0.759070 0.679941
vt 0.787857 0.589770
vt 0.783817 0.696740
vt 0.795504 0.115162
vt 0.824617 0.115162
vt 0.759070 0.581577
vt 0.761159 0.591410
vt 0.831256 0.234847
vt 0.710533 0.398785
vt 0.703650 0.240051
vt 0.563835 0.944488
vt 0.478698 0.843430
vt 0.559802 0.840562
vt 0.346038 0.429229
vt 0.215888 0.534408
vt 0.220580 0.426973
vt 0.832171 0.412487
vt 0.715804 0.520370
vt 0.894165 0.760185
vt 0.838434 0.876825
vt 0.835073 0.760203
vt 0.239227 -0.000000
vt 0.355580 0.107462
vt 0.233839 0.123384
vt 0.339982 0.286708
vt 0.546556 0.540620
vt 0.482173 0.700806
vt 0.477878 0.520370
vt 0.697669 0.102085
vt 0.632591 0.698039
vt 0.625416 0.520370
vt 0.655603 0.931794
vt 0.643395 0.832589
vt 0.953257 0.760167
vt 0.895029 0.876808
vt 0.936415 0.999060
vt 0.894874 1.000000
vt 0.095232 0.615678
vt -0.000000 0.553010
vt 0.094692 0.534408
vt 0.831929 0.506348
vt 0.926962 0.420002
vt 0.953460 0.486787
vt 0.355259 0.016095
vt 0.450185 0.099914
vt -0.000000 0.658508
vt 0.001638 0.613157
vt 0.844846 0.998494
vt 0.554337 0.699740
vt 0.827861 0.000000
vt 0.693243 0.000000
vt 0.226938 0.281396
vt 0.576073 0.245911
vt 0.832508 0.843431
vt 0.747371 0.944488
vt 0.751404 0.840562
vt 0.095402 0.418282
vt 0.081780 0.522671
vt 0.590536 0.422963
vt 0.838363 0.643579
vt 0.894958 0.643562
vt 0.113949 0.096909
vt 0.113861 0.276833
vt 0.764650 0.540621
vt 0.829033 0.700806
vt 0.756869 0.699740
vt 0.566331 0.111277
vt 0.678615 0.698040
vt 0.685790 0.520370
vt 0.655603 0.931794
vt 0.667811 0.832589
vt 0.953186 0.643544
vt 0.936270 0.521284
vt 0.189218 0.552040
vt 0.095918 0.615677
vt 0.095232 0.534408
vt 0.598902 0.516452
vt 0.496752 0.438654
vt 0.020363 0.081142
vt 0.122235 0.005918
vt 0.189024 0.657541
vt 0.095232 0.679760
vt 0.844701 0.521907
vt 0.559129 0.011652
vt 0.840645 0.305284
vt 0.824617 0.295436
vt 0.826149 0.292970
vt 0.251270 0.831534
vt 0.206312 0.922752
vt 0.206312 0.828674
vt 0.229820 0.794825
vt 0.843070 0.157818
vt 0.864392 0.154870
vt 0.864392 0.157818
vt 0.991145 0.038242
vt 0.949124 0.061990
vt 0.949124 0.038242
vt 0.991145 0.014495
vt 0.949124 0.014495
vt 0.823189 0.848478
vt 0.846936 0.851610
vt 0.822237 0.851610
vt 0.959611 0.509701
vt 0.936103 0.475853
vt 0.959611 0.461618
vt 0.824617 0.169825
vt 0.842215 0.154870
vt 0.826149 0.213046
vt 0.902634 0.172197
vt 0.846936 0.733769
vt 0.825614 0.708466
vt 0.846936 0.708466
vt 0.959611 0.603780
vt 0.914653 0.512562
vt 0.864392 0.305284
vt 0.902634 0.213046
vt 0.870683 0.848478
vt 0.886711 0.839450
vt 0.871634 0.851610
vt 0.825614 0.733769
vt 0.808693 0.722118
vt 0.864392 0.308244
vt 0.839693 0.308244
vt 0.868258 0.708466
vt 0.886711 0.720186
vt 0.885178 0.722118
vt 0.868258 0.733769
vt 0.885178 0.747499
vt 0.257991 0.450741
vt 0.256031 0.357011
vt 0.258001 0.356662
vt 0.807161 0.760525
vt 0.807161 0.720186
vt 0.846936 0.848478
vt 0.248492 0.940251
vt 0.251270 0.925613
vt 0.917431 0.621279
vt 0.914653 0.606641
vt 0.888139 0.305284
vt 0.904167 0.295436
vt 0.889090 0.308244
vt 0.846936 0.705988
vt 0.869112 0.705988
vt 0.876718 0.761779
vt 0.885178 0.789790
vt 0.817153 0.761779
vt 0.808693 0.747499
vt 0.808693 0.789790
vt 0.846936 0.757985
vt 0.846936 0.789654
vt 0.994119 0.059300
vt 0.991145 0.061990
vt 0.994081 0.017297
vt 0.696493 0.697683
vt 0.685979 0.683566
vt 0.688584 0.680779
vt 0.994263 0.000000
vt 0.703239 0.658930
vt 0.685101 0.659836
vt 0.685101 0.638876
vt 0.240377 0.454857
vt 0.256020 0.454860
vt 0.238160 0.650600
vt 0.222518 0.675298
vt 0.222518 0.650600
vt 0.224493 0.357011
vt 0.240132 0.306998
vt 0.240137 0.357008
vt 0.240392 0.306998
vt 0.256036 0.307001
vt 0.238160 0.675298
vt 0.222518 0.699997
vt 0.240262 0.289569
vt 0.240262 0.289569
vt 0.224488 0.307001
vt 0.224619 0.289571
vt 0.824760 0.696740
vt 0.846936 0.696740
vt 0.224619 0.470084
vt 0.240147 0.454857
vt 0.240262 0.470081
vt 0.240262 0.470081
vt 0.224504 0.454860
vt 0.869112 0.696740
vt 0.886711 0.760525
vt 0.885178 0.760902
vt 0.222533 0.450741
vt 0.824760 0.705988
vt 0.885178 0.836787
vt 0.885714 0.157818
vt 0.904167 0.169825
vt 0.807161 0.839450
vt 0.808693 0.836787
vt 0.808693 0.760902
vt 0.222518 0.308578
vt 0.222523 0.356662
vt 0.886568 0.154870
vt 0.258006 0.308578
vt 0.840645 0.458658
vt 0.824617 0.448810
vt 0.826149 0.446344
vt 0.949124 0.050944
vt 0.904167 0.142163
vt 0.904167 0.048084
vt 0.927675 0.014236
vt 0.843070 0.311192
vt 0.864392 0.308244
vt 0.864392 0.311192
vt 0.991145 0.100232
vt 0.949124 0.123979
vt 0.949124 0.100232
vt 0.991145 0.076485
vt 0.949124 0.076485
vt 0.840645 0.151738
vt 0.864392 0.154870
vt 0.839693 0.154870
vt 0.949124 0.207745
vt 0.925616 0.173897
vt 0.949124 0.159662
vt 0.824617 0.323199
vt 0.842215 0.308244
vt 0.826149 0.366420
vt 0.902634 0.325571
vt 0.949124 0.301824
vt 0.904167 0.210606
vt 0.864392 0.458658
vt 0.902634 0.366420
vt 0.888139 0.151738
vt 0.904167 0.142710
vt 0.889090 0.154870
vt 0.864392 0.461618
vt 0.839693 0.461618
vt 0.885714 0.011726
vt 0.904167 0.023447
vt 0.902634 0.025378
vt 0.216496 0.289569
vt 0.257991 0.631257
vt 0.256031 0.537527
vt 0.258001 0.537178
vt 0.826149 0.025378
vt 0.824617 0.063785
vt 0.824617 0.023447
vt 0.864392 0.151738
vt 0.946347 0.159662
vt 0.949124 0.145023
vt 0.906944 0.319323
vt 0.904167 0.304685
vt 0.888139 0.458658
vt 0.904167 0.448810
vt 0.889090 0.461618
vt 0.864392 0.009248
vt 0.886568 0.009248
vt 0.994119 0.121290
vt 0.991145 0.123979
vt 0.994081 0.079287
vt 0.708236 0.572619
vt 0.697722 0.558503
vt 0.700327 0.555715
vt 0.994263 0.061990
vt 0.714981 0.533866
vt 0.696844 0.534772
vt 0.696844 0.513812
vt 0.240377 0.635373
vt 0.256020 0.635375
vt 0.255904 0.650600
vt 0.240262 0.675298
vt 0.240262 0.650600
vt 0.224493 0.537527
vt 0.240132 0.487514
vt 0.240137 0.537524
vt 0.240393 0.487514
vt 0.256036 0.487516
vt 0.255904 0.675298
vt 0.240262 0.699997
vt 0.240262 0.470084
vt 0.240262 0.470084
vt 0.224488 0.487516
vt 0.224619 0.470087
vt 0.842215 0.000000
vt 0.864392 0.000000
vt 0.224619 0.650600
vt 0.240147 0.635373
vt 0.240262 0.650597
vt 0.240262 0.650597
vt 0.224504 0.635375
vt 0.886568 0.000000
vt 0.904167 0.063785
vt 0.902634 0.064163
vt 0.222533 0.631257
vt 0.843070 0.011726
vt 0.842215 0.009248
vt 0.864392 0.011726
vt 0.902634 0.140047
vt 0.885714 0.311192
vt 0.904167 0.323199
vt 0.824617 0.142710
vt 0.826149 0.140047
vt 0.826149 0.064163
vt 0.222518 0.489094
vt 0.222523 0.537178
vt 0.886568 0.308244
vt 0.258006 0.489094
vt 0.950929 0.876913
vt 0.929607 0.851610
vt 0.950929 0.851610
vt 0.929607 0.876913
vt 0.912687 0.865262
vt 0.972252 0.876913
vt 0.989172 0.865262
vt 0.989172 0.890643
vt 0.972252 0.851610
vt 0.980712 0.904923
vt 0.989172 0.932933
vt 0.921147 0.904923
vt 0.912687 0.890643
vt 0.912687 0.932933
vt 0.950929 0.901129
vt 0.950929 0.932798
vt 0.441915 0.260241
vt 0.693885 -0.000000
vt 0.258662 0.872141
vt 0.374282 0.687163
vt 0.474502 0.750846
vt 0.837321 0.858907
vt 0.474502 0.384888
vt 0.706384 0.987244
vt 0.703239 0.726776
vt 0.685101 0.496186
vt 0.583839 0.859911
vt 0.701762 0.728215
vt 0.137647 0.780590
vt 0.361369 0.264585
vt 0.720537 0.265189
vt 0.590635 0.865183
vt 0.148863 0.289985
vt 0.519492 -0.000000
vt 0.606688 0.496186
vt 0.806506 0.881718
vt 0.358783 0.977667
vt -0.000000 0.716907
vt 0.696318 0.972366
vt 0.116276 0.780590
vt 0.075366 0.861172
vt 0.105526 0.964278
vt 0.486245 0.635016
vt 0.258006 0.872141
vt 0.474502 0.635016
vt 0.474502 0.509952
vt 0.386522 0.882542
vt 0.093442 0.848602
vt 0.893282 0.461618
vt 0.722980 0.696740
vt 0.699665 0.608449
vt 0.820791 0.696740
vt 0.722980 0.348370
vt 0.787857 0.115162
vt 0.751820 0.696740
vt 0.342187 0.687163
vt 0.795648 0.105330
vt 0.793447 0.696740
vt 0.476133 0.948686
vt 0.350508 0.534408
vt 0.829309 0.099875
vt 0.953257 0.876790
vt 0.476133 0.036975
vt 0.094432 0.679759
vt 0.835073 0.948686
vt 0.833328 0.520370
vt 0.894728 0.520370
vt 0.188820 0.612197
vt 0.476133 0.507483
vt -0.000000 0.016180
vt 0.206312 0.780590
vt 0.826149 0.172197
vt 0.902634 0.292970
vt 0.206421 0.937390
vt 0.959502 0.618418
vt 0.693665 0.621250
vt 0.240387 0.357008
vt 0.238160 0.699997
vt 0.255905 0.289571
vt 0.255905 0.470084
vt 0.904167 0.000000
vt 0.826149 0.325571
vt 0.902634 0.446344
vt 0.904276 0.156800
vt 0.949015 0.316462
vt 0.705407 0.496186
vt 0.240387 0.537524
vt 0.255904 0.699997
vt 0.255905 0.470087
vt 0.255905 0.650600
vt 0.907938 0.591294
vt 0.824617 0.674620
vt 0.824617 0.591301
vt 0.904167 0.402647
vt 0.987479 0.319323
vt 0.987479 0.402647
vt 0.374282 0.971133
vt 0.457602 0.887820
vt 0.457602 0.971139
vt 0.970034 0.745996
vt 0.886711 0.696740
vt 0.970034 0.696740
vt 0.187059 0.993590
vt 0.116276 0.910267
vt 0.187059 0.910267
vt 0.886711 0.813202
vt 0.970034 0.813202
vt 0.907938 0.674614
vt 0.904167 0.319323
vt 0.374282 0.887814
vt 0.886711 0.745996
vt 0.116276 0.993590
s 1
f 6/1/1 3/2/1 5/3/1
f 4/4/2 1/5/2 3/6/2
f 39/7/3 9/8/4 10/9/5
f 2/10/6 7/11/6 1/12/6
f 10/13/7 17/14/7 18/15/7
f 38/16/8 11/17/9 40/18/8
f 37/19/10 11/20/10 9/21/10
f 39/22/11 12/23/12 38/24/13
f 14/25/14 28/26/14 16/27/14
f 16/27/15 23/28/15 24/29/15
f 10/13/16 20/30/16 12/31/16
f 14/25/17 21/32/17 13/33/17
f 20/34/18 23/35/18 19/36/18
f 19/37/6 21/38/6 17/14/6
f 18/39/1 24/40/1 20/41/1
f 18/42/2 21/43/2 22/44/2
f 13/33/19 23/28/19 15/45/19
f 11/46/20 20/30/20 19/37/20
f 9/47/21 19/37/21 17/14/21
f 14/25/22 24/29/22 22/48/22
f 13/49/23 26/50/23 14/51/23
f 15/52/24 28/53/24 27/54/24
f 15/55/25 25/56/25 13/57/25
f 3/2/26 31/58/26 5/3/26
f 1/12/27 32/59/27 29/60/27
f 7/61/28 31/62/29 32/63/30
f 1/5/31 30/64/32 3/6/31
f 30/65/33 34/66/33 31/58/33
f 29/60/34 36/67/34 33/68/34
f 31/62/29 36/69/8 32/63/30
f 30/64/32 33/70/35 35/71/35
f 35/72/13 38/24/13 34/66/13
f 33/73/36 40/74/36 37/19/10
f 34/75/8 40/18/8 36/69/8
f 35/71/35 37/76/35 39/7/3
f 43/77/1 46/78/1 45/79/1
f 41/80/18 44/81/18 43/82/18
f 79/83/37 49/84/38 77/85/39
f 47/86/6 42/87/6 41/88/6
f 50/89/40 57/90/40 49/91/40
f 51/92/41 78/93/42 80/94/42
f 77/95/10 51/96/10 80/97/36
f 52/98/12 79/99/12 78/100/13
f 68/101/14 54/102/14 56/103/14
f 56/103/43 63/104/43 55/105/43
f 60/106/16 50/89/16 52/107/16
f 61/108/44 54/102/44 53/109/44
f 63/110/2 60/111/2 59/112/2
f 61/113/6 59/114/6 57/90/6
f 64/115/1 58/116/1 60/117/1
f 58/118/18 61/119/18 57/120/18
f 63/104/19 53/109/19 55/105/19
f 51/121/45 60/106/45 52/107/45
f 49/91/21 59/114/21 51/121/21
f 54/102/22 64/122/22 56/103/22
f 66/123/46 53/124/46 54/125/46
f 55/126/23 68/127/23 56/128/23
f 65/129/25 55/130/25 53/131/25
f 71/132/26 43/77/26 45/79/26
f 41/88/27 72/133/27 47/86/27
f 47/134/47 71/135/47 45/136/47
f 70/137/48 41/80/49 43/82/49
f 74/138/33 70/139/33 71/132/33
f 69/140/34 76/141/34 72/133/34
f 76/142/42 71/135/50 72/143/51
f 70/137/48 73/144/39 69/145/48
f 78/100/13 75/146/13 74/138/13
f 73/147/36 80/97/36 76/148/36
f 80/94/42 74/149/42 76/142/42
f 75/150/39 77/85/39 73/144/39
f 103/151/52 92/152/52 91/153/52
f 91/154/53 90/155/53 89/156/53
f 103/157/54 89/158/54 102/159/54
f 94/160/55 100/161/56 97/162/57
f 98/163/58 96/164/58 95/165/58
f 108/166/59 100/167/60 98/163/61
f 97/162/57 106/168/62 107/169/62
f 93/170/63 98/171/64 95/172/63
f 94/160/65 99/173/65 93/174/65
f 92/175/66 104/176/66 90/177/66
f 89/178/67 104/176/67 102/179/67
f 103/157/68 108/180/69 105/181/70
f 105/182/65 101/183/65 103/151/65
f 97/162/71 105/182/72 99/173/73
f 99/184/74 108/180/69 98/171/75
f 101/183/76 106/168/76 104/185/76
f 104/176/77 108/166/59 102/179/78
f 119/186/79 112/187/79 117/188/79
f 111/189/18 110/190/18 112/191/18
f 119/192/80 109/193/80 111/194/80
f 116/195/81 94/160/55 113/196/57
f 114/197/82 96/164/83 116/198/84
f 124/199/85 116/198/84 122/200/86
f 122/201/62 113/196/57 123/202/62
f 93/170/87 114/203/88 115/204/89
f 115/205/65 94/160/65 93/174/65
f 112/187/90 120/206/90 117/188/90
f 109/207/91 120/208/91 110/209/91
f 124/210/92 119/192/93 121/211/70
f 121/212/94 117/188/94 123/202/94
f 121/212/72 113/196/95 115/205/96
f 115/204/89 124/210/92 121/211/70
f 117/188/97 122/201/97 123/202/97
f 124/199/85 120/208/98 118/213/99
f 137/214/100 130/215/101 139/216/102
f 141/217/103 153/218/103 156/219/103
f 153/220/104 132/221/105 155/222/106
f 128/223/107 134/224/107 130/215/107
f 144/225/108 135/226/108 136/227/108
f 136/228/109 125/229/109 131/230/109
f 138/231/110 131/230/110 125/229/110
f 142/232/111 138/233/111 125/234/111
f 154/235/112 137/214/100 139/216/102
f 137/236/113 142/232/114 128/237/115
f 126/238/116 156/219/117 152/239/118
f 134/240/119 145/241/120 144/225/121
f 145/241/122 148/242/122 151/243/122
f 142/244/123 147/245/123 128/246/123
f 133/247/124 147/248/124 148/249/124
f 135/250/125 146/251/125 125/229/125
f 142/244/126 146/252/126 150/253/126
f 145/241/127 149/254/127 135/226/127
f 137/236/128 156/219/117 143/255/129
f 126/256/130 154/235/130 129/257/130
f 138/231/131 155/222/131 140/258/131
f 156/219/132 138/233/133 143/255/134
f 130/215/135 163/259/136 139/216/137
f 176/260/138 165/261/138 177/262/138
f 176/263/139 132/221/139 159/264/139
f 134/224/140 160/265/140 130/215/140
f 144/225/141 162/266/141 168/267/141
f 157/268/142 136/228/142 131/230/142
f 131/230/143 164/269/143 157/268/143
f 166/270/144 164/271/145 167/272/146
f 154/235/147 163/259/147 175/273/147
f 166/270/148 163/274/149 160/275/150
f 177/262/151 158/276/152 175/277/153
f 134/240/154 168/267/155 161/278/156
f 168/267/157 171/279/157 161/278/157
f 170/280/158 166/281/158 160/282/158
f 161/283/159 170/284/159 160/265/159
f 169/285/160 162/286/160 157/268/160
f 166/281/161 169/287/161 157/288/161
f 172/289/162 168/267/162 162/266/162
f 163/274/163 177/262/151 175/277/153
f 154/235/164 158/290/164 129/257/164
f 164/269/165 155/222/166 176/263/167
f 164/271/145 177/262/168 167/272/146
f 200/291/169 243/292/169 201/293/169
f 179/294/18 204/295/18 182/296/18
f 182/296/18 186/297/18 179/294/18
f 191/298/170 235/299/170 208/300/170
f 213/301/171 206/302/171 212/303/171
f 198/304/171 212/303/171 205/305/171
f 205/306/172 244/307/172 238/308/172
f 183/309/2 189/310/2 194/311/2
f 191/298/173 232/312/174 231/313/173
f 180/314/175 208/300/175 185/315/175
f 210/316/176 193/317/176 209/318/176
f 207/319/2 181/320/2 183/309/2
f 211/321/175 201/293/175 178/322/175
f 206/323/177 242/324/177 241/325/177
f 187/326/178 192/327/179 193/317/180
f 200/291/181 224/328/181 223/329/181
f 195/330/182 229/331/182 194/332/182
f 188/333/183 194/332/184 189/334/185
f 201/335/186 222/336/186 180/337/186
f 192/327/187 226/338/187 227/339/187
f 206/323/172 244/307/172 212/340/172
f 198/341/188 204/295/189 199/342/190
f 207/319/191 203/343/192 202/344/193
f 197/345/194 240/346/194 239/347/194
f 195/330/195 236/348/195 230/349/195
f 188/333/176 209/318/176 195/330/176
f 188/333/196 189/334/196 215/350/196
f 181/351/196 215/350/196 189/334/196
f 187/326/197 214/352/197 186/353/197
f 179/354/197 186/353/197 214/352/197
f 216/355/198 187/326/198 210/316/198
f 188/333/198 216/355/198 210/316/198
f 217/356/199 215/350/199 181/351/199
f 214/352/200 217/356/200 179/354/200
f 213/301/201 219/357/201 203/358/201
f 213/301/202 198/304/202 218/359/202
f 202/360/203 203/361/203 219/362/203
f 198/304/204 199/363/204 218/359/204
f 220/364/205 219/362/205 213/365/205
f 218/366/206 220/364/206 213/365/206
f 242/367/2 222/336/2 243/368/2
f 238/369/1 224/370/1 239/371/1
f 225/372/18 227/373/18 226/374/18
f 222/336/2 229/375/2 232/376/2
f 244/377/1 223/378/1 224/370/1
f 230/379/207 232/376/207 229/375/207
f 228/380/208 233/381/208 234/382/208
f 236/348/6 234/383/6 235/384/6
f 239/385/209 237/386/209 238/387/209
f 243/368/210 241/388/210 242/367/210
f 226/374/18 240/389/18 225/372/18
f 230/349/6 235/384/6 231/390/6
f 194/332/211 221/391/211 183/392/211
f 196/393/212 225/372/212 240/389/212
f 193/317/213 227/339/213 228/394/213
f 193/317/195 236/348/195 209/318/195
f 207/395/211 221/391/211 242/324/211
f 184/396/214 233/397/215 185/315/215
f 205/306/216 237/398/216 204/399/216
f 204/399/187 226/338/187 182/400/187
f 185/401/212 225/372/212 178/402/212
f 184/396/170 235/299/170 234/403/170
f 197/345/181 224/328/181 211/321/181
f 190/404/186 222/336/186 232/376/186
f 265/405/169 304/406/169 266/407/169
f 246/408/18 269/409/18 249/410/18
f 249/410/18 253/411/18 246/408/18
f 256/412/170 296/413/170 273/414/170
f 277/415/171 271/416/171 276/417/171
f 263/418/171 276/417/171 270/419/171
f 270/420/172 305/421/172 299/422/172
f 250/423/2 254/424/2 259/425/2
f 256/412/173 293/426/174 292/427/173
f 247/428/175 273/414/175 252/429/175
f 272/430/2 248/431/2 250/423/2
f 275/432/175 266/407/175 245/433/175
f 271/434/177 303/435/177 302/436/177
f 265/405/181 285/437/181 284/438/181
f 260/439/182 290/440/182 259/441/182
s 0
f 253/442/217 306/442/217 309/442/1
s 1
f 266/443/186 283/444/186 247/445/186
f 257/446/187 287/447/187 288/448/187
f 271/434/172 305/421/172 276/449/172
f 263/450/188 269/409/218 264/451/190
f 272/430/191 268/452/192 267/453/193
f 262/454/194 301/455/194 300/456/194
f 260/439/195 297/457/195 291/458/195
s 0
f 259/442/217 312/442/219 310/442/6
f 274/442/217 311/442/217 314/442/1
f 246/442/217 309/442/217 315/442/6
f 258/442/217 314/442/217 307/442/1
f 278/442/220 315/442/220 321/442/1
f 260/442/217 310/442/221 311/442/1
f 254/442/217 317/442/219 312/442/1
f 248/442/217 321/442/217 317/442/1
f 257/442/217 307/442/217 306/442/1
s 1
f 277/415/201 280/459/201 268/460/201
f 277/415/202 263/418/202 279/461/202
f 267/462/203 268/463/203 280/464/203
f 263/418/204 264/465/204 279/461/204
f 281/466/205 280/464/205 277/467/205
f 279/468/206 281/466/206 277/467/206
f 303/469/2 283/444/2 304/470/2
f 299/471/1 285/472/1 300/473/1
f 286/474/18 288/475/18 287/476/18
f 283/444/2 290/477/2 293/478/2
f 305/479/1 284/480/1 285/472/1
f 291/481/207 293/478/207 290/477/207
f 289/482/208 294/483/208 295/484/208
f 297/457/6 295/485/6 296/486/6
f 300/487/209 298/488/209 299/489/209
f 304/470/210 302/490/210 303/469/210
f 287/476/18 301/491/18 286/474/18
f 291/458/6 296/486/6 292/492/6
f 259/441/211 282/493/211 250/494/211
f 261/495/212 286/474/212 301/491/212
f 258/496/213 288/448/213 289/497/213
f 258/496/195 297/457/195 274/498/195
f 272/499/211 282/493/211 303/435/211
f 251/500/214 294/501/215 252/429/215
f 270/420/216 298/502/216 269/503/216
f 269/503/187 287/447/187 249/504/187
f 252/505/212 286/474/212 245/506/212
f 251/500/170 296/413/170 295/507/170
f 262/454/181 285/437/181 275/432/181
f 255/508/186 283/444/186 293/478/186
f 316/509/176 307/510/176 314/511/176
f 308/512/178 306/513/179 307/510/180
f 313/514/183 310/515/184 312/516/185
f 313/514/176 314/511/176 311/517/176
f 313/514/196 312/516/196 319/518/196
f 317/519/196 319/518/196 312/516/196
f 308/512/197 318/520/197 309/521/197
f 315/522/197 309/521/197 318/520/197
f 320/523/198 308/512/198 316/509/198
f 313/514/198 320/523/198 316/509/198
f 321/524/199 319/518/199 317/519/199
f 318/520/200 321/524/200 315/522/200
f 6/1/1 4/525/1 3/2/1
f 4/4/2 2/526/2 1/5/2
f 39/7/3 37/76/35 9/8/4
f 2/10/6 8/527/6 7/11/6
f 10/13/222 9/47/222 17/14/222
f 38/16/8 12/528/9 11/17/9
f 37/19/10 40/74/36 11/20/10
f 39/22/11 10/529/12 12/23/12
f 14/25/14 26/530/14 28/26/14
f 16/27/223 15/45/223 23/28/223
f 10/13/16 18/15/16 20/30/16
f 14/25/224 22/48/224 21/32/224
f 20/34/18 24/531/18 23/35/18
f 19/37/6 23/532/6 21/38/6
f 18/39/1 22/533/1 24/40/1
f 18/42/2 17/534/2 21/43/2
f 13/33/19 21/32/19 23/28/19
f 11/46/225 12/31/225 20/30/225
f 9/47/21 11/46/21 19/37/21
f 14/25/22 16/27/22 24/29/22
f 13/49/226 25/535/226 26/50/226
f 15/52/46 16/536/46 28/53/46
f 15/55/25 27/537/25 25/56/25
f 3/2/26 30/65/26 31/58/26
f 1/12/27 7/11/27 32/59/27
f 7/61/28 5/538/28 31/62/29
f 1/5/31 29/539/32 30/64/32
f 30/65/33 35/72/33 34/66/33
f 29/60/34 32/59/34 36/67/34
f 31/62/29 34/75/8 36/69/8
f 30/64/32 29/539/32 33/70/35
f 35/72/13 39/22/11 38/24/13
f 33/73/36 36/540/36 40/74/36
f 34/75/8 38/16/8 40/18/8
f 35/71/35 33/70/35 37/76/35
f 43/77/1 44/541/1 46/78/1
f 41/80/18 42/542/18 44/81/18
f 79/83/37 50/543/227 49/84/38
f 47/86/6 48/544/6 42/87/6
f 50/89/228 58/545/228 57/90/228
f 51/92/41 52/546/41 78/93/42
f 77/95/10 49/547/10 51/96/10
f 52/98/12 50/548/12 79/99/12
f 68/101/14 66/549/14 54/102/14
f 56/103/229 64/122/229 63/104/229
f 60/106/16 58/545/16 50/89/16
f 61/108/230 62/550/230 54/102/230
f 63/110/2 64/551/2 60/111/2
f 61/113/6 63/552/6 59/114/6
f 64/115/1 62/553/1 58/116/1
f 58/118/18 62/554/18 61/119/18
f 63/104/19 61/108/19 53/109/19
f 51/121/231 59/114/231 60/106/231
f 49/91/21 57/90/21 59/114/21
f 54/102/22 62/550/22 64/122/22
f 66/123/24 65/555/24 53/124/24
f 55/126/226 67/556/226 68/127/226
f 65/129/25 67/557/25 55/130/25
f 71/132/26 70/139/26 43/77/26
f 41/88/27 69/140/27 72/133/27
f 47/134/47 72/143/51 71/135/50
f 70/137/48 69/145/48 41/80/49
f 74/138/33 75/146/33 70/139/33
f 69/140/34 73/558/34 76/141/34
f 76/142/42 74/149/42 71/135/50
f 70/137/48 75/150/39 73/144/39
f 78/100/13 79/99/12 75/146/13
f 73/147/36 77/95/10 80/97/36
f 80/94/42 78/93/42 74/149/42
f 75/150/39 79/83/37 77/85/39
f 103/151/232 101/183/232 92/152/232
f 91/154/2 92/559/2 90/155/2
f 103/157/233 91/560/233 89/158/233
f 94/160/55 96/561/76 100/161/56
f 98/163/61 100/167/60 96/164/83
f 108/166/59 106/562/86 100/167/60
f 97/162/57 100/161/56 106/168/62
f 93/170/87 99/184/74 98/171/75
f 94/160/234 97/162/71 99/173/73
f 92/152/235 101/183/235 104/185/235
f 89/178/236 90/177/236 104/176/236
f 103/157/68 102/159/237 108/180/69
f 105/182/238 107/169/238 101/183/238
f 97/162/71 107/169/72 105/182/72
f 99/184/74 105/181/70 108/180/69
f 101/183/239 107/169/239 106/168/239
f 104/176/77 106/562/86 108/166/59
f 119/186/240 111/563/240 112/187/240
f 111/189/241 109/564/241 110/190/241
f 119/192/242 118/565/242 109/193/242
f 116/195/81 96/561/76 94/160/55
f 114/197/243 95/165/243 96/164/243
f 124/199/85 114/197/82 116/198/84
f 122/201/62 116/195/81 113/196/57
f 93/170/63 95/172/63 114/203/244
f 115/205/96 113/196/95 94/160/245
f 112/566/246 110/209/246 120/208/246
f 109/207/247 118/213/247 120/208/247
f 124/210/92 118/565/248 119/192/93
f 121/212/65 119/186/65 117/188/65
f 121/212/72 123/202/72 113/196/95
f 115/204/89 114/203/88 124/210/92
f 117/188/76 120/206/76 122/201/76
f 124/199/85 122/200/86 120/208/98
f 137/214/249 128/223/249 130/215/249
f 141/217/250 127/567/250 153/218/250
f 153/220/251 127/568/251 132/221/251
f 128/223/252 133/247/252 134/224/252
f 144/225/253 145/241/253 135/226/253
f 136/228/254 135/250/254 125/229/254
f 138/231/255 140/258/255 131/230/255
f 142/232/256 143/255/134 138/233/133
f 154/235/257 152/569/257 137/214/257
f 137/236/113 143/255/258 142/232/114
f 126/238/116 141/217/259 156/219/117
f 134/240/119 133/570/260 145/241/120
f 145/241/261 133/570/261 148/242/261
f 142/244/262 150/253/262 147/245/262
f 133/247/263 128/223/263 147/248/263
f 135/250/264 149/571/264 146/251/264
f 142/244/265 125/572/265 146/252/265
f 145/241/266 151/243/266 149/254/266
f 137/236/128 152/239/118 156/219/117
f 126/256/267 152/569/267 154/235/267
f 138/231/268 153/220/104 155/222/106
f 156/219/269 153/218/269 138/233/269
f 130/215/270 160/265/270 163/259/270
f 176/260/271 159/573/271 165/261/271
f 176/263/167 155/222/166 132/221/272
f 134/224/273 161/283/273 160/265/273
f 144/225/274 136/227/274 162/266/274
f 157/268/275 162/286/275 136/228/275
f 131/230/276 140/258/276 164/269/276
f 166/270/277 157/574/277 164/271/277
f 154/235/278 139/216/137 163/259/136
f 166/270/148 167/272/279 163/274/149
f 177/262/280 165/261/280 158/276/280
f 134/240/154 144/225/281 168/267/155
f 168/267/282 174/575/282 171/279/282
f 170/280/283 173/576/283 166/281/283
f 161/283/284 171/577/284 170/284/284
f 169/285/285 172/578/285 162/286/285
f 166/281/286 173/576/286 169/287/286
f 172/289/287 174/575/287 168/267/287
f 163/274/163 167/272/288 177/262/151
f 154/235/289 175/273/289 158/290/289
f 164/269/290 140/258/290 155/222/290
f 164/271/291 176/260/291 177/262/291
f 200/291/169 223/329/169 243/292/169
f 179/294/18 199/342/18 204/295/18
f 182/296/18 192/579/18 186/297/18
f 191/298/170 231/313/170 235/299/170
f 213/301/171 203/358/171 206/302/171
f 198/304/171 213/301/171 212/303/171
f 205/306/172 212/340/172 244/307/172
f 183/309/2 181/320/2 189/310/2
f 191/298/173 190/580/174 232/312/174
f 185/315/175 178/322/175 180/314/175
f 180/314/175 190/580/175 191/298/175
f 208/300/175 184/396/175 185/315/175
f 180/314/175 191/298/175 208/300/175
f 210/316/176 187/326/176 193/317/176
f 207/319/2 202/344/2 181/320/2
f 178/322/175 196/581/175 197/345/175
f 211/321/175 200/291/175 201/293/175
f 178/322/175 197/345/175 211/321/175
f 201/293/175 180/314/175 178/322/175
f 206/323/177 207/395/177 242/324/177
f 187/326/178 186/353/292 192/327/179
f 200/291/181 211/321/181 224/328/181
f 195/330/182 230/349/182 229/331/182
f 188/333/183 195/330/293 194/332/184
f 201/335/186 243/368/186 222/336/186
f 192/327/187 182/400/187 226/338/187
f 206/323/172 241/325/172 244/307/172
f 198/341/188 205/582/294 204/295/189
f 207/319/191 206/583/295 203/343/192
f 197/345/194 196/581/194 240/346/194
f 195/330/195 209/318/195 236/348/195
f 188/333/176 210/316/176 209/318/176
f 216/355/296 214/352/296 187/326/296
f 188/333/297 215/350/297 216/355/297
f 217/356/298 216/355/298 215/350/298
f 214/352/299 216/355/299 217/356/299
f 220/364/300 202/360/300 219/362/300
f 218/366/301 199/584/301 220/364/301
f 242/367/2 221/585/2 222/336/2
f 238/369/1 244/377/1 224/370/1
f 225/372/18 233/381/18 227/373/18
f 222/336/2 221/585/2 229/375/2
f 244/377/1 241/586/1 223/378/1
f 230/379/207 231/587/207 232/376/207
f 228/380/208 227/373/208 233/381/208
f 236/348/6 228/394/6 234/383/6
f 239/385/209 240/389/209 237/386/209
f 243/368/210 223/588/210 241/388/210
f 226/374/18 237/386/18 240/389/18
f 230/349/6 236/348/6 235/384/6
f 194/332/211 229/331/211 221/391/211
f 196/393/212 178/402/212 225/372/212
f 193/317/213 192/327/213 227/339/213
f 193/317/195 228/394/195 236/348/195
f 207/395/211 183/392/211 221/391/211
f 184/396/214 234/403/214 233/397/215
f 205/306/216 238/308/216 237/398/216
f 204/399/187 237/398/187 226/338/187
f 185/401/212 233/381/212 225/372/212
f 184/396/170 208/300/170 235/299/170
f 197/345/181 239/347/181 224/328/181
f 190/404/186 180/337/186 222/336/186
f 265/405/169 284/438/169 304/406/169
f 246/408/18 264/451/18 269/409/18
f 249/410/18 257/589/18 253/411/18
f 256/412/170 292/427/170 296/413/170
f 277/415/171 268/460/171 271/416/171
f 263/418/171 277/415/171 276/417/171
f 270/420/172 276/449/172 305/421/172
f 250/423/2 248/431/2 254/424/2
f 256/412/173 255/590/174 293/426/174
f 252/429/175 245/433/175 247/428/175
f 247/428/175 255/590/175 256/412/175
f 273/414/175 251/500/175 252/429/175
f 247/428/175 256/412/175 273/414/175
f 272/430/2 267/453/2 248/431/2
f 245/433/175 261/591/175 262/454/175
f 275/432/175 265/405/175 266/407/175
f 245/433/175 262/454/175 275/432/175
f 266/407/175 247/428/175 245/433/175
f 271/434/177 272/499/177 303/435/177
f 265/405/181 275/432/181 285/437/181
f 260/439/182 291/458/182 290/440/182
s 0
f 253/442/219 257/442/6 306/442/217
s 1
f 266/443/186 304/470/186 283/444/186
f 257/446/187 249/504/187 287/447/187
f 271/434/172 302/436/172 305/421/172
f 263/450/188 270/592/294 269/409/218
f 272/430/191 271/593/295 268/452/192
f 262/454/194 261/591/194 301/455/194
f 260/439/195 274/498/195 297/457/195
s 0
f 259/442/217 254/442/1 312/442/217
f 274/442/217 260/442/1 311/442/217
f 246/442/219 253/442/1 309/442/217
f 258/442/217 274/442/1 314/442/217
f 278/442/217 246/442/1 315/442/217
f 260/442/217 259/442/1 310/442/217
f 254/442/217 248/442/6 317/442/217
f 248/442/302 278/442/1 321/442/217
f 257/442/221 258/442/1 307/442/217
s 1
f 281/466/300 267/462/300 280/464/300
f 279/468/301 264/594/301 281/466/301
f 303/469/2 282/595/2 283/444/2
f 299/471/1 305/479/1 285/472/1
f 286/474/18 294/483/18 288/475/18
f 283/444/2 282/595/2 290/477/2
f 305/479/1 302/596/1 284/480/1
f 291/481/207 292/597/207 293/478/207
f 289/482/208 288/475/208 294/483/208
f 297/457/6 289/497/6 295/485/6
f 300/487/209 301/491/209 298/488/209
f 304/470/210 284/598/210 302/490/210
f 287/476/18 298/488/18 301/491/18
f 291/458/6 297/457/6 296/486/6
f 259/441/211 290/440/211 282/493/211
f 261/495/212 245/506/212 286/474/212
f 258/496/213 257/446/213 288/448/213
f 258/496/195 289/497/195 297/457/195
f 272/499/211 250/494/211 282/493/211
f 251/500/214 295/507/214 294/501/215
f 270/420/216 299/422/216 298/502/216
f 269/503/187 298/502/187 287/447/187
f 252/505/212 294/483/212 286/474/212
f 251/500/170 273/414/170 296/413/170
f 262/454/181 300/456/181 285/437/181
f 255/508/186 247/445/186 283/444/186
f 316/509/176 308/512/176 307/510/176
f 308/512/178 309/521/292 306/513/179
f 313/514/183 311/517/293 310/515/184
f 313/514/176 316/509/176 314/511/176
f 320/523/296 318/520/296 308/512/296
f 313/514/297 319/518/297 320/523/297
f 321/524/298 320/523/298 319/518/298
f 318/520/299 320/523/299 321/524/299
f 82/599/18 83/600/18 81/601/18
f 84/602/1 87/603/1 83/604/1
f 88/605/2 85/606/2 87/607/2
f 86/608/6 81/609/6 85/610/6
f 87/611/175 81/612/175 83/613/175
f 84/614/217 86/608/217 88/615/217
f 82/599/18 84/616/18 83/600/18
f 84/602/1 88/617/1 87/603/1
f 88/605/2 86/618/2 85/606/2
f 86/608/6 82/619/6 81/609/6
f 87/611/175 85/620/175 81/612/175
f 84/614/217 82/619/217 86/608/217
