# Blender 4.4.3
# www.blender.org
mtllib cylinder.mtl
o Cylinder
v -5.000000 0.000000 -1.000000
v 5.000000 -0.000000 -1.000000
v -5.000000 -0.500000 -0.866025
v 5.000000 -0.500000 -0.866025
v -5.000000 -0.866025 -0.500000
v 5.000000 -0.866026 -0.500000
v -5.000000 -1.000000 0.000000
v 5.000000 -1.000000 0.000000
v -5.000000 -0.866025 0.500000
v 5.000000 -0.866026 0.500000
v -5.000000 -0.500000 0.866025
v 5.000000 -0.500000 0.866025
v -5.000000 0.000000 1.000000
v 5.000000 -0.000000 1.000000
v -5.000000 0.500000 0.866025
v 5.000000 0.500000 0.866025
v -5.000000 0.866026 0.500000
v 5.000000 0.866025 0.500000
v -5.000000 1.000000 0.000000
v 5.000000 1.000000 0.000000
v -5.000000 0.866026 -0.500000
v 5.000000 0.866025 -0.500000
v -5.000000 0.500000 -0.866025
v 5.000000 0.500000 -0.866025
v -5.000000 -0.500000 -0.866025
v -5.000000 0.000000 -1.000000
v 5.000000 -0.000000 -1.000000
v 5.000000 -0.500000 -0.866025
v -5.000000 -0.866025 -0.500000
v 5.000000 -0.866026 -0.500000
v -5.000000 -1.000000 0.000000
v 5.000000 -1.000000 0.000000
v -5.000000 -0.866025 0.500000
v 5.000000 -0.866026 0.500000
v -5.000000 -0.500000 0.866025
v 5.000000 -0.500000 0.866025
v -5.000000 0.000000 1.000000
v 5.000000 -0.000000 1.000000
v -5.000000 0.500000 0.866025
v 5.000000 0.500000 0.866025
v -5.000000 0.866026 0.500000
v 5.000000 0.866025 0.500000
v -5.000000 1.000000 0.000000
v 5.000000 1.000000 0.000000
v -5.000000 0.866026 -0.500000
v 5.000000 0.866025 -0.500000
v -5.000000 0.500000 -0.866025
v 5.000000 0.500000 -0.866025
vn -0.0000 0.2588 0.9659
vn -0.0000 0.7071 0.7071
vn -0.0000 0.9659 0.2588
vn -0.0000 0.9659 -0.2588
vn -0.0000 0.7071 -0.7071
vn -0.0000 0.2588 -0.9659
vn -0.0000 -0.2588 -0.9659
vn -0.0000 -0.7071 -0.7071
vn -0.0000 -0.9659 -0.2588
vn -0.0000 -0.9659 0.2588
vn -0.0000 -0.7071 0.7071
vn -0.0000 -0.2588 0.9659
vn 1.0000 -0.0000 -0.0000
vt 1.000000 0.000000
vt 0.916667 0.000000
vt 0.916667 1.000000
vt 1.000000 1.000000
vt 0.833333 0.000000
vt 0.833333 1.000000
vt 0.750000 0.000000
vt 0.750000 1.000000
vt 0.666667 0.000000
vt 0.666667 1.000000
vt 0.583333 0.000000
vt 0.583333 1.000000
vt 0.500000 0.000000
vt 0.500000 1.000000
vt 0.416667 0.000000
vt 0.416667 1.000000
vt 0.333333 0.000000
vt 0.333333 1.000000
vt 0.250000 0.000000
vt 0.250000 1.000000
vt 0.166667 0.000000
vt 0.166667 1.000000
vt 0.083333 0.000000
vt 0.083333 1.000000
vt 0.000000 0.000000
vt 0.000000 1.000000
s 0
f 26/1/1 25/2/1 28/3/1 27/4/1
f 25/2/2 29/5/2 30/6/2 28/3/2
f 29/5/3 31/7/3 32/8/3 30/6/3
f 31/7/4 33/9/4 34/10/4 32/8/4
f 33/9/5 35/11/5 36/12/5 34/10/5
f 35/11/6 37/13/6 38/14/6 36/12/6
f 37/13/7 39/15/7 40/16/7 38/14/7
f 39/15/8 41/17/8 42/18/8 40/16/8
f 41/17/9 43/19/9 44/20/9 42/18/9
f 43/19/10 45/21/10 46/22/10 44/20/10
f 45/21/11 47/23/11 48/24/11 46/22/11
f 47/23/12 26/25/12 27/26/12 48/24/12
f 26/1/13 25/2/13 3/2/13 1/1/13
f 28/3/13 27/4/13 2/4/13 4/3/13
f 25/2/13 29/5/13 5/5/13 3/2/13
f 30/6/13 28/3/13 4/3/13 6/6/13
f 29/5/13 31/7/13 7/7/13 5/5/13
f 32/8/13 30/6/13 6/6/13 8/8/13
f 31/7/13 33/9/13 9/9/13 7/7/13
f 34/10/13 32/8/13 8/8/13 10/10/13
f 33/9/13 35/11/13 11/11/13 9/9/13
f 36/12/13 34/10/13 10/10/13 12/12/13
f 35/11/13 37/13/13 13/13/13 11/11/13
f 38/14/13 36/12/13 12/12/13 14/14/13
f 37/13/13 39/15/13 15/15/13 13/13/13
f 40/16/13 38/14/13 14/14/13 16/16/13
f 39/15/13 41/17/13 17/17/13 15/15/13
f 42/18/13 40/16/13 16/16/13 18/18/13
f 41/17/13 43/19/13 19/19/13 17/17/13
f 44/20/13 42/18/13 18/18/13 20/20/13
f 43/19/13 45/21/13 21/21/13 19/19/13
f 46/22/13 44/20/13 20/20/13 22/22/13
f 45/21/13 47/23/13 23/23/13 21/21/13
f 48/24/13 46/22/13 22/22/13 24/24/13
f 47/23/13 26/25/13 1/25/13 23/23/13
f 27/26/13 48/24/13 24/24/13 2/26/13
