# Blender 4.4.3
# www.blender.org
mtllib monkey.mtl
o Pants
v 0.175742 1.261407 0.102675
v 0.175742 1.441293 0.102675
v 0.175742 1.261407 -0.102675
v 0.175742 1.441293 -0.102675
v 0.000000 1.261407 -0.102675
v 0.000000 1.261407 0.102675
v 0.268901 0.154482 0.106886
v 0.219827 0.745240 0.130472
v 0.219827 0.745240 -0.119485
v 0.005909 0.745240 -0.119485
v 0.005909 0.745240 0.130472
v 0.226181 0.669519 0.132283
v 0.006028 0.669519 -0.124959
v 0.226181 0.669519 -0.124959
v 0.006028 0.669519 0.132283
v -0.175742 1.261407 0.102675
v -0.175742 1.441293 0.102675
v -0.175742 1.261407 -0.102675
v -0.175742 1.441293 -0.102675
v 0.000000 1.441293 -0.102675
v 0.000000 1.441293 0.102675
v -0.268901 0.154482 0.106886
v -0.268901 0.128115 -0.199337
v -0.006830 0.128115 -0.199337
v -0.219827 0.745240 0.130472
v -0.219827 0.745240 -0.119485
v -0.005909 0.745240 -0.119485
v -0.005909 0.745240 0.130472
v -0.226181 0.669519 0.132283
v -0.006028 0.669519 -0.124959
v -0.226181 0.669519 -0.124959
v -0.006028 0.669519 0.132283
v -0.108941 2.042057 0.108941
v -0.108941 2.259938 0.108941
v -0.108941 2.042057 -0.108941
v -0.108941 2.259938 -0.108941
v 0.108941 2.042057 0.108941
v 0.108941 2.259938 0.108941
v 0.108941 2.042057 -0.108941
v 0.108941 2.259938 -0.108941
v 0.867023 1.917356 0.062235
v 0.910950 1.952615 0.007845
v 0.910950 1.895318 -0.008248
v 0.910950 1.929487 -0.040326
v 0.000000 1.876358 -0.008248
v 0.000000 1.929487 -0.062638
v 0.000000 1.917356 0.062235
v 0.000000 1.970484 0.007845
v 0.599173 1.929487 -0.064729
v 0.583001 1.917356 0.056111
v 0.585267 1.876358 -0.008248
v 0.592287 1.970484 0.007845
v 0.626409 1.929487 -0.062638
v 0.635523 1.917356 0.055462
v 0.634359 1.876358 -0.008248
v 0.631236 1.970484 0.007845
v 0.609813 1.876358 -0.008248
v 0.609813 1.970484 0.007845
v 0.612602 1.929487 -0.064729
v 0.609813 1.917356 0.055904
v -0.867023 1.917356 0.062235
v -0.910950 1.952615 0.007845
v -0.910950 1.895318 -0.008248
v -0.910950 1.929487 -0.040326
v -0.599173 1.929487 -0.064729
v -0.583001 1.917356 0.056111
v -0.585267 1.876358 -0.008248
v -0.592287 1.970484 0.007845
v -0.626409 1.929487 -0.062638
v -0.635523 1.917356 0.055462
v -0.634359 1.876358 -0.008248
v -0.631236 1.970484 0.007845
v -0.609813 1.876358 -0.008248
v -0.609813 1.970484 0.007845
v -0.612602 1.929487 -0.064729
v -0.609813 1.917356 0.055904
v 0.171355 1.865723 -0.106926
v 0.190571 1.277727 0.132518
v 0.171355 1.861178 0.102339
v 0.000000 1.834263 0.102339
v 0.000000 1.834263 -0.095275
v 0.165251 1.993602 0.091242
v 0.000000 2.006349 0.091242
v 0.165251 1.992022 -0.071454
v 0.000000 2.008222 -0.076230
v 0.180963 1.609446 0.106995
v 0.160356 1.609446 -0.105425
v 0.000000 1.609446 0.114424
v 0.000000 1.609446 -0.100361
v 0.171355 1.834902 -0.010090
v 0.180963 1.609446 -0.004047
v 0.000000 2.007286 0.007506
v 0.165251 1.994875 0.008729
v 0.305083 1.875881 0.073889
v 0.337654 1.968853 -0.062329
v 0.303563 1.849448 -0.008214
v 0.186491 1.418583 0.118223
v 0.177741 1.407987 -0.115260
v 0.000000 1.413950 0.123448
v 0.000000 1.403172 -0.113110
v 0.186491 1.409857 -0.000570
v -0.171355 1.865723 -0.106926
v -0.190571 1.259312 -0.122518
v -0.171355 1.861178 0.102339
v -0.165251 1.993602 0.091242
v -0.165251 1.992022 -0.071454
v -0.180963 1.609446 0.106995
v -0.160356 1.609446 -0.105425
v -0.190571 1.262561 0.001996
v -0.171355 1.834902 -0.010090
v -0.180963 1.609446 -0.004047
v -0.165251 1.994875 0.008729
v -0.338496 1.971834 0.067411
v -0.339810 1.981749 0.008508
v -0.186491 1.418583 0.118223
v -0.177741 1.407987 -0.115260
v -0.186491 1.409857 -0.000570
v -0.239937 0.166623 0.092511
v -0.039937 0.166623 0.092511
v -0.239937 0.049060 0.100000
v -0.039937 0.049060 0.100000
v -0.239937 0.110533 0.188509
v -0.195692 0.110206 0.232782
v -0.084182 0.110206 0.232782
v -0.039937 0.110533 0.188509
v -0.239937 0.049060 0.225740
v -0.195692 0.049060 0.270000
v -0.039937 0.049060 0.225740
v -0.084182 0.049060 0.270000
v -0.202033 0.159074 -0.191412
v -0.077841 0.159074 -0.191412
v -0.239937 0.049060 -0.146018
v -0.202033 0.049060 -0.183922
v -0.077841 0.049060 -0.183922
v -0.039937 0.049060 -0.146018
v -0.139937 0.049060 -0.183922
v -0.139937 0.159074 -0.191412
v -0.217815 0.138415 0.162647
v -0.062059 0.138415 0.162647
v -0.084874 0.166623 -0.177104
v -0.194706 0.166623 -0.183366
v -0.035930 0.046089 0.099047
v -0.035930 0.005182 0.099047
v -0.075353 0.005182 -0.196252
v -0.139937 0.005182 -0.196252
v -0.243944 0.005182 0.099047
v -0.243944 0.046089 0.099047
v -0.243944 0.046089 0.229825
v -0.197926 0.046089 0.275858
v -0.035930 0.046089 0.229825
v -0.081948 0.046089 0.275858
v -0.081948 0.005182 0.275858
v -0.035930 0.005182 0.229825
v -0.243944 0.005182 0.229825
v -0.197926 0.005182 0.275858
v -0.139937 0.005182 0.275858
v -0.243944 0.046089 -0.156829
v -0.204521 0.046089 -0.196252
v -0.204521 0.005182 -0.196252
v -0.243944 0.005182 -0.156829
v -0.075353 0.046089 -0.196252
v -0.035930 0.046089 -0.156829
v -0.035930 0.005182 -0.156829
v -0.139937 0.046089 -0.196252
v 0.040000 0.049060 0.100000
v 0.240000 0.049060 0.100000
v 0.240000 0.110533 0.188509
v 0.040000 0.049060 0.225740
v 0.084245 0.049060 0.270000
v 0.077904 0.159074 -0.191412
v 0.040000 0.166623 -0.153507
v 0.202096 0.159074 -0.191412
v 0.040000 0.049060 -0.146018
v 0.077904 0.049060 -0.183922
v 0.202096 0.049060 -0.183922
v 0.240000 0.049060 -0.146018
v 0.140000 0.049060 0.270000
v 0.140000 0.049060 -0.183922
v 0.140000 0.159074 -0.191412
v 0.085231 0.166623 -0.183366
v 0.195064 0.166623 -0.177104
v 0.244007 0.046089 0.099047
v 0.244007 0.005182 0.099047
v 0.204584 0.005182 -0.196252
v 0.140000 0.005182 -0.196252
v 0.035993 0.005182 0.099047
v 0.035993 0.046089 0.099047
v 0.035993 0.046089 0.229825
v 0.082011 0.046089 0.275858
v 0.244007 0.046089 0.229825
v 0.197989 0.046089 0.275858
v 0.197989 0.005182 0.275858
v 0.244007 0.005182 0.229825
v 0.035993 0.005182 0.229825
v 0.082011 0.005182 0.275858
v 0.140000 0.005182 0.275858
v 0.035993 0.046089 -0.156829
v 0.075416 0.046089 -0.196252
v 0.075416 0.005182 -0.196252
v 0.035993 0.005182 -0.156829
v 0.204584 0.046089 -0.196252
v 0.244007 0.046089 -0.156829
v 0.244007 0.005182 -0.156829
v 0.140000 0.046089 -0.196252
v 0.040000 0.110533 0.188509
v 0.240000 0.049060 0.225740
v 0.195755 0.049060 0.270000
v 0.062122 0.138415 0.162647
v 0.217878 0.138415 0.162647
v 0.268901 0.128115 -0.199337
v 0.006830 0.154482 0.106886
v 0.006830 0.128115 -0.199337
v -0.006830 0.154482 0.106886
v 0.190571 1.262561 0.001996
v 0.190571 1.259312 -0.122518
v 0.000000 1.269674 0.136115
v 0.000000 1.250943 -0.122518
v 0.338496 1.971834 0.067411
v 0.339810 1.981749 0.008508
v 0.304812 1.879302 -0.078019
v -0.190571 1.277727 0.132518
v -0.303563 1.849448 -0.008214
v -0.305083 1.875881 0.073889
v -0.337654 1.968853 -0.062329
v -0.304812 1.879302 -0.078019
v -0.139937 0.110206 0.232782
v -0.039937 0.166623 -0.153507
v -0.239937 0.166623 -0.153507
v 0.040000 0.166623 0.092511
v 0.084245 0.110206 0.232782
v 0.195755 0.110206 0.232782
v -0.140550 0.159074 -0.132540
v 0.240000 0.166623 0.092511
v 0.240000 0.166623 -0.153507
v 0.140000 0.166324 0.092732
v 0.139387 0.159074 -0.132540
v 0.140000 0.110206 0.232782
vn -0.0000 -0.0000 -1.0000
vn 1.0000 -0.0000 -0.0000
vn -0.0000 -0.0000 1.0000
vn -0.0000 0.0326 -0.9995
vn -0.0000 0.0538 0.9986
vn -0.9999 -0.0114 -0.0000
vn 0.9964 0.0851 -0.0000
vn -0.0000 0.0721 -0.9974
vn -0.0000 0.0239 0.9997
vn -1.0000 -0.0016 -0.0000
vn 0.9965 0.0836 -0.0000
vn -1.0000 -0.0000 -0.0000
vn 0.9968 0.0796 -0.0069
vn 1.0000 -0.0016 -0.0000
vn -0.0000 0.1361 -0.9907
vn -1.0000 -0.0015 0.0001
vn -0.0000 -0.0493 0.9988
vn -0.9968 0.0796 -0.0069
vn 0.9999 -0.0114 -0.0000
vn -0.9964 0.0851 -0.0000
vn -0.9965 0.0836 -0.0000
vn -0.0000 -1.0000 -0.0000
vn -0.0000 1.0000 -0.0000
vn 0.0469 -0.6837 -0.7283
vn 0.8155 -0.1565 0.5572
vn -0.0158 -0.8407 0.5413
vn -0.0017 0.8706 -0.4920
vn 0.0073 0.7153 0.6987
vn 0.0057 0.6719 0.7406
vn -0.0000 0.8707 -0.4919
vn 0.0053 -0.8644 0.5028
vn -0.0000 -0.7154 -0.6988
vn 0.0575 0.9000 -0.4321
vn -0.0218 0.6663 0.7454
vn -0.0000 -0.8426 0.5385
vn -0.0000 -0.7284 -0.6852
vn 0.0042 -0.8433 0.5374
vn -0.0000 0.8644 -0.5028
vn 0.0128 0.6679 0.7441
vn -0.0550 -0.7102 -0.7018
vn -0.0645 -0.9403 0.3342
vn 0.0017 0.8706 -0.4920
vn -0.0000 0.6724 0.7402
vn -0.0000 0.6708 0.7416
vn -0.0000 -0.8434 0.5373
vn -0.0396 0.8625 -0.5044
vn -0.0523 0.8182 0.5726
vn -0.1028 -0.7271 -0.6788
vn -0.0740 0.8695 -0.4884
vn -0.0128 0.6679 0.7441
vn 0.0410 0.0536 0.9977
vn 0.9967 0.0263 -0.0765
vn -0.0137 0.0617 -0.9980
vn -0.0101 0.0643 0.9979
vn 0.0972 0.9952 0.0111
vn -0.0872 0.1084 -0.9903
vn -0.0673 -0.0030 -0.9977
vn 0.9990 -0.0430 -0.0137
vn 0.0410 0.0461 0.9981
vn 0.9992 0.0380 -0.0089
vn 0.9996 0.0287 -0.0021
vn 0.0748 0.9971 0.0112
vn 0.0741 0.9831 0.1671
vn 0.1536 -0.9622 0.2249
vn 0.1385 0.0186 0.9902
vn 0.1769 0.2741 -0.9453
vn 0.1062 -0.9149 -0.3894
vn 0.1349 0.9902 -0.0352
vn 0.9996 0.0277 -0.0000
vn 0.0151 0.0875 0.9961
vn -0.0315 0.0617 -0.9976
vn 0.9797 0.0237 -0.1991
vn -0.0410 0.0536 0.9977
vn -0.9967 0.0263 -0.0765
vn 0.0021 0.0486 -0.9988
vn 0.0101 0.0643 0.9979
vn -0.0751 0.9965 -0.0355
vn 0.0872 0.1084 -0.9903
vn 0.0673 -0.0030 -0.9977
vn -0.9793 0.0364 -0.1991
vn -0.0265 0.0595 0.9979
vn -0.9992 0.0380 -0.0089
vn -0.9996 0.0287 -0.0021
vn -0.0769 0.9969 0.0154
vn -0.1267 0.9918 0.0153
vn -0.1536 -0.9622 0.2249
vn -0.1977 0.0909 0.9760
vn -0.1769 0.2741 -0.9453
vn -0.1605 -0.9405 -0.2994
vn -0.1349 0.9902 -0.0352
vn -0.9996 0.0288 -0.0021
vn -0.0151 0.0875 0.9961
vn 0.0134 0.0476 -0.9988
vn -0.9797 0.0237 -0.1991
vn -0.0000 -0.0679 -0.9977
vn -0.0000 0.9722 -0.2342
vn 0.1929 0.9621 -0.1929
vn -0.6496 0.3953 0.6494
vn 0.3259 0.8875 0.3258
vn 0.6486 0.3943 0.6511
vn -0.5956 0.8033 -0.0000
vn -0.7108 -0.0447 -0.7019
vn 0.7108 -0.0447 -0.7019
vn 0.4461 0.7728 0.4515
vn -0.4461 0.7728 0.4515
vn -0.0000 0.8844 -0.4667
vn -0.0000 0.7292 -0.6843
vn 0.1990 0.9037 -0.3790
vn -0.3166 0.8184 -0.4796
vn -0.1355 0.9908 -0.0014
vn 0.1368 0.9906 0.0014
vn 0.7072 -0.0000 0.7070
vn -0.7072 -0.0000 0.7070
vn -0.0000 0.8919 0.4523
vn -0.7071 -0.0000 -0.7071
vn 0.7071 -0.0000 -0.7071
vn 0.5956 0.8033 -0.0000
vn -0.3259 0.8875 0.3258
vn -0.0000 0.5199 0.8542
vn -0.1929 0.9621 -0.1929
vn -0.0000 0.9278 0.3731
vn 0.9966 0.0827 -0.0000
vn 1.0000 -0.0015 0.0001
vn -0.9966 0.0827 -0.0000
vn 0.0550 -0.7102 -0.7018
vn 0.0645 -0.9403 0.3342
vn -0.0024 -0.7281 -0.6855
vn 0.0396 0.8625 -0.5044
vn 0.0523 0.8182 0.5726
vn 0.0093 -0.8410 0.5410
vn 0.1028 -0.7271 -0.6788
vn 0.0740 0.8695 -0.4884
vn -0.0469 -0.6837 -0.7283
vn -0.8155 -0.1565 0.5572
vn 0.0158 -0.8407 0.5413
vn -0.0073 0.7153 0.6987
vn -0.0057 0.6719 0.7406
vn -0.0053 -0.8644 0.5028
vn 0.0024 -0.7281 -0.6855
vn -0.0575 0.9000 -0.4321
vn 0.0218 0.6663 0.7454
vn -0.0093 -0.8410 0.5410
vn -0.0042 -0.8433 0.5374
vn -0.0029 0.0184 0.9998
vn 0.9963 0.0861 -0.0022
vn -0.0021 0.0486 -0.9988
vn 0.0065 0.0838 0.9965
vn 0.0751 0.9965 -0.0355
vn 0.0545 0.2724 -0.9606
vn -0.0316 0.0226 -0.9992
vn 0.9793 0.0364 -0.1991
vn 0.0265 0.0595 0.9979
vn 0.9991 0.0426 -0.0000
vn 0.9996 0.0276 -0.0032
vn 0.0769 0.9969 0.0154
vn 0.1267 0.9918 0.0153
vn 0.1000 -0.9477 0.3032
vn 0.1977 0.0909 0.9760
vn 0.0719 0.1465 -0.9866
vn 0.1605 -0.9405 -0.2994
vn 0.0735 0.9808 -0.1808
vn 0.9996 0.0288 -0.0021
vn 0.0253 0.1017 0.9945
vn -0.0134 0.0476 -0.9988
vn 0.9930 0.0895 -0.0772
vn 0.0029 0.0184 0.9998
vn -0.9963 0.0861 -0.0022
vn 0.0137 0.0617 -0.9980
vn -0.0065 0.0838 0.9965
vn -0.0972 0.9952 0.0111
vn -0.0545 0.2724 -0.9606
vn 0.0316 0.0226 -0.9992
vn -0.9990 -0.0430 -0.0137
vn -0.0410 0.0461 0.9981
vn -0.9991 0.0426 -0.0000
vn -0.9996 0.0276 -0.0032
vn -0.0748 0.9971 0.0112
vn -0.0741 0.9831 0.1671
vn -0.1000 -0.9477 0.3032
vn -0.1385 0.0186 0.9902
vn -0.0719 0.1465 -0.9866
vn -0.1062 -0.9149 -0.3894
vn -0.0735 0.9808 -0.1808
vn -0.9996 0.0277 -0.0000
vn -0.0253 0.1017 0.9945
vn 0.0315 0.0617 -0.9976
vn -0.9930 0.0895 -0.0772
vn -0.6486 0.3943 0.6511
vn 0.6496 0.3953 0.6494
vn -0.7063 -0.0481 -0.7063
vn 0.7063 -0.0481 -0.7063
vn -0.0534 0.9934 0.1016
vn 0.0573 0.9946 0.0867
vt 0.026924 0.043738
vt 0.145868 0.166735
vt 0.026190 0.166016
vt 0.031222 0.039087
vt 0.179667 0.156690
vt 0.037347 0.163689
vt 0.068091 0.044453
vt 0.193573 0.171315
vt 0.068878 0.172084
vt 0.028102 0.517595
vt 0.191640 0.537708
vt 0.039859 0.538644
vt 0.051006 0.137330
vt 0.184268 0.494092
vt 0.014940 0.485734
vt 0.043339 0.522821
vt 0.173778 0.518470
vt 0.027873 0.569292
vt 0.191887 0.591443
vt 0.035682 0.592407
vt 0.011184 0.536938
vt 0.220418 0.566839
vt 0.042133 0.575606
vt 0.075272 0.165399
vt 0.193804 0.042827
vt 0.194536 0.164683
vt 0.025911 0.079227
vt 0.120299 0.004450
vt 0.116404 0.083678
vt 0.027151 0.173102
vt 0.152890 0.045981
vt 0.152100 0.173873
vt 0.220418 0.925449
vt 0.009085 0.954149
vt 0.206048 0.862492
vt 0.037429 0.532601
vt 0.206048 0.524278
vt 0.194536 0.936359
vt 0.043455 0.567463
vt 0.192859 0.566566
vt 0.011184 0.886471
vt 0.185447 0.545539
vt 0.217747 0.914562
vt 0.027152 0.960135
vt 0.185365 0.595055
vt 0.213479 0.961285
vt 0.193573 0.956743
vt 0.007625 0.957890
vt 0.000000 0.568038
vt 0.113361 0.345592
vt 0.134375 0.586287
vt 0.026190 0.940367
vt 0.177795 0.570192
vt 0.204658 0.941439
vt 0.192631 0.515047
vt 0.029088 0.540244
vt 0.167515 0.137611
vt 0.038569 0.482820
vt 0.032911 0.144255
vt 0.112595 0.312030
vt 0.047458 0.515919
vt 0.181179 0.541182
vt 0.028840 0.594089
vt 0.202413 0.474732
vt -0.000000 0.340018
vt 0.002444 0.306613
vt 0.597410 0.789618
vt 0.511612 0.875430
vt 0.511607 0.789618
vt 0.170941 0.903318
vt 0.256664 0.817506
vt 0.256664 0.903318
vt 0.085803 0.817506
vt 0.000000 0.903323
vt 0.000000 0.817511
vt 0.597415 0.972543
vt 0.678750 0.886730
vt 0.678750 0.972543
vt 0.594121 0.961242
vt 0.511607 0.875430
vt 0.594121 0.875430
vt 0.085803 0.817506
vt 0.170941 0.903920
vt 0.085803 0.903008
vt 0.983653 0.108935
vt 0.963327 -0.000000
vt 0.976193 -0.000000
vt 0.223797 0.932545
vt 0.204249 0.919615
vt 0.223797 0.903319
vt 0.906287 0.608616
vt 0.875161 0.700251
vt 0.877726 0.609075
vt 0.907104 0.357951
vt 0.936665 0.589311
vt 0.906287 0.593071
vt 0.962558 0.588389
vt 0.936665 0.358775
vt 0.963327 0.358775
vt 0.962532 0.598949
vt 0.936665 0.592046
vt 0.936665 0.596189
vt 0.906287 0.598341
vt 0.906287 0.358775
vt 0.877480 0.588389
vt 0.875161 0.358775
vt 0.963729 0.358775
vt 0.983653 0.128269
vt 0.983653 0.358775
vt 0.915823 0.715522
vt 0.936665 0.604596
vt 0.935785 0.714955
vt 0.963327 0.700251
vt 0.936665 0.607386
vt 0.962477 0.609075
vt 0.877558 0.598949
vt 0.906287 0.598949
vt 0.983653 0.118602
vt 0.963729 0.112066
vt 0.963767 0.122792
vt 0.906287 0.589282
vt 0.907104 0.603768
vt 0.983652 0.608616
vt 0.963327 0.717551
vt 0.963729 0.605485
vt 0.223797 0.932545
vt 0.243344 0.919615
vt 0.240470 0.940462
vt 0.906287 0.108935
vt 0.875161 0.017300
vt 0.904236 -0.000000
vt 0.936665 0.124457
vt 0.906287 0.122813
vt 0.962558 0.129162
vt 0.936665 0.125505
vt 0.962532 0.118602
vt 0.936665 0.118602
vt 0.936665 0.117580
vt 0.906287 0.117543
vt 0.877480 0.129162
vt 0.906287 0.128269
vt 0.983652 0.589282
vt 0.915823 0.000566
vt 0.936665 0.109173
vt 0.907104 0.112133
vt 0.963327 0.017300
vt 0.936665 0.110165
vt 0.943336 0.000000
vt 0.877558 0.118602
vt 0.906287 0.118602
vt 0.983652 0.598949
vt 0.963767 0.600047
vt 0.963767 0.594758
vt 0.962477 0.108476
vt 0.496793 0.775256
vt 0.390356 0.896273
vt 0.395803 0.770619
vt 0.774043 0.808821
vt 0.726417 0.752685
vt 0.771541 0.750836
vt 0.503191 0.545593
vt 0.422848 0.610529
vt 0.425745 0.544203
vt 0.485344 0.915412
vt 0.386184 0.992519
vt 0.619978 0.428644
vt 0.585573 0.500651
vt 0.583501 0.428661
vt 0.437260 0.280605
vt 0.509085 0.346926
vt 0.433933 0.356769
vt 0.499454 0.457604
vt 0.475333 0.445000
vt 0.433393 0.543164
vt 0.433393 0.431496
vt 0.428113 0.533506
vt 0.348407 0.439229
vt 0.432033 0.443069
vt 0.652578 0.375813
vt 0.603873 0.268770
vt 0.656442 0.259323
vt 0.656442 0.529735
vt 0.598115 0.465486
vt 0.653204 0.464294
vt 0.656455 0.428627
vt 0.620511 0.500635
vt 0.646051 0.576098
vt 0.620416 0.576682
vt 0.595780 0.595484
vt 0.638227 0.533621
vt 0.649161 0.595484
vt 0.363370 0.261891
vt 0.296412 0.312890
vt 0.282896 0.267774
vt 0.508886 0.290548
vt 0.567483 0.342295
vt 0.672598 0.634823
vt 0.638180 0.576682
vt 0.671204 0.577226
vt 0.589523 0.575757
vt 0.601279 0.373161
vt 0.337302 0.592784
vt 0.425212 0.600421
vt 0.429671 0.454329
vt 0.728266 0.673175
vt 0.768150 0.672266
vt 0.294791 0.766499
vt 0.709257 0.480020
vt 0.656454 0.542182
vt 0.659186 0.478041
vt 0.348473 0.538835
vt 0.340063 0.603283
vt 0.294068 0.907120
vt 0.585507 0.356668
vt 0.620445 0.356652
vt 0.359925 0.340411
vt 0.359869 0.451506
vt 0.668121 0.292923
vt 0.707685 0.391961
vt 0.662886 0.391127
vt 0.515678 0.446481
vt 0.514402 0.534954
vt 0.709011 0.268770
vt 0.660306 0.375813
vt 0.714769 0.465486
vt 0.656442 0.529735
vt 0.659680 0.464294
vt 0.656388 0.356635
vt 0.645916 0.281166
vt 0.606715 0.595484
vt 0.649161 0.657347
vt 0.595780 0.657347
vt 0.516118 0.268513
vt 0.578411 0.325115
vt 0.516277 0.330038
vt 0.302153 0.330705
vt 0.365039 0.284264
vt 0.289583 0.668670
vt 0.324001 0.610529
vt 0.333820 0.668670
vt 0.589388 0.281559
vt 0.513453 0.600421
vt 0.407297 0.843663
vt 0.453594 0.749723
vt 0.453594 0.846616
vt 0.429385 0.881473
vt 0.206429 0.789938
vt 0.249577 0.765482
vt 0.249577 0.789938
vt 0.206429 0.814395
vt 0.249577 0.814395
vt 0.613760 0.702963
vt 0.638227 0.707666
vt 0.612884 0.707937
vt 0.314703 0.846615
vt 0.338911 0.881473
vt 0.314703 0.896137
vt 0.314703 0.749723
vt 0.361000 0.843663
vt 0.662493 0.702441
vt 0.679039 0.691823
vt 0.663570 0.707394
vt 0.706839 0.948074
vt 0.684898 0.965500
vt 0.679340 0.948074
vt 0.660005 0.525085
vt 0.679039 0.540727
vt 0.677367 0.542195
vt 0.706839 0.904156
vt 0.684898 0.886730
vt 0.712520 0.886730
vt 0.598887 0.543036
vt 0.597415 0.592707
vt 0.597415 0.541602
vt 0.638127 0.702702
vt 0.410050 0.731902
vt 0.407297 0.746770
vt 0.358246 0.731902
vt 0.361000 0.746770
vt 0.976183 0.781134
vt 0.958899 0.798300
vt 0.950167 0.788585
vt 0.924150 0.796036
vt 0.726175 0.956787
vt 0.712520 0.965500
vt 0.745512 0.965500
vt 0.505606 0.739173
vt 0.511569 0.760590
vt 0.505606 0.763540
vt 0.505606 0.714805
vt 0.509122 0.717463
vt 0.520790 0.778323
vt 0.520790 0.699838
vt 0.528611 0.739178
vt 0.505606 0.450821
vt 0.521873 0.350070
vt 0.521716 0.450845
vt 0.924860 0.945448
vt 0.940955 0.920012
vt 0.940955 0.945448
vt 0.505687 0.520579
vt 0.521716 0.469048
vt 0.521796 0.520554
vt 0.505844 0.298539
vt 0.521954 0.298563
vt 0.924860 0.920012
vt 0.940955 0.894576
vt 0.505606 0.280336
vt 0.521954 0.450845
vt 0.505606 0.469072
vt 0.505844 0.450869
vt 0.616248 0.525554
vt 0.660982 0.522932
vt 0.924151 0.960975
vt 0.940245 0.879049
vt 0.924860 0.894576
vt 0.924151 0.879049
vt 0.505844 0.621354
vt 0.249577 0.765482
vt 0.264848 0.811160
vt 0.249577 0.811160
vt 0.679039 0.591832
vt 0.677367 0.591331
vt 0.615472 0.523419
vt 0.679340 0.904156
vt 0.677367 0.687469
vt 0.597415 0.692697
vt 0.598887 0.688310
vt 0.598887 0.592172
vt 0.361000 0.843663
vt 0.407297 0.749723
vt 0.407297 0.846615
vt 0.834498 0.865099
vt 0.834498 0.908980
vt 0.834498 0.949018
vt 0.905879 0.943629
vt 0.950204 0.865099
vt 0.905879 0.865099
vt 0.861555 0.943629
vt 0.861555 0.865099
vt 0.905879 0.862979
vt 0.859779 0.862979
vt 0.977261 0.865099
vt 0.977261 0.908980
vt 0.977261 0.949018
vt 0.980121 0.862979
vt 0.951980 0.862979
vt 0.945678 0.865099
vt 0.980121 0.862979
vt 0.680512 0.543036
vt 0.679039 0.592707
vt 0.679039 0.541602
vt 0.834498 0.949018
vt 0.950204 0.943629
vt 0.977261 0.949018
vt 0.945185 0.949018
vt 0.866784 0.949018
vt 0.505606 0.636320
vt 0.520790 0.621354
vt 0.509122 0.638978
vt 0.905442 0.943629
vt 0.980121 0.833779
vt 0.905879 0.833779
vt 0.859779 0.833779
vt 0.983733 0.069734
vt 0.999762 0.018203
vt 0.999843 0.069709
vt 0.951980 0.833779
vt 0.947273 0.862979
vt 0.864486 0.862979
vt 0.831638 0.833779
vt 0.864486 0.833779
vt 0.831638 0.862979
vt 0.983890 0.170509
vt 0.980121 0.862979
vt 0.866080 0.865099
vt 0.831638 0.862979
vt 0.680512 0.688310
vt 0.680512 0.592172
vt 0.720303 0.707937
vt 0.761266 0.774897
vt 0.720303 0.886730
vt 0.866080 0.908747
vt 0.945678 0.908747
vt 0.961470 0.928882
vt 0.850289 0.928882
vt 0.762937 0.886730
vt 0.762937 0.919722
vt 0.754224 0.906066
vt 0.924150 0.717551
vt 0.950167 0.727463
vt 0.976183 0.737374
vt 0.947273 0.833779
vt 0.146603 0.044456
vt 0.173542 0.032088
vt 0.192785 0.043683
vt 0.190115 0.144197
vt 0.216575 0.514302
vt 0.074540 0.043544
vt 0.029806 -0.000000
vt 0.027941 0.045210
vt 0.006175 0.889674
vt 0.016685 0.937428
vt 0.597415 0.875430
vt 0.170941 0.817506
vt 0.085803 0.903318
vt 0.597415 0.886730
vt 0.511607 0.961242
vt 0.170941 0.818418
vt 0.207123 0.940462
vt 0.904236 0.717551
vt 0.936665 0.356884
vt 0.936665 0.598949
vt 0.943336 0.717551
vt 0.963767 0.117504
vt 0.976193 0.717551
vt 0.223797 0.903319
vt 0.877726 0.108476
vt 0.935785 -0.000000
vt 0.725053 0.811363
vt 0.505949 0.610529
vt 0.478723 0.989417
vt 0.478253 0.543205
vt 0.342022 0.527482
vt 0.595780 0.533621
vt 0.656455 0.500619
vt 0.598372 0.534324
vt 0.357887 0.323172
vt 0.583501 0.303449
vt 0.628361 0.634823
vt 0.710417 0.545007
vt 0.294260 0.981420
vt 0.710417 0.280605
vt 0.711605 0.373161
vt 0.717104 0.533621
vt 0.620280 0.280605
vt 0.646570 0.596187
vt 0.595780 0.281338
vt 0.289583 0.290610
vt 0.290977 0.611073
vt 0.453594 0.896137
vt 0.206429 0.765482
vt 0.453374 0.734854
vt 0.314922 0.734854
vt 0.505764 0.350046
vt 0.521716 0.280361
vt 0.940245 0.960975
vt 0.521954 0.621330
vt 0.264848 0.765482
vt 0.983653 0.018227
vt 1.000000 0.170484
vt 0.679039 0.692697
vt 0.694867 0.886730
vt 0.679340 0.871800
vt 0.679340 0.774897
vt 0.679340 0.725370
vt 0.697464 0.707937
vt 0.761266 0.871800
vt 0.745740 0.886730
vt 0.743142 0.707937
vt 0.761266 0.725370
s 0
#usemtl Full
f 20/1/1 3/2/1 5/3/1
f 4/4/2 1/5/2 3/6/2
f 2/7/3 6/8/3 1/9/3
f 3/2/4 10/10/4 5/3/4
f 1/9/5 11/11/5 8/12/5
f 6/13/6 10/14/6 11/15/6
f 1/5/7 9/16/7 3/6/7
f 9/17/8 13/18/8 10/10/8
f 8/12/9 15/19/9 12/20/9
f 10/14/10 15/21/10 11/15/10
f 9/16/11 12/22/11 14/23/11
f 18/24/1 20/25/1 5/26/1
f 16/27/12 19/28/12 18/29/12
f 6/30/3 17/31/3 16/32/3
f 14/23/13 7/33/13 210/34/13
f 213/35/14 30/36/14 32/37/14
f 24/38/15 31/39/15 30/40/15
f 211/41/16 13/42/16 212/43/16
f 213/44/17 29/45/17 22/46/17
f 12/20/17 211/47/17 7/48/17
f 22/49/18 31/50/18 23/51/18
f 212/52/15 14/53/15 210/54/15
f 27/55/4 18/24/4 5/26/4
f 16/32/5 28/56/5 6/30/5
f 6/57/19 27/58/19 5/59/19
f 26/60/20 16/27/20 18/29/20
f 30/40/8 26/61/8 27/55/8
f 25/62/9 32/63/9 28/56/9
f 32/37/14 27/58/14 28/64/14
f 26/60/21 29/65/21 25/66/21
f 55/85/24 44/86/24 43/87/24
f 43/88/25 42/89/25 41/90/25
f 55/91/26 41/92/26 54/93/26
f 46/94/27 52/95/27 49/96/27
f 50/97/28 48/98/28 47/99/28
f 60/100/29 52/101/29 50/97/29
f 49/96/30 58/102/30 59/103/30
f 45/104/31 50/105/31 47/106/31
f 46/107/32 51/108/32 45/109/32
f 44/110/33 56/111/33 42/112/33
f 41/113/34 56/114/34 54/115/34
f 55/91/35 60/116/35 57/117/35
f 57/118/32 53/119/32 55/85/32
f 49/120/36 57/118/36 51/108/36
f 51/121/37 60/116/37 50/105/37
f 53/122/38 58/102/38 56/111/38
f 56/114/39 60/100/39 54/115/39
f 71/123/40 64/124/40 69/125/40
f 63/126/12 62/127/12 64/128/12
f 71/129/41 61/130/41 63/131/41
f 68/132/42 46/94/42 65/133/42
f 66/134/43 48/98/43 68/135/43
f 76/136/44 68/135/44 74/137/44
f 74/138/30 65/133/30 75/139/30
f 45/104/45 66/140/45 67/141/45
f 67/142/32 46/107/32 45/109/32
f 64/143/46 72/144/46 69/145/46
f 61/146/47 72/147/47 62/148/47
f 76/149/35 71/129/35 73/150/35
f 73/151/48 69/125/48 75/152/48
f 73/151/36 65/153/36 67/142/36
f 67/141/35 76/149/35 73/150/35
f 69/145/49 74/138/49 75/139/49
f 76/136/50 72/147/50 70/154/50
f 86/155/51 80/156/51 88/157/51
f 214/158/52 98/159/52 101/160/52
f 98/161/53 217/162/53 100/163/53
f 79/164/54 83/165/54 80/156/54
f 92/166/55 84/167/55 85/168/55
f 85/169/56 77/170/56 81/171/56
f 87/172/57 81/171/57 77/170/57
f 90/173/58 87/174/58 77/175/58
f 99/176/59 86/177/59 88/178/59
f 86/179/60 90/180/60 79/181/60
f 78/182/61 101/183/61 97/184/61
f 83/185/62 93/186/62 92/166/62
f 93/186/63 218/187/63 219/188/63
f 90/189/64 94/190/64 79/191/64
f 82/192/65 94/193/65 218/194/65
f 84/195/66 220/196/66 77/170/66
f 90/197/67 220/198/67 96/199/67
f 93/186/68 95/200/68 84/167/68
f 86/179/69 101/183/69 91/201/69
f 78/202/70 99/176/70 216/203/70
f 87/172/71 100/163/71 89/204/71
f 101/160/72 87/205/72 91/206/72
f 80/156/73 107/207/73 88/157/73
f 116/208/74 109/209/74 117/210/74
f 116/211/75 217/162/75 103/212/75
f 83/165/76 104/213/76 80/156/76
f 92/166/77 106/214/77 112/215/77
f 102/216/78 85/169/78 81/171/78
f 81/171/79 108/217/79 102/216/79
f 110/218/80 108/219/80 111/220/80
f 99/176/81 107/221/81 115/222/81
f 110/223/82 107/224/82 104/181/82
f 117/225/83 221/226/83 115/227/83
f 83/185/84 112/215/84 105/228/84
f 112/215/85 113/229/85 105/228/85
f 223/230/86 110/231/86 104/232/86
f 105/233/87 223/234/87 104/235/87
f 225/236/88 106/237/88 102/216/88
f 110/238/89 225/239/89 102/240/89
f 224/241/90 112/215/90 106/214/90
f 107/224/91 117/225/91 115/227/91
f 99/176/92 221/242/92 216/203/92
f 108/217/93 100/163/93 116/211/93
f 108/219/94 117/210/94 111/220/94
f 118/243/12 132/244/12 120/245/12
f 120/245/12 122/246/12 118/243/12
f 137/247/95 134/248/95 136/249/95
f 130/250/95 136/249/95 133/251/95
f 133/252/96 164/253/96 158/254/96
f 121/255/2 125/256/2 128/257/2
f 135/258/2 119/259/2 121/255/2
f 134/260/97 162/261/97 161/262/97
f 123/263/98 126/264/98 127/265/98
f 129/266/99 150/267/99 128/268/99
f 124/269/100 128/270/100 125/271/100
f 126/272/101 147/273/101 148/274/101
f 134/260/96 164/253/96 136/275/96
f 130/276/102 132/244/102 228/277/102
f 135/258/103 131/278/103 227/279/103
f 124/280/104 125/281/104 139/282/104
f 119/283/104 139/282/104 125/281/104
f 123/263/105 138/284/105 122/285/105
f 118/286/105 122/285/105 138/284/105
f 137/287/106 140/288/106 131/289/106
f 137/287/107 130/290/107 141/291/107
f 227/292/108 131/289/108 140/288/108
f 130/290/109 228/293/109 141/291/109
f 232/294/110 140/288/110 137/287/110
f 141/291/111 232/294/111 137/287/111
f 162/295/2 143/296/2 163/297/2
f 158/298/1 145/299/1 159/300/1
f 146/301/12 148/302/12 147/303/12
f 143/296/2 150/304/2 153/305/2
f 164/306/1 144/307/1 145/299/1
f 151/308/112 153/305/112 150/304/112
f 149/309/113 154/310/113 155/311/113
f 127/312/114 151/313/114 129/266/114
f 159/300/115 157/314/115 158/298/115
f 163/315/116 161/316/116 162/317/116
f 147/303/12 160/318/12 146/301/12
f 149/319/3 152/320/3 151/321/3
f 128/268/117 142/322/117 121/323/117
f 127/312/118 148/274/118 149/324/118
f 123/263/119 129/325/119 124/269/119
f 135/326/117 142/322/117 162/261/117
f 133/252/120 157/327/120 132/328/120
f 132/328/101 147/273/101 120/329/101
f 229/330/12 173/331/12 165/332/12
f 165/333/12 205/334/12 229/335/12
f 179/336/95 175/337/95 178/338/95
f 170/339/95 178/338/95 174/340/95
f 174/340/96 204/341/96 198/342/96
f 166/343/2 167/344/2 206/343/2
f 176/343/2 233/345/2 166/343/2
f 175/337/97 202/346/97 201/347/97
f 207/348/99 190/349/99 206/343/99
f 168/350/101 187/351/101 188/352/101
f 175/337/96 204/341/96 178/338/96
f 170/339/102 173/333/102 171/353/102
f 176/343/103 172/354/103 234/355/103
f 179/336/106 181/356/106 172/354/106
f 179/336/107 170/339/107 180/357/107
f 234/355/108 172/354/108 181/356/108
f 170/358/109 171/359/109 180/360/109
f 236/361/110 181/356/110 179/336/110
f 180/357/111 236/361/111 179/336/111
f 202/346/2 183/362/2 203/362/2
f 198/342/1 185/363/1 199/364/1
f 186/365/12 188/366/12 187/367/12
f 183/362/2 190/349/2 193/362/2
f 204/341/1 184/368/1 185/363/1
f 191/369/112 193/362/112 190/349/112
f 189/370/113 194/371/113 195/372/113
f 199/364/115 197/373/115 198/342/115
f 203/362/116 201/347/116 202/346/116
f 187/367/12 200/374/12 186/365/12
f 206/343/117 182/375/117 166/343/117
f 169/376/118 188/377/118 189/370/118
f 169/376/114 191/369/114 207/348/114
f 176/343/117 182/375/117 202/346/117
f 174/340/120 197/373/120 173/333/120
f 173/378/101 187/351/101 165/379/101
f 156/380/22 146/381/22 145/382/22
f 230/383/98 168/333/98 169/376/98
f 231/384/100 206/343/100 167/344/100
f 231/384/104 167/344/104 209/385/104
f 233/345/104 209/385/104 167/344/104
f 230/383/105 208/386/105 205/334/105
f 229/387/105 205/388/105 208/389/105
f 233/345/121 208/386/121 209/385/121
f 209/385/121 230/383/121 231/384/121
f 139/282/121 118/390/121 138/391/121
f 124/280/121 138/391/121 123/392/121
f 231/384/119 169/376/119 207/348/119
f 196/363/22 186/371/22 185/363/22
f 189/370/3 192/393/3 191/369/3
f 20/1/1 4/394/1 3/2/1
f 4/4/2 2/395/2 1/5/2
f 2/7/3 21/396/3 6/8/3
f 3/2/4 9/17/4 10/10/4
f 1/9/5 6/8/5 11/11/5
f 6/13/6 5/397/6 10/14/6
f 1/5/7 8/398/7 9/16/7
f 9/17/8 14/53/8 13/18/8
f 8/12/9 11/11/9 15/19/9
f 10/14/10 13/42/10 15/21/10
f 9/16/11 8/398/11 12/22/11
f 18/24/1 19/399/1 20/25/1
f 16/27/12 17/400/12 19/28/12
f 6/30/3 21/401/3 17/31/3
f 14/23/122 12/22/122 7/33/122
f 213/35/123 24/402/123 30/36/123
f 24/38/15 23/403/15 31/39/15
f 211/41/10 15/21/10 13/42/10
f 213/44/17 32/63/17 29/45/17
f 12/20/17 15/19/17 211/47/17
f 22/49/124 29/65/124 31/50/124
f 212/52/15 13/18/15 14/53/15
f 27/55/4 26/61/4 18/24/4
f 16/32/5 25/62/5 28/56/5
f 6/57/19 28/64/19 27/58/19
f 26/60/20 25/66/20 16/27/20
f 30/40/8 31/39/8 26/61/8
f 25/62/9 29/45/9 32/63/9
f 32/37/14 30/36/14 27/58/14
f 26/60/21 31/50/21 29/65/21
f 55/85/125 53/119/125 44/86/125
f 43/88/2 44/410/2 42/89/2
f 55/91/126 43/411/126 41/92/126
f 46/94/38 48/412/38 52/95/38
f 50/97/43 52/101/43 48/98/43
f 60/100/44 58/413/44 52/101/44
f 49/96/30 52/95/30 58/102/30
f 45/104/45 51/121/45 50/105/45
f 46/107/127 49/120/127 51/108/127
f 44/110/128 53/122/128 56/111/128
f 41/113/129 42/414/129 56/114/129
f 55/91/130 54/93/130 60/116/130
f 57/118/131 59/415/131 53/119/131
f 49/120/36 59/415/36 57/118/36
f 51/121/35 57/117/35 60/116/35
f 53/122/132 59/103/132 58/102/132
f 56/114/44 58/413/44 60/100/44
f 71/123/133 63/416/133 64/124/133
f 63/126/134 61/417/134 62/127/134
f 71/129/135 70/418/135 61/130/135
f 68/132/38 48/412/38 46/94/38
f 66/134/136 47/99/136 48/98/136
f 76/136/137 66/134/137 68/135/137
f 74/138/30 68/132/30 65/133/30
f 45/104/138 47/106/138 66/140/138
f 67/142/139 65/153/139 46/107/139
f 64/143/140 62/419/140 72/144/140
f 61/146/141 70/154/141 72/147/141
f 76/149/142 70/418/142 71/129/142
f 73/151/32 71/123/32 69/125/32
f 73/151/36 75/152/36 65/153/36
f 67/141/143 66/140/143 76/149/143
f 69/145/38 72/144/38 74/138/38
f 76/136/44 74/137/44 72/147/44
f 86/155/144 79/164/144 80/156/144
f 214/158/145 215/420/145 98/159/145
f 98/161/146 215/421/146 217/162/146
f 79/164/147 82/422/147 83/165/147
f 92/166/148 93/186/148 84/167/148
f 85/169/149 84/195/149 77/170/149
f 87/172/150 89/204/150 81/171/150
f 90/173/151 91/423/151 87/174/151
f 99/176/152 97/424/152 86/177/152
f 86/179/153 91/201/153 90/180/153
f 78/182/154 214/425/154 101/183/154
f 83/185/155 82/426/155 93/186/155
f 93/186/156 82/426/156 218/187/156
f 90/189/157 96/427/157 94/190/157
f 82/192/158 79/428/158 94/193/158
f 84/195/159 95/429/159 220/196/159
f 90/197/160 77/430/160 220/198/160
f 93/186/161 219/188/161 95/200/161
f 86/179/162 97/184/162 101/183/162
f 78/202/163 97/424/163 99/176/163
f 87/172/164 98/161/164 100/163/164
f 101/160/165 98/159/165 87/205/165
f 80/156/166 104/213/166 107/207/166
f 116/208/167 103/431/167 109/209/167
f 116/211/168 100/163/168 217/162/168
f 83/165/169 105/432/169 104/213/169
f 92/166/170 85/168/170 106/214/170
f 102/216/171 106/237/171 85/169/171
f 81/171/172 89/204/172 108/217/172
f 110/218/173 102/433/173 108/219/173
f 99/176/174 88/178/174 107/221/174
f 110/223/175 111/434/175 107/224/175
f 117/225/176 109/435/176 221/226/176
f 83/185/177 92/166/177 112/215/177
f 112/215/178 114/436/178 113/229/178
f 223/230/179 222/437/179 110/231/179
f 105/233/180 113/438/180 223/234/180
f 225/236/181 224/439/181 106/237/181
f 110/238/182 222/440/182 225/239/182
f 224/241/183 114/436/183 112/215/183
f 107/224/184 111/434/184 117/225/184
f 99/176/185 115/222/185 221/242/185
f 108/217/186 89/204/186 100/163/186
f 108/219/187 116/208/187 117/210/187
f 118/243/12 228/277/12 132/244/12
f 120/245/12 126/441/12 122/246/12
f 137/247/95 131/442/95 134/248/95
f 130/250/95 137/247/95 136/249/95
f 133/252/96 136/275/96 164/253/96
f 121/255/2 119/259/2 125/256/2
f 135/258/2 227/279/2 119/259/2
f 134/260/97 135/326/97 162/261/97
f 123/263/188 122/285/188 126/264/188
f 129/266/99 151/313/99 150/267/99
f 124/269/189 129/325/189 128/270/189
f 126/272/101 120/329/101 147/273/101
f 134/260/96 161/262/96 164/253/96
f 130/276/190 133/443/190 132/244/190
f 135/258/191 134/444/191 131/278/191
f 232/294/192 227/292/192 140/288/192
f 141/291/193 228/293/193 232/294/193
f 162/295/2 142/445/2 143/296/2
f 158/298/1 164/306/1 145/299/1
f 146/301/12 154/310/12 148/302/12
f 143/296/2 142/445/2 150/304/2
f 164/306/1 161/316/1 144/307/1
f 151/308/112 152/446/112 153/305/112
f 149/309/113 148/302/113 154/310/113
f 127/312/114 149/324/114 151/313/114
f 159/300/115 160/447/115 157/314/115
f 163/315/116 144/307/116 161/316/116
f 147/303/12 157/448/12 160/318/12
f 149/319/3 155/449/3 152/320/3
f 128/268/117 150/267/117 142/322/117
f 127/312/118 126/272/118 148/274/118
f 123/263/119 127/265/119 129/325/119
f 135/326/117 121/323/117 142/322/117
f 133/252/120 158/254/120 157/327/120
f 132/328/101 157/327/101 147/273/101
f 229/330/12 171/279/12 173/331/12
f 165/333/12 168/333/12 205/334/12
f 179/336/95 172/354/95 175/337/95
f 170/339/95 179/336/95 178/338/95
f 174/340/96 178/338/96 204/341/96
f 166/343/2 233/345/2 167/344/2
f 176/343/2 234/355/2 233/345/2
f 175/337/97 176/343/97 202/346/97
f 207/348/99 191/369/99 190/349/99
f 168/350/101 165/379/101 187/351/101
f 175/337/96 201/347/96 204/341/96
f 170/339/190 174/340/190 173/333/190
f 176/343/191 175/337/191 172/354/191
f 236/361/192 234/355/192 181/356/192
f 180/357/193 171/353/193 236/361/193
f 202/346/2 182/375/2 183/362/2
f 198/342/1 204/341/1 185/363/1
f 186/365/12 194/450/12 188/366/12
f 183/362/2 182/375/2 190/349/2
f 204/341/1 201/347/1 184/368/1
f 191/369/112 192/393/112 193/362/112
f 189/370/113 188/377/113 194/371/113
f 199/364/115 200/371/115 197/373/115
f 203/362/116 184/368/116 201/347/116
f 187/367/12 197/451/12 200/374/12
f 206/343/117 190/349/117 182/375/117
f 169/376/118 168/333/118 188/377/118
f 169/376/114 189/370/114 191/369/114
f 176/343/117 166/343/117 182/375/117
f 174/340/120 198/342/120 197/373/120
f 173/378/101 197/452/101 187/351/101
f 145/382/22 144/453/22 163/454/22
f 143/455/22 153/456/22 152/457/22
f 145/382/22 163/454/22 143/455/22
f 160/458/22 159/459/22 145/382/22
f 155/460/22 154/461/22 146/381/22
f 146/381/22 160/458/22 145/382/22
f 145/382/22 143/455/22 152/457/22
f 156/380/22 155/460/22 146/381/22
f 145/382/22 152/457/22 156/380/22
f 230/383/188 205/334/188 168/333/188
f 231/384/189 207/348/189 206/343/189
f 233/345/121 229/335/121 208/386/121
f 209/385/121 208/386/121 230/383/121
f 139/282/121 119/283/121 118/390/121
f 124/280/121 139/282/121 138/391/121
f 231/384/119 230/383/119 169/376/119
f 185/363/22 184/368/22 203/362/22
f 183/362/22 193/362/22 192/393/22
f 185/363/22 203/362/22 183/362/22
f 200/371/22 199/364/22 185/363/22
f 195/372/22 194/371/22 186/371/22
f 186/371/22 200/371/22 185/363/22
f 185/363/22 183/362/22 192/393/22
f 196/363/22 195/372/22 186/371/22
f 185/363/22 192/393/22 196/363/22
f 189/370/3 195/372/3 192/393/3
#usemtl 
f 34/67/12 35/68/12 33/69/12
f 36/70/1 39/71/1 35/72/1
f 40/73/2 37/74/2 39/75/2
f 38/76/3 33/77/3 37/78/3
f 39/79/22 33/80/22 35/81/22
f 36/82/23 38/83/23 40/84/23
f 34/67/12 36/404/12 35/68/12
f 36/70/1 40/405/1 39/71/1
f 40/73/2 38/406/2 37/74/2
f 38/76/3 34/407/3 33/77/3
f 39/79/22 37/408/22 33/80/22
f 36/82/23 34/409/23 38/83/23