# Blender 4.4.3
# www.blender.org
mtllib rat.mtl
o rat
v 0.197982 0.517353 0.124256
v 0.215773 2.087757 0.177597
v 0.204940 1.965964 -0.255510
v 0.188112 0.663818 -0.241355
v 0.232527 0.424063 0.422438
v 0.253684 2.139856 0.771638
v 0.135994 0.141055 1.150675
v 0.209203 1.935634 1.203238
v 0.350566 0.194035 1.737323
v 0.335994 1.503724 1.669882
v 0.433772 0.340552 1.913484
v 0.513075 0.919400 2.036156
v 0.207047 1.983116 -0.553339
v 0.190031 0.757050 -0.539184
v 0.196517 2.115592 -0.802999
v 0.180435 0.883865 -0.819986
v 0.156498 2.236158 -1.028324
v 0.143970 1.037644 -1.030018
v 0.118587 2.227661 -1.268365
v 0.106863 1.457890 -1.306298
v 0.127574 2.161894 -1.521994
v 0.114396 1.462203 -1.545949
v 0.128674 2.086906 -1.839029
v 0.115318 1.487299 -1.834486
v 0.105576 1.969738 -2.042837
v 0.095954 1.559072 -1.982043
v 0.093477 1.934234 -2.169652
v 0.085810 1.586213 -2.156836
v 0.062842 1.894740 -2.277678
v 0.059070 1.727934 -2.256843
v 0.529749 1.755813 -0.539184
v 0.501487 1.803355 -0.817155
v 0.394093 1.805469 -1.026299
v 0.292350 1.884030 -1.266340
v 0.296356 2.019267 -1.519838
v 0.201667 1.948147 -1.841185
v 0.163687 1.883525 -2.049306
v 0.143793 1.859606 -2.175042
v 0.070672 1.869743 -2.272719
v 0.627074 0.798207 1.972338
v 0.624117 1.150188 1.441709
v 0.604948 1.556346 1.130711
v 0.654909 1.804204 0.746158
v 0.553166 1.630439 0.367692
v 0.524096 1.708154 -0.275328
v 0.529749 1.260210 -0.539184
v 0.501487 1.387024 -0.819987
v 0.394093 1.497266 -1.045067
v 0.292350 1.714110 -1.285108
v 0.316467 1.712127 -1.516413
v 0.256952 1.691360 -1.844610
v 0.184445 1.710204 -2.059581
v 0.161767 1.727345 -2.183603
v 0.070672 1.817414 -2.264842
v 0.625289 0.619203 1.970321
v 0.553166 1.152463 0.157941
v 0.524096 1.150600 -0.275328
v 0.207174 2.213420 -1.056151
v 0.338426 1.903103 -1.071449
v 0.275807 1.930929 -1.217620
v 0.195403 2.211453 -1.239607
v 0.321159 2.284131 -0.991858
v 0.353038 2.131816 -0.974845
v 0.339387 2.139927 -1.249206
v 0.316072 2.283253 -1.266218
v 0.383281 2.357270 -1.034348
v 0.422050 2.320826 -1.038242
v 0.405448 2.330689 -1.182749
v 0.377094 2.356204 -1.178856
v 0.529749 0.603430 -0.635727
v 0.190031 0.549919 -0.651960
v 0.180435 0.612301 -0.809042
v 0.501487 0.665812 -0.792808
v 0.356325 0.683720 -0.928456
v 0.263490 0.669612 -0.939275
v 0.404577 0.537895 -0.490224
v 0.279874 0.518638 -0.496066
v 0.445756 0.150609 -0.946400
v 0.269410 0.122832 -0.954827
v 0.264428 0.155214 -1.036367
v 0.431085 0.182991 -1.027941
v 0.355732 0.192286 -1.098354
v 0.307542 0.184963 -1.103970
v 0.380780 0.116589 -0.870870
v 0.316047 0.106593 -0.873903
v 0.497818 0.069547 -1.112976
v 0.176877 0.069546 -1.127580
v 0.167812 0.069546 -1.171942
v 0.471119 0.069547 -1.165148
v 0.333980 0.069547 -1.221924
v 0.246277 0.069547 -1.226452
v 0.379565 0.069546 -0.982079
v 0.261754 0.069546 -0.987334
v 0.497818 0.021656 -1.112976
v 0.176878 0.021656 -1.127580
v 0.167812 0.021656 -1.171942
v 0.471119 0.021657 -1.165148
v 0.333980 0.021657 -1.221924
v 0.246277 0.021657 -1.226452
v 0.379565 0.021656 -0.982079
v 0.261754 0.021656 -0.987334
v 0.715648 0.586480 1.473690
v 0.691905 1.138420 1.461997
v 0.713180 0.823177 1.136382
v 0.736154 1.526251 1.174410
v 0.849418 1.050366 0.816909
v 0.858841 1.744502 0.801426
v 0.861720 1.061251 0.240291
v 0.822686 1.549273 0.421309
v 0.376697 0.268919 1.631373
v 0.284996 0.102970 1.169249
v 0.454809 0.358675 0.481774
v 0.472582 0.434611 0.178313
v 0.243070 0.192464 0.323523
v 0.266271 0.178258 0.429945
v 0.427494 0.170086 0.356515
v 0.415557 0.135105 0.483079
v 0.243070 0.057688 0.344060
v 0.266271 0.071172 0.433619
v 0.427494 0.057687 0.380366
v 0.415557 0.070858 0.473469
v 0.243070 0.126365 0.246034
v 0.427494 0.106064 0.282340
v 0.427494 0.057444 0.282340
v 0.243070 0.057444 0.246034
v 1.351704 0.109340 2.153004
v 1.385896 0.252242 2.194819
v 2.366816 0.106575 1.463920
v 2.392231 0.156504 1.467055
v 2.650675 -0.102346 0.347113
v 2.661253 -0.081722 0.348418
v 0.015384 0.443612 0.289572
v -0.024370 0.339891 0.736371
v -0.074946 0.077514 1.206808
v 0.121346 0.017622 1.722118
v 1.404505 0.070576 2.218455
v 2.405916 0.046335 1.468746
v 2.661253 -0.130860 0.348418
v 2.405916 0.148265 1.468745
v 1.404363 0.253678 2.217737
v 0.434087 0.417819 2.069325
v 0.472916 0.600450 2.105186
v 0.474701 0.798207 2.107203
v 0.456297 0.970134 2.086410
v 0.145896 1.554807 1.774240
v -0.030820 1.988096 1.235840
v 0.015384 2.190590 0.771638
v 0.015384 2.138491 0.177597
v 0.015384 2.016697 -0.255510
v 0.015384 2.033850 -0.553339
v 0.015384 2.166326 -0.802999
v 0.015384 2.267761 -1.028324
v 0.015384 2.259264 -1.268365
v 0.015384 2.212628 -1.521994
v 0.015384 2.109808 -1.839029
v 0.015384 1.992640 -2.042837
v 0.015384 1.942871 -2.169651
v 0.015384 1.902688 -2.277678
v 0.015384 1.869743 -2.296117
v 0.015384 1.817414 -2.288238
v 0.015384 1.701652 -2.256843
v 0.015384 1.559930 -2.156836
v 0.015384 1.522794 -1.982043
v 0.015384 1.424663 -1.834486
v 0.015384 1.399566 -1.545949
v 0.015384 1.395254 -1.306298
v 0.015384 0.969565 -1.030018
v 0.015384 0.815785 -0.819987
v 0.015384 0.688971 -0.539184
v 0.015384 0.595739 -0.241355
v 0.438440 0.255006 0.347646
v 0.232123 0.292039 0.318224
v 0.258079 0.258632 0.440888
v 0.425086 0.210082 0.482057
v -0.167213 0.517353 0.124256
v -0.185003 2.087757 0.177597
v -0.174171 1.965964 -0.255510
v -0.157343 0.663818 -0.241355
v -0.201758 0.424063 0.422438
v -0.222914 2.139856 0.771638
v -0.292575 0.141055 1.267309
v -0.273906 1.935634 1.268002
v 0.052163 0.138206 1.893733
v -0.043380 1.503724 1.879165
v 0.291927 0.331292 2.054540
v 0.399521 0.919400 2.136663
v -0.176278 1.983116 -0.553339
v -0.159262 0.757050 -0.539184
v -0.165747 2.115592 -0.802999
v -0.149666 0.883865 -0.819986
v -0.125729 2.236158 -1.028324
v -0.113201 1.037644 -1.030018
v -0.087818 2.227661 -1.268365
v -0.076093 1.457890 -1.306298
v -0.096805 2.161894 -1.521994
v -0.083627 1.462203 -1.545949
v -0.097904 2.086906 -1.839029
v -0.084549 1.487299 -1.834486
v -0.074807 1.969738 -2.042837
v -0.065185 1.559072 -1.982043
v -0.062708 1.934234 -2.169652
v -0.055042 1.586213 -2.156836
v -0.032074 1.894740 -2.277678
v -0.028300 1.727934 -2.256843
v -0.498980 1.755813 -0.539184
v -0.470718 1.803355 -0.817155
v -0.363324 1.805469 -1.026299
v -0.261581 1.884030 -1.266340
v -0.265587 2.019267 -1.519838
v -0.170897 1.948147 -1.841185
v -0.132918 1.883525 -2.049306
v -0.113023 1.859606 -2.175042
v -0.039904 1.869743 -2.272719
v 0.322329 0.798207 2.242068
v -0.401297 1.150188 1.989944
v -0.686404 1.556346 1.339471
v -0.624139 1.804204 0.746158
v -0.522397 1.630439 0.367692
v -0.493328 1.708154 -0.275328
v -0.498980 1.260210 -0.539184
v -0.470718 1.387024 -0.819987
v -0.363324 1.497266 -1.045067
v -0.261581 1.714110 -1.285108
v -0.285698 1.712127 -1.516413
v -0.226183 1.691360 -1.844610
v -0.153677 1.710204 -2.059581
v -0.130998 1.727345 -2.183603
v -0.039904 1.817414 -2.264842
v 0.320543 0.590903 2.240051
v -0.522397 1.152463 0.157941
v -0.493328 1.150600 -0.275328
v -0.176404 2.213420 -1.056151
v -0.307657 1.903103 -1.071449
v -0.245038 1.930929 -1.217620
v -0.164633 2.211453 -1.239607
v -0.290390 2.284131 -0.991858
v -0.322269 2.131816 -0.974845
v -0.308618 2.139927 -1.249206
v -0.285304 2.283253 -1.266218
v -0.352512 2.357270 -1.034348
v -0.391282 2.320826 -1.038242
v -0.374680 2.330689 -1.182749
v -0.346325 2.356204 -1.178856
v -0.498980 0.603430 -0.635727
v -0.159262 0.549919 -0.651960
v -0.149666 0.612301 -0.809042
v -0.470718 0.665812 -0.792808
v -0.325555 0.683720 -0.928456
v -0.232721 0.669612 -0.939275
v -0.373807 0.537895 -0.490224
v -0.249105 0.518638 -0.496066
v -0.414987 0.150609 -0.946400
v -0.238641 0.122832 -0.954827
v -0.233659 0.155214 -1.036367
v -0.400316 0.182991 -1.027941
v -0.324963 0.192286 -1.098354
v -0.276773 0.184963 -1.103970
v -0.350010 0.116589 -0.870870
v -0.285278 0.106593 -0.873903
v -0.467050 0.069547 -1.112976
v -0.146109 0.069546 -1.127580
v -0.137043 0.069546 -1.171942
v -0.440350 0.069547 -1.165148
v -0.303210 0.069547 -1.221924
v -0.215508 0.069547 -1.226452
v -0.348796 0.069546 -0.982079
v -0.230986 0.069546 -0.987334
v -0.467050 0.021656 -1.112976
v -0.146109 0.021656 -1.127580
v -0.137043 0.021656 -1.171942
v -0.440350 0.021657 -1.165148
v -0.303210 0.021657 -1.221924
v -0.215508 0.021657 -1.226452
v -0.348796 0.021656 -0.982079
v -0.230986 0.021656 -0.987334
v -0.378457 0.582163 2.123341
v -0.420928 1.138420 2.058632
v -0.798344 0.823177 1.527426
v -0.795325 1.526251 1.409506
v -0.849604 1.050366 0.849457
v -0.828072 1.744502 0.801426
v -0.830950 1.061251 0.240291
v -0.791917 1.549273 0.421309
v -0.072275 0.202201 1.903479
v -0.411247 0.102970 1.357749
v -0.424039 0.358675 0.481774
v -0.441813 0.434611 0.178313
v -0.212301 0.192464 0.323523
v -0.235502 0.178258 0.429945
v -0.396725 0.170086 0.356515
v -0.384788 0.135105 0.483079
v -0.212301 0.057688 0.344060
v -0.235502 0.071172 0.433619
v -0.396725 0.057687 0.380366
v -0.384788 0.070858 0.473469
v -0.212301 0.126365 0.246034
v -0.396725 0.106064 0.282340
v -0.396725 0.057444 0.282340
v -0.212301 0.057444 0.246034
v 1.457306 0.115295 2.283908
v 1.422832 0.254711 2.240656
v 2.445014 0.057657 1.473570
v 2.419601 0.140078 1.470433
v 2.671832 -0.102346 0.349724
v -0.407671 0.255006 0.347646
v -0.201355 0.292039 0.318224
v -0.227309 0.258632 0.440888
v -0.394317 0.210082 0.482057
v 0.543233 0.049344 -1.215335
v 0.535714 0.049344 -1.233155
v 0.543233 0.016833 -1.215335
v 0.535714 0.016833 -1.233155
v 0.412952 0.049343 -1.356600
v 0.374326 0.049344 -1.375992
v 0.412952 0.016832 -1.356601
v 0.374326 0.016833 -1.375992
v 0.074412 0.049343 -1.343450
v 0.096512 0.049343 -1.362068
v 0.096512 0.016832 -1.362068
v 0.074412 0.016832 -1.343450
v 0.262251 0.049343 -1.410147
v 0.237549 0.049343 -1.411694
v 0.262251 0.016832 -1.410147
v 0.237549 0.016832 -1.411694
v -0.504944 0.049344 -1.233154
v -0.504944 0.016833 -1.233155
v -0.512464 0.016833 -1.215335
v -0.512464 0.049344 -1.215335
v -0.343557 0.049343 -1.375992
v -0.343557 0.016833 -1.375992
v -0.382183 0.016832 -1.356601
v -0.382183 0.049343 -1.356600
v -0.043643 0.049343 -1.343450
v -0.043643 0.016832 -1.343450
v -0.065743 0.016832 -1.362068
v -0.065743 0.049343 -1.362068
v -0.206780 0.049343 -1.411694
v -0.206780 0.016832 -1.411694
v -0.231482 0.016832 -1.410147
v -0.231482 0.049343 -1.410147
v 0.376471 0.111681 0.272296
v 0.373827 0.057444 0.271775
v 0.315939 0.118344 0.260379
v 0.309565 0.057444 0.259125
v -0.252755 0.121912 0.253998
v -0.264709 0.057444 0.256351
v -0.320638 0.114440 0.267362
v -0.328477 0.057444 0.268905
v 0.282038 0.086670 0.023895
v 0.324969 0.082990 0.032346
v 0.321214 0.055051 0.031607
v 0.282038 0.055051 0.023895
v -0.361564 0.077962 0.045607
v -0.366183 0.051814 0.046517
v -0.406392 0.051814 0.054433
v -0.406392 0.074120 0.054433
v 0.411426 0.075670 0.049366
v 0.409868 0.050788 0.049059
v 0.441487 0.073093 0.055284
v 0.441487 0.050788 0.055284
v 0.352108 0.080331 0.037688
v 0.348352 0.052392 0.036949
v 0.387771 0.077274 0.044709
v 0.386214 0.052393 0.044403
v -0.246805 0.085744 0.023016
v -0.246805 0.054126 0.023016
v -0.277682 0.054126 0.029095
v -0.270639 0.083702 0.027708
v -0.293314 0.083344 0.032172
v -0.300356 0.053768 0.033558
v -0.337927 0.053768 0.040954
v -0.333308 0.079916 0.040045
v 1.943582 0.213578 2.100112
v 1.912956 0.119007 2.079253
v 1.960164 0.065621 2.111853
v 2.007370 0.092660 2.144453
v 1.976616 0.204944 2.122941
v 1.960099 0.209337 2.111527
v 0.853517 0.322299 2.207156
v 0.758947 0.113140 2.022698
v 0.713207 0.058172 2.095393
v 0.674693 0.100828 2.174752
v 0.830110 0.312172 2.268610
v 0.841813 0.317228 2.237883
vn 0.9213 0.3877 -0.0291
vn 0.6255 0.7704 -0.1234
vn 0.7975 0.5233 -0.3004
vn 0.5635 0.8212 0.0901
vn 0.6088 0.7929 -0.0251
vn 0.5085 0.7268 0.4618
vn 0.6011 0.6314 0.4899
vn 0.6794 0.5647 0.4686
vn 0.7097 0.5266 0.4680
vn 0.8004 0.4694 0.3729
vn 0.9185 0.2392 0.3149
vn 0.3529 0.9165 -0.1882
vn 0.9131 0.4071 0.0209
vn 0.5191 0.8347 0.1840
vn 0.8950 0.4165 -0.1599
vn 0.6549 0.7263 0.2088
vn 0.8913 0.2892 -0.3493
vn 0.5576 0.8096 0.1835
vn 0.5201 0.4345 0.7353
vn -0.5058 0.8367 -0.2099
vn -0.3848 0.8367 0.3898
vn 0.5854 0.7852 -0.2018
vn 0.9122 0.3965 -0.1033
vn 0.6011 0.7804 -0.1722
vn 0.5746 0.7481 -0.3320
vn 0.9137 0.3274 -0.2410
vn 0.5808 0.7123 -0.3940
vn 0.9223 0.3235 -0.2114
vn 0.5055 0.7952 -0.3349
vn 0.7851 0.0613 -0.6163
vn 0.5683 0.6317 -0.5272
vn 0.9495 -0.0383 -0.3116
vn 0.7793 -0.1907 -0.5969
vn 0.9070 -0.2885 -0.3068
vn 0.9495 0.2706 -0.1588
vn 0.9577 -0.2758 -0.0823
vn 0.9546 -0.2162 -0.2051
vn 0.9391 -0.2095 -0.2725
vn 0.8327 0.3076 -0.4605
vn 0.8749 -0.2166 -0.4332
vn 0.6465 -0.0807 -0.7586
vn 0.9376 -0.3447 -0.0451
vn 0.9253 -0.2576 0.2782
vn 0.9470 -0.3196 -0.0331
vn 0.8810 0.4701 -0.0529
vn 0.9674 -0.2423 0.0736
vn 0.8754 0.3789 0.3002
vn 0.7050 0.2387 -0.6678
vn 0.8866 -0.1902 -0.4216
vn 0.7657 -0.1789 -0.6178
vn 0.9992 -0.0018 -0.0408
vn -0.4862 -0.4458 0.7516
vn -0.0088 -0.9999 0.0100
vn 0.3392 -0.9079 0.2464
vn -0.0048 -0.9999 0.0154
vn -0.3059 -0.9400 0.1510
vn 0.0030 -0.9999 0.0129
vn 0.6858 -0.5267 -0.5022
vn 0.7272 -0.6855 -0.0352
vn 0.7319 -0.6605 -0.1675
vn 0.6720 -0.6738 -0.3073
vn 0.6273 -0.6776 -0.3839
vn 0.4411 -0.3311 -0.8342
vn 0.9238 -0.1803 -0.3379
vn 0.8020 -0.5919 -0.0804
vn 0.4635 -0.8722 0.1563
vn 0.8343 -0.5513 0.0111
vn 0.6800 -0.4531 -0.5764
vn 0.6709 -0.7294 0.1339
vn 0.4610 -0.6345 -0.6204
vn 0.4083 -0.8968 0.1706
vn 0.9821 0.1243 -0.1412
vn -0.3637 0.6411 0.6759
vn 0.9360 0.1242 -0.3294
vn 0.0881 0.7814 -0.6178
vn -0.5074 -0.1739 0.8440
vn -0.5447 0.5060 0.6687
vn 0.9608 -0.2328 -0.1506
vn 0.9778 -0.2011 -0.0583
vn -0.0484 -0.1240 -0.9911
vn 0.0311 0.7813 -0.6234
vn 0.9404 -0.3289 -0.0864
vn 0.6240 0.5130 -0.5895
vn -0.5122 -0.8358 -0.1978
vn -0.9748 -0.0312 -0.2207
vn -0.9400 -0.2419 0.2407
vn 0.9077 0.0182 -0.4192
vn 0.5474 -0.0027 -0.8369
vn -0.5468 -0.7334 -0.4040
vn -0.3724 -0.0489 -0.9268
vn 0.2133 -0.5631 -0.7984
vn 0.9672 -0.2217 0.1239
vn 0.9562 -0.2100 0.2041
vn 0.5167 -0.4764 0.7114
vn -0.5280 -0.4995 0.6868
vn -0.9453 -0.2584 0.1991
vn 0.9324 -0.3122 0.1821
vn 0.8700 0.2215 -0.4406
vn 0.4463 0.4194 -0.7905
vn -0.9661 0.1937 0.1708
vn -0.5787 0.6596 -0.4796
vn 0.5546 -0.6048 0.5715
vn -0.4358 -0.8198 0.3714
vn -0.8768 0.3575 0.3216
vn 0.9453 0.2289 0.2324
vn 0.4220 0.6907 -0.5872
vn 0.1918 0.6965 -0.6915
vn -0.7888 0.6120 -0.0559
vn -0.2388 0.7712 -0.5901
vn 0.4891 -0.6312 0.6020
vn -0.6143 -0.3439 0.7102
vn 0.9213 -0.0000 -0.3888
vn 0.4487 -0.0000 -0.8937
vn -0.6443 -0.0000 -0.7648
vn 0.0625 -0.0000 -0.9980
vn -0.8632 -0.3351 0.3777
vn 0.5476 0.6876 0.4768
vn 0.6622 -0.5198 -0.5397
vn 0.0667 -0.9531 -0.2953
vn -0.5519 -0.5082 0.6612
vn 0.5526 -0.8248 0.1192
vn 0.2920 -0.6719 0.6806
vn -0.5882 -0.7439 -0.3170
vn -0.5790 -0.5520 -0.6000
vn -0.6607 -0.0557 0.7486
vn 0.6302 -0.2396 -0.7386
vn 0.5072 -0.1698 0.8450
vn -0.7353 -0.0176 0.6775
vn -0.7230 -0.6720 0.1605
vn 0.1932 -0.0000 -0.9812
vn 0.3768 -0.1519 0.9137
vn 0.7877 0.0931 -0.6089
vn 0.1760 0.9016 -0.3951
vn 0.8758 0.4709 -0.1060
vn -0.0020 -0.9999 0.0104
vn -0.7994 -0.5965 -0.0713
vn -0.7729 0.5936 -0.2242
vn 0.4202 -0.1005 -0.9019
vn -0.0600 0.4398 -0.8961
vn -0.4687 -0.1406 -0.8721
vn 0.0542 -0.0624 -0.9966
vn -0.9057 -0.0481 -0.4212
vn 0.4473 0.8896 -0.0923
vn -0.9785 -0.0624 -0.1967
vn 0.0015 -0.9622 -0.2724
vn -0.0403 -0.9351 -0.3521
vn -0.0947 -0.9467 -0.3078
vn -0.0175 -0.9957 0.0914
vn -0.0067 -1.0000 0.0017
vn -0.0694 -0.9958 0.0594
vn -0.1249 -0.9919 -0.0213
vn -0.1992 -0.9663 -0.1634
vn -0.1694 -0.9686 -0.1820
vn 0.0161 0.7297 -0.6836
vn 0.4842 0.8678 0.1121
vn 0.0779 0.9914 -0.1055
vn -0.6298 0.7482 -0.2085
vn 0.5854 0.0413 0.8097
vn 0.0598 0.8562 -0.5131
vn 0.6658 -0.1551 0.7298
vn 0.6827 0.0689 0.7275
vn 0.5161 0.5174 0.6825
vn 0.2714 0.6961 0.6647
vn 0.0015 0.9890 0.1481
vn -0.0145 0.9894 -0.1444
vn -0.0000 0.9636 0.2672
vn -0.0000 0.8932 0.4496
vn -0.0000 0.9771 0.2127
vn -0.0000 0.9943 -0.1064
vn -0.0016 0.9639 -0.2663
vn 0.0099 0.9388 -0.3442
vn -0.0157 0.8811 -0.4726
vn 0.0024 0.9424 -0.3344
vn -0.0000 0.9264 -0.3765
vn -0.0599 0.0595 -0.9964
vn -0.0053 -0.1685 -0.9857
vn -0.0000 -0.4968 -0.8678
vn -0.0641 -0.8672 -0.4938
vn 0.0150 -0.9255 -0.3785
vn -0.0731 -0.9536 -0.2920
vn 0.0043 -0.9990 -0.0446
vn 0.1498 -0.7646 -0.6268
vn 0.0291 -0.6910 -0.7223
vn -0.0161 -0.8694 -0.4939
vn -0.0011 -0.9366 -0.3504
vn 0.0009 -0.9456 -0.3253
vn -0.9060 0.2751 -0.3218
vn -0.6025 0.7964 -0.0518
vn -0.9305 0.3661 -0.0140
vn -0.7974 0.5234 -0.3003
vn -0.5583 0.8287 0.0396
vn -0.5806 0.7924 -0.1871
vn -0.4535 0.7572 0.4700
vn -0.3994 0.8596 0.3189
vn -0.2178 0.6379 0.7386
vn -0.1739 0.8868 0.4283
vn 0.0556 0.4905 0.8697
vn -0.5379 0.8252 -0.1721
vn -0.9131 0.4072 0.0204
vn -0.4985 0.8546 0.1459
vn -0.8952 0.4160 -0.1599
vn -0.6212 0.7648 0.1711
vn -0.8912 0.2894 -0.3492
vn 0.0609 0.6950 -0.7164
vn -0.5201 0.4345 0.7353
vn 0.3845 0.8386 0.3860
vn -0.5032 0.8619 -0.0625
vn -0.9122 0.3965 -0.1034
vn -0.9732 0.2298 -0.0056
vn -0.5226 0.7954 -0.3068
vn -0.5464 0.7810 -0.3025
vn -0.5807 0.7421 -0.3347
vn -0.9097 0.3374 -0.2419
vn -0.4835 0.8063 -0.3407
vn -0.9191 0.3382 -0.2023
vn -0.7857 0.0558 -0.6161
vn -0.8618 0.3636 -0.3538
vn -0.9495 -0.0383 -0.3116
vn -0.9992 -0.0017 -0.0392
vn -0.8169 -0.2017 -0.5403
vn -0.9172 -0.3394 -0.2085
vn -0.9548 -0.2875 -0.0759
vn -0.9479 -0.2029 -0.2457
vn -0.9285 -0.2537 -0.2711
vn -0.6132 -0.0061 -0.7899
vn -0.6075 -0.3646 0.7057
vn 0.2359 -0.0446 0.9707
vn -0.6607 0.1556 0.7344
vn -0.9219 -0.2890 0.2578
vn -0.9398 0.1734 0.2944
vn -0.9707 -0.2398 0.0155
vn -0.9470 0.3212 0.0031
vn -0.8715 0.2940 -0.3924
vn -0.8812 -0.1921 -0.4318
vn -0.8383 0.0136 -0.5450
vn -0.9789 -0.2039 0.0095
vn 0.0088 -0.9999 0.0100
vn 0.2288 -0.9663 0.1178
vn -0.3392 -0.9079 0.2464
vn 0.0048 -0.9999 0.0154
vn 0.3059 -0.9400 0.1510
vn -0.5613 -0.6621 -0.4966
vn -0.6694 -0.7338 -0.1160
vn -0.6096 -0.6951 -0.3812
vn -0.6173 -0.6043 -0.5037
vn -0.8196 -0.2513 -0.5149
vn -0.4390 -0.2659 -0.8583
vn -0.1341 -0.4288 0.8934
vn -0.5354 -0.6505 0.5387
vn -0.6500 -0.7427 -0.1611
vn -0.7865 -0.6100 -0.0969
vn -0.6817 -0.4595 -0.5693
vn -0.7161 -0.6974 -0.0292
vn -0.4591 -0.6285 -0.6279
vn -0.1258 -0.9651 0.2298
vn -0.5551 0.8133 0.1745
vn -0.9821 0.1243 -0.1412
vn -0.9360 0.1242 -0.3294
vn 0.0423 0.7818 -0.6221
vn 0.3460 0.6054 0.7168
vn 0.5074 -0.1739 0.8440
vn -0.9608 -0.2328 -0.1506
vn 0.0484 -0.1240 -0.9911
vn 0.1552 0.7757 -0.6117
vn 0.2463 0.3243 0.9133
vn -0.9404 -0.3289 -0.0864
vn -0.9778 -0.2011 -0.0582
vn -0.6240 0.5130 -0.5895
vn 0.5144 -0.8327 -0.2050
vn 0.9748 -0.0312 -0.2207
vn 0.5730 -0.6952 -0.4340
vn -0.9108 0.0446 -0.4104
vn -0.5368 0.1640 -0.8276
vn 0.3717 -0.0474 -0.9271
vn -0.2614 -0.5544 -0.7902
vn -0.9632 -0.1944 0.1854
vn -0.5468 -0.4686 0.6938
vn 0.3620 -0.5852 0.7256
vn 0.9789 -0.0448 0.1992
vn 0.9444 -0.2228 0.2418
vn -0.9324 -0.3120 0.1822
vn -0.9273 0.2939 -0.2318
vn 0.9937 0.0767 -0.0820
vn -0.4508 0.5954 -0.6650
vn -0.5555 -0.6053 0.5700
vn 0.5363 -0.6575 0.5292
vn 0.9181 0.2052 0.3391
vn -0.9452 0.2292 0.2324
vn -0.4220 0.6907 -0.5872
vn 0.7888 0.6120 -0.0559
vn 0.2777 0.4123 -0.8677
vn -0.1918 0.6965 -0.6915
vn -0.4892 -0.6311 0.6020
vn 0.6083 -0.3399 0.7172
vn -0.9213 -0.0000 -0.3888
vn -0.4487 -0.0000 -0.8937
vn 0.6443 -0.0000 -0.7648
vn -0.0625 -0.0000 -0.9980
vn -0.3919 -0.7667 0.5084
vn -0.0283 -0.9740 -0.2246
vn 0.2246 -0.9570 -0.1838
vn 0.5641 -0.6147 0.5514
vn -0.5581 -0.8210 0.1200
vn 0.6930 -0.7044 0.1538
vn 0.5789 -0.5512 -0.6009
vn -0.6874 -0.1551 -0.7095
vn 0.6647 -0.1230 0.7369
vn 0.7198 -0.0779 0.6898
vn 0.6745 0.1649 -0.7196
vn -0.1932 -0.0000 -0.9812
vn -0.3551 -0.0600 0.9329
vn -0.7922 0.0864 -0.6041
vn 0.9118 0.3751 -0.1671
vn -0.1750 0.9041 -0.3900
vn -0.7845 0.6017 -0.1499
vn -0.7165 -0.6970 0.0292
vn 0.0024 -0.9999 0.0123
vn -0.3285 -0.6292 0.7044
vn 0.0583 -0.1747 0.9829
vn 0.5076 0.4185 0.7531
vn 0.1088 0.3195 0.9413
vn 0.8945 -0.2126 0.3932
vn 0.8589 0.3539 0.3701
vn 0.5606 -0.7085 -0.4286
vn 0.1811 0.9760 0.1206
vn -0.1840 0.1596 0.9699
vn 0.4794 -0.1019 0.8717
vn 0.0252 0.8636 0.5036
vn -0.0177 0.9839 -0.1781
vn -0.3605 0.4308 -0.8273
vn -0.5577 -0.7797 -0.2845
vn -0.5823 -0.1888 0.7908
vn 0.2022 0.9741 -0.1015
vn 0.2086 0.9736 -0.0922
vn 0.2108 0.9735 -0.0890
vn 0.9141 -0.0000 0.4056
vn -0.0511 -0.9984 0.0226
vn -0.7251 -0.0000 -0.6887
vn 0.0509 0.9916 -0.1189
vn 0.0548 0.9917 -0.1166
vn 0.0577 0.9917 -0.1149
vn 0.9568 -0.0000 -0.2907
vn -0.0132 -0.9995 0.0281
vn -0.9674 -0.0000 -0.2533
vn -0.0592 0.9947 -0.0835
vn -0.0651 0.9946 -0.0813
vn -0.0677 0.9945 -0.0803
vn 0.6712 -0.0000 -0.7413
vn 0.0156 -0.9997 0.0195
vn -0.8782 -0.0000 0.4783
vn 0.0057 0.9940 -0.1088
vn 0.0065 0.9940 -0.1088
vn 0.0068 0.9940 -0.1087
vn 0.9344 -0.0000 -0.3561
vn -0.0016 -0.9997 0.0261
vn -0.9989 -0.0000 0.0471
vn 0.7251 -0.0000 -0.6887
vn 0.0511 -0.9984 0.0226
vn 0.0516 -0.9984 0.0218
vn -0.9141 -0.0000 0.4056
vn -0.2022 0.9741 -0.1015
vn -0.2086 0.9736 -0.0922
vn -0.2012 0.9741 -0.1030
vn 0.9674 -0.0000 -0.2533
vn 0.0132 -0.9995 0.0281
vn 0.0139 -0.9995 0.0277
vn -0.9568 -0.0000 -0.2907
vn -0.0509 0.9916 -0.1189
vn -0.0548 0.9917 -0.1166
vn -0.0496 0.9916 -0.1197
vn 0.8782 -0.0000 0.4783
vn -0.0156 -0.9997 0.0195
vn -0.0163 -0.9997 0.0193
vn -0.6712 -0.0000 -0.7413
vn 0.0592 0.9947 -0.0835
vn 0.0650 0.9946 -0.0813
vn 0.0583 0.9948 -0.0839
vn 0.9989 -0.0000 0.0471
vn -0.0030 -0.9999 0.0129
vn 0.0016 -0.9997 0.0261
vn -0.9344 -0.0000 -0.3561
vn -0.0057 0.9940 -0.1088
vn -0.0065 0.9940 -0.1088
vn -0.0056 0.9940 -0.1088
vn 0.1931 -0.0000 -0.9812
vn -0.1931 -0.0000 -0.9812
vn -0.1721 0.9103 -0.3764
vn 0.1731 0.9079 -0.3818
vn -0.0028 -0.9999 0.0143
vn 0.7881 -0.6143 0.0393
vn 0.0019 -1.0000 0.0096
vn 0.8557 -0.5132 -0.0663
vn 0.1188 0.9810 -0.1536
vn 0.1147 0.9812 -0.1552
vn 0.9927 -0.1073 0.0553
vn 0.9901 -0.1299 0.0526
vn 0.9929 -0.1051 0.0556
vn -0.9850 -0.0000 -0.1728
vn 0.9773 -0.1416 -0.1578
vn 0.9721 -0.1715 -0.1598
vn 0.9777 -0.1387 -0.1576
vn 0.0048 -0.9997 0.0245
vn -0.9991 -0.0000 0.0424
vn -0.1164 0.9834 -0.1393
vn -0.9854 0.0505 -0.1624
vn -0.9850 0.0617 -0.1615
vn -0.9849 0.0636 -0.1613
vn 0.1151 0.9834 -0.1404
vn 0.1121 0.9836 -0.1413
vn 0.9981 -0.0000 0.0615
vn -0.0057 -0.9996 0.0290
vn -0.9783 0.1084 -0.1767
vn -0.9760 0.1311 -0.1740
vn -0.9755 0.1357 -0.1734
vn 0.1171 0.9820 -0.1480
vn 0.1136 0.9823 -0.1492
vn 0.9971 -0.0501 0.0569
vn 0.9966 -0.0611 0.0559
vn 0.9972 -0.0491 0.0569
vn -0.0043 -0.9997 0.0220
vn 0.9882 -0.0000 -0.1529
vn 0.0028 -0.9999 0.0144
vn -0.9810 0.1880 0.0470
vn -0.9729 0.2253 0.0511
vn -0.9709 0.2337 0.0520
vn -0.1181 0.9800 -0.1600
vn 0.9709 -0.1898 -0.1458
vn 0.9623 -0.2274 -0.1491
vn 0.9718 -0.1855 -0.1454
vn 0.0031 -0.9999 0.0160
vn -0.9896 0.1399 0.0346
vn -0.9848 0.1695 0.0374
vn -0.9838 0.1751 0.0380
vn -0.1176 0.9819 -0.1484
vn 0.3755 -0.5320 0.7589
vn 0.1202 0.9680 0.2203
vn 0.9501 -0.2842 -0.1286
vn 0.1627 -0.9603 0.2267
vn -0.9501 -0.2842 -0.1286
vn 0.2388 0.7712 -0.5901
vn -0.2884 -0.6634 0.6904
vn 0.2012 0.9741 -0.1030
vn -0.0516 -0.9984 0.0218
vn 0.0496 0.9916 -0.1197
vn -0.0139 -0.9995 0.0277
vn -0.0583 0.9948 -0.0839
vn 0.0163 -0.9997 0.0193
vn 0.0056 0.9940 -0.1088
vn -0.2108 0.9735 -0.0890
vn -0.0577 0.9917 -0.1149
vn 0.0677 0.9945 -0.0803
vn -0.0068 0.9940 -0.1087
vn 0.9896 -0.1344 0.0521
vn 0.9711 -0.1771 -0.1602
vn -0.1121 0.9836 -0.1411
vn -0.9855 0.0496 -0.1625
vn -0.0057 -0.9996 0.0289
vn -0.9785 0.1061 -0.1770
vn 0.9965 -0.0630 0.0557
vn -0.9819 0.1838 0.0466
vn -0.1156 0.9802 -0.1606
vn 0.9602 -0.2357 -0.1497
vn -0.9900 0.1371 0.0344
vn -0.1137 0.9821 -0.1500
vt 0.548171 0.852347
vt 0.450645 0.922169
vt 0.409713 0.836093
vt 0.322734 0.933065
vt 0.328221 0.872435
vt 0.218374 0.900429
vt 0.218374 0.832715
vt 0.109116 0.838137
vt 0.122528 0.772773
vt 0.044888 0.732593
vt 0.051488 0.699252
vt 0.543903 0.896697
vt 0.604985 0.862315
vt 0.608033 0.900284
vt 0.674294 0.876621
vt 0.666518 0.928718
vt 0.594570 0.910489
vt 0.608701 0.862291
vt 0.626028 0.921477
vt 0.712444 0.980484
vt 0.742722 0.987883
vt 0.711606 0.988106
vt 0.767583 0.951015
vt 0.808805 0.907818
vt 0.818018 0.948965
vt 0.880357 0.931843
vt 0.880821 0.899717
vt 0.923677 0.904798
vt 0.923094 0.886202
vt 0.950627 0.895591
vt 0.976090 0.885709
vt 0.969138 0.888875
vt 0.665449 0.785184
vt 0.702382 0.808241
vt 0.709873 0.872700
vt 0.765600 0.853592
vt 0.761559 0.889130
vt 0.815406 0.853178
vt 0.886074 0.848835
vt 0.917750 0.860513
vt 0.950168 0.881199
vt 0.944705 0.863438
vt 0.973961 0.875631
vt 0.105566 0.657365
vt 0.052068 0.673459
vt 0.198476 0.686399
vt 0.111747 0.752836
vt 0.308454 0.716222
vt 0.205992 0.808256
vt 0.398168 0.801554
vt 0.423663 0.699487
vt 0.454878 0.736127
vt 0.604985 0.758662
vt 0.731681 0.499625
vt 0.758964 0.499625
vt 0.728536 0.499625
vt 0.785241 0.499625
vt 0.762109 0.499625
vt 0.787336 0.499625
vt 0.770163 0.828451
vt 0.821765 0.829353
vt 0.878508 0.824234
vt 0.907049 0.834363
vt 0.942269 0.839505
vt 0.968446 0.863854
vt 0.049766 0.626472
vt 0.114126 0.546710
vt 0.214087 0.536622
vt 0.385149 0.570111
vt 0.417891 0.600254
vt 0.540856 0.662375
vt 0.462131 0.631743
vt 0.700351 0.499625
vt 0.617501 0.874485
vt 0.631052 0.915649
vt 0.719595 0.893119
vt 0.647955 0.940018
vt 0.686247 0.946719
vt 0.690419 0.954419
vt 0.652812 0.932067
vt 0.636538 0.890787
vt 0.642944 0.900160
vt 0.757870 0.942650
vt 0.698793 0.940953
vt 0.672592 0.926562
vt 0.662553 0.919078
vt 0.702457 0.956156
vt 0.761533 0.955973
vt 0.743560 0.982547
vt 0.664567 0.904951
vt 0.604985 0.681875
vt 0.663092 0.623155
vt 0.629268 0.610108
vt 0.659597 0.634346
vt 0.677273 0.638092
vt 0.665449 0.708397
vt 0.691134 0.635141
vt 0.710673 0.740559
vt 0.548171 0.735737
vt 0.625773 0.621300
vt 0.594443 0.607594
vt 0.595701 0.603566
vt 0.694483 0.520785
vt 0.692668 0.526595
vt 0.710226 0.533367
vt 0.713856 0.535311
vt 0.712041 0.527558
vt 0.726597 0.533780
vt 0.676405 0.519480
vt 0.677058 0.517389
vt 0.731681 0.509641
vt 0.728536 0.509641
vt 0.758964 0.509641
vt 0.785241 0.509641
vt 0.762109 0.509641
vt 0.787336 0.509641
vt 0.700351 0.509641
vt 0.701483 0.509641
vt 0.701483 0.499625
vt 0.316320 0.842386
vt 0.123747 0.578591
vt 0.226299 0.573132
vt 0.395518 0.509981
vt 0.406984 0.507161
vt 0.386937 0.509915
vt 0.397925 0.612232
vt 0.420365 0.556174
vt 0.393953 0.549187
vt 0.400547 0.548429
vt 0.385088 0.539033
vt 0.396309 0.532377
vt 0.414802 0.507161
vt 0.481195 0.526277
vt 0.478376 0.511863
vt 0.481195 0.511863
vt 0.384868 0.523352
vt 0.398637 0.530668
vt 0.475540 0.523206
vt 0.473377 0.522031
vt 0.903981 0.376364
vt 0.808624 0.297135
vt 0.966676 0.317104
vt 0.634345 0.309534
vt 0.500600 0.272901
vt 0.634346 0.275116
vt 0.365979 0.270672
vt 0.050250 0.273903
vt 0.050250 0.270599
vt 0.426535 0.587875
vt 0.328221 0.569548
vt 0.226299 0.530448
vt 0.123747 0.535906
vt 0.808624 0.285069
vt 0.634346 0.263050
vt 0.500600 0.260835
vt 0.365979 0.258605
vt 0.050250 0.258533
vt 0.365979 0.289808
vt 0.365979 0.295232
vt 0.634345 0.314958
vt 0.500599 0.299703
vt 0.903981 0.381788
vt 0.775746 0.344580
vt 0.039489 0.673459
vt 0.038909 0.716815
vt 0.044888 0.752773
vt 0.109116 0.858317
vt 0.322734 0.953246
vt 0.543903 0.916877
vt 0.608033 0.920464
vt 0.668700 0.952898
vt 0.591511 0.931266
vt 0.619072 0.938609
vt 0.642177 0.951832
vt 0.816607 0.957855
vt 0.884872 0.936350
vt 0.928757 0.911845
vt 0.956063 0.901437
vt 0.979324 0.893032
vt 0.983294 0.886142
vt 0.981598 0.875198
vt 0.970940 0.857051
vt 0.949406 0.827411
vt 0.907318 0.816542
vt 0.883894 0.793056
vt 0.821765 0.787807
vt 0.770163 0.786905
vt 0.710673 0.697875
vt 0.665449 0.665713
vt 0.604985 0.639190
vt 0.540856 0.619691
vt 0.419224 0.535349
vt 0.594570 0.910489
vt 0.608701 0.862291
vt 0.579960 0.860498
vt 0.384685 0.801554
vt 0.626028 0.921477
vt 0.617501 0.874485
vt 0.686247 0.946718
vt 0.647955 0.940018
vt 0.690419 0.954419
vt 0.652812 0.932067
vt 0.631052 0.915649
vt 0.751069 0.898939
vt 0.672592 0.926562
vt 0.662553 0.919078
vt 0.664567 0.904951
vt 0.642944 0.900160
vt 0.476270 0.511863
vt 0.476603 0.523783
vt 0.479480 0.525346
vt 0.473377 0.511863
vt 0.966676 0.305038
vt 0.500599 0.305127
vt 0.218374 0.920609
vt 0.450645 0.942349
vt 0.591511 0.931266
vt 0.619072 0.938609
vt 0.642177 0.951832
vt 0.763857 0.967505
vt 0.475652 0.511863
vt 0.478106 0.524600
vt 0.478973 0.511863
vt 0.775746 0.350004
vt 0.579960 0.860498
vt 0.653742 0.894040
vt 0.653742 0.894040
s 1
usemtl lambert2
f 45/1/1 2/2/2 44/3/3
f 44/3/3 6/4/4 43/5/5
f 43/5/5 8/6/6 42/7/7
f 42/7/7 10/8/8 41/9/9
f 41/9/9 12/10/10 40/11/11
f 3/12/12 31/13/13 13/14/14
f 13/14/14 32/15/15 15/16/16
f 15/17/16 33/18/17 17/19/18
f 67/20/19 69/21/20 66/22/21
f 19/23/22 35/24/23 21/25/24
f 35/24/23 23/26/25 21/25/24
f 36/27/26 25/28/27 23/26/25
f 37/29/28 27/30/29 25/28/27
f 27/30/29 39/31/30 29/32/31
f 31/13/13 47/33/32 32/15/15
f 32/15/15 48/34/33 33/35/17
f 33/35/17 49/36/34 34/37/35
f 34/37/35 50/38/36 35/24/23
f 36/27/26 50/38/36 51/39/37
f 37/29/28 51/39/37 52/40/38
f 38/41/39 52/40/38 53/42/40
f 38/41/39 54/43/41 39/31/30
f 102/44/42 40/11/11 55/45/43
f 104/46/44 103/47/45 102/44/42
f 106/48/46 105/49/47 104/46/44
f 109/50/48 106/48/46 108/51/49
f 56/52/50 45/1/1 44/3/3
f 45/1/1 46/53/51 31/13/13
f 95/54/52 97/55/53 94/56/54
f 98/57/55 96/58/56 99/59/57
f 48/34/33 20/60/58 49/36/34
f 50/38/36 20/60/58 22/61/59
f 51/39/37 22/61/59 24/62/60
f 51/39/37 26/63/61 52/40/38
f 52/40/38 28/64/62 53/42/40
f 53/42/40 30/65/63 54/43/41
f 102/44/42 11/66/64 110/67/65
f 111/68/66 102/44/42 110/67/65
f 112/69/67 104/46/44 111/68/66
f 108/51/49 112/69/67 113/70/68
f 4/71/69 56/52/50 1/72/70
f 100/73/71 95/54/52 94/56/54
f 17/19/18 59/74/72 58/75/73
f 34/37/35 59/76/72 33/35/17
f 19/77/22 60/78/74 34/79/35
f 17/19/18 61/80/75 19/77/22
f 58/75/73 63/81/76 62/82/77
f 59/76/72 64/83/78 63/84/79
f 61/80/75 64/85/80 60/78/74
f 58/75/73 65/86/81 61/80/75
f 62/87/77 67/20/19 66/22/21
f 64/83/78 67/20/82 63/84/79
f 65/88/81 68/89/83 64/83/80
f 62/82/77 69/90/20 65/86/81
f 14/91/84 72/92/85 71/93/86
f 46/53/51 73/94/87 47/33/32
f 47/33/32 74/95/88 48/34/33
f 16/96/89 75/97/90 72/92/85
f 18/98/91 74/95/88 75/97/90
f 57/99/92 70/100/93 46/53/51
f 4/71/69 76/101/94 57/99/92
f 14/91/84 77/102/95 4/71/69
f 72/92/85 79/103/96 71/93/86
f 73/94/87 78/104/97 81/105/98
f 74/95/88 81/105/98 82/106/99
f 75/97/90 80/107/100 72/92/85
f 75/97/90 82/106/99 83/108/101
f 70/100/93 84/109/102 78/104/97
f 77/102/95 84/109/102 76/101/94
f 71/93/86 85/110/103 77/102/95
f 80/107/100 87/111/104 79/103/96
f 81/105/98 86/112/105 89/113/106
f 82/106/99 89/113/106 90/114/107
f 83/108/101 88/115/108 80/107/100
f 83/108/101 90/114/107 91/116/109
f 78/104/97 92/117/110 86/112/105
f 85/110/103 92/117/110 84/109/102
f 79/103/96 93/118/111 85/110/103
f 87/111/104 96/58/56 95/54/52
f 309/112/112 312/55/112 310/113/112
f 314/114/113 315/55/113 316/57/113
f 317/115/114 319/59/114 320/58/114
f 321/114/115 324/59/115 322/116/115
f 92/117/110 94/56/54 86/112/105
f 93/118/111 100/73/71 92/117/110
f 93/118/111 95/54/52 101/119/116
f 41/9/9 40/11/11 103/47/45
f 41/9/9 105/49/47 42/7/7
f 42/7/7 107/120/117 43/5/5
f 56/52/50 109/50/48 108/51/49
f 43/5/5 109/50/48 44/3/3
f 11/66/64 9/121/118 110/67/65
f 7/122/119 110/67/65 9/121/118
f 7/122/119 112/69/67 111/68/66
f 56/52/50 113/70/68 1/72/70
f 119/123/120 120/124/121 121/125/122
f 5/126/123 172/127/124 173/128/125
f 113/70/68 172/127/124 1/72/70
f 112/69/67 171/129/126 113/70/68
f 112/69/67 173/128/125 174/130/127
f 115/131/128 118/132/129 119/123/120
f 349/133/130 351/134/130 352/135/130
f 117/136/131 120/124/121 116/137/132
f 117/136/131 119/123/120 121/125/122
f 341/138/133 116/137/132 123/139/134
f 120/124/121 123/139/134 116/137/132
f 344/134/135 118/132/129 125/135/136
f 118/132/129 122/133/137 125/135/136
f 11/140/64 380/141/138 9/142/118
f 127/143/139 374/144/140 126/145/141
f 128/146/142 131/147/143 130/148/144
f 132/149/145 5/126/123 133/150/146
f 133/150/146 7/122/119 134/151/147
f 135/152/148 7/122/119 9/121/118
f 381/153/149 9/142/118 380/141/138
f 136/154/150 374/144/140 375/155/151
f 137/156/152 130/148/144 138/157/153
f 131/147/143 138/157/153 130/148/144
f 129/158/154 139/159/155 131/147/143
f 140/160/156 373/161/157 127/143/139
f 141/162/158 379/163/159 11/140/64
f 141/66/158 55/45/43 142/164/160
f 143/165/161 55/45/43 40/11/11
f 143/165/161 12/10/10 144/166/162
f 10/8/8 144/166/162 12/10/10
f 8/6/6 145/167/163 10/8/8
f 147/168/164 8/6/6 6/4/4
f 2/2/2 147/168/164 6/4/4
f 149/169/165 2/2/2 3/12/12
f 149/169/165 13/14/14 150/170/166
f 150/170/166 15/16/16 151/171/167
f 151/172/167 17/19/18 152/173/168
f 152/173/168 19/77/22 153/174/169
f 154/175/170 19/23/22 21/25/24
f 155/176/171 21/25/24 23/26/25
f 156/177/172 23/26/25 25/28/27
f 157/178/173 25/28/27 27/30/29
f 157/178/173 29/32/31 158/179/174
f 159/180/175 29/32/31 39/31/30
f 160/181/176 39/31/30 54/43/41
f 160/181/176 30/65/63 161/182/177
f 28/64/62 161/182/177 30/65/63
f 26/63/61 162/183/178 28/64/62
f 24/62/60 163/184/179 26/63/61
f 22/61/59 164/185/180 24/62/60
f 20/60/58 165/186/181 22/61/59
f 18/98/91 166/187/182 20/60/58
f 16/96/89 167/188/183 18/98/91
f 14/91/84 168/189/184 16/96/89
f 4/71/69 169/190/185 14/91/84
f 170/191/186 1/72/70 132/149/145
f 171/129/126 114/192/187 172/127/124
f 173/128/125 114/192/187 115/131/128
f 174/130/127 115/131/128 117/136/131
f 174/130/127 116/137/132 171/129/126
f 176/2/188 219/1/189 218/3/190
f 218/3/190 180/4/191 176/2/188
f 217/5/192 182/6/193 180/4/191
f 216/7/194 184/8/195 182/6/193
f 215/9/196 186/10/197 184/8/195
f 177/12/198 205/13/199 219/1/189
f 187/14/200 206/15/201 205/13/199
f 189/193/202 207/194/203 206/195/201
f 243/21/204 241/20/205 240/22/206
f 193/23/207 209/24/208 208/37/209
f 197/26/210 209/24/208 195/25/211
f 199/28/212 210/27/213 197/26/210
f 201/30/214 211/29/215 199/28/212
f 201/30/214 213/31/216 212/41/217
f 205/13/199 221/33/218 220/53/219
f 222/34/220 206/15/201 207/35/203
f 223/36/221 207/35/203 208/37/209
f 224/38/222 208/37/209 209/24/208
f 210/27/213 224/38/222 209/24/208
f 211/29/215 225/39/223 210/27/213
f 212/41/217 226/40/224 211/29/215
f 228/43/225 212/41/217 213/31/216
f 276/44/226 214/11/227 277/47/228
f 278/46/229 277/47/228 279/49/230
f 280/48/231 279/49/230 281/120/232
f 280/48/231 283/196/233 282/51/234
f 230/52/235 219/1/189 231/99/236
f 220/53/219 219/1/189 205/13/199
f 271/55/237 269/54/238 268/56/239
f 272/57/240 270/58/241 271/55/237
f 194/60/242 222/34/220 223/36/221
f 224/38/222 194/60/242 223/36/221
f 225/39/223 196/61/243 224/38/222
f 200/63/244 225/39/223 226/40/224
f 202/64/245 226/40/224 227/42/246
f 204/65/247 227/42/246 228/43/225
f 185/66/248 276/44/226 284/67/249
f 285/68/250 276/44/226 278/46/229
f 285/68/250 280/48/231 286/69/251
f 286/69/251 282/51/234 287/70/252
f 230/52/235 178/71/253 175/72/254
f 269/54/238 274/73/255 268/56/239
f 191/197/256 233/198/257 207/194/203
f 233/76/257 208/37/209 207/35/203
f 234/199/258 193/200/207 208/201/209
f 235/202/259 191/197/256 193/200/207
f 232/203/260 237/81/261 233/198/257
f 233/76/257 238/83/262 234/204/258
f 238/205/263 235/202/259 234/199/258
f 239/206/264 232/203/260 235/202/259
f 236/87/265 241/20/205 237/84/261
f 241/20/266 238/83/262 237/84/267
f 242/89/268 239/88/264 238/83/263
f 243/207/204 236/208/265 239/206/264
f 188/91/269 246/92/270 190/96/271
f 247/94/272 220/53/219 221/33/218
f 248/95/273 221/33/218 222/34/220
f 190/96/271 249/97/274 192/98/275
f 192/98/275 248/95/273 222/34/220
f 244/100/276 231/99/236 220/53/219
f 250/101/277 178/71/253 231/99/236
f 251/102/278 188/91/269 178/71/253
f 253/103/279 246/92/270 245/93/280
f 247/94/272 252/104/281 244/100/276
f 248/95/273 255/105/282 247/94/272
f 254/107/283 249/97/274 246/92/270
f 249/97/274 256/106/284 248/95/273
f 244/100/276 258/109/285 250/101/277
f 258/109/285 251/102/278 250/101/277
f 259/110/286 245/93/280 251/102/278
f 261/111/287 254/107/283 253/103/279
f 255/105/282 260/112/288 252/104/281
f 256/106/284 263/113/289 255/105/282
f 262/115/290 257/108/291 254/107/283
f 257/108/291 264/114/292 256/106/284
f 252/104/281 266/117/293 258/109/285
f 266/117/293 259/110/286 258/109/285
f 267/118/294 253/103/279 259/110/286
f 261/111/287 270/58/241 262/115/290
f 325/113/295 327/56/295 328/112/295
f 329/114/296 331/55/296 332/113/296
f 333/115/297 335/59/297 336/116/297
f 338/59/298 340/114/298 337/116/298
f 268/56/239 266/117/293 260/112/288
f 274/73/255 267/118/294 266/117/293
f 267/118/294 269/54/238 261/111/287
f 215/9/196 277/47/228 214/11/227
f 279/49/230 215/9/196 216/7/194
f 281/120/232 216/7/194 217/5/192
f 230/52/235 283/196/233 218/3/190
f 283/196/233 217/5/192 218/3/190
f 185/66/248 284/67/249 183/121/299
f 284/67/249 181/122/300 183/121/299
f 181/122/300 286/69/251 179/126/301
f 287/70/252 230/52/235 175/72/254
f 293/123/302 294/124/303 292/132/304
f 179/126/301 306/127/305 175/72/254
f 306/127/305 287/70/252 175/72/254
f 305/129/306 286/69/251 287/70/252
f 286/69/251 307/128/307 179/126/301
f 289/131/308 292/132/304 288/192/309
f 354/209/310 356/139/310 353/210/310
f 294/124/303 291/136/311 290/137/312
f 291/136/311 293/123/302 289/131/308
f 288/192/309 296/133/313 345/211/314
f 297/139/315 294/124/303 290/137/312
f 294/124/303 298/212/316 348/209/317
f 292/132/304 296/133/313 288/192/309
f 382/141/318 185/140/248 183/142/299
f 300/145/319 377/161/320 301/143/321
f 302/146/322 131/147/143 303/158/323
f 179/126/301 132/149/145 133/150/146
f 181/122/300 133/150/146 134/151/147
f 135/152/148 181/122/300 134/151/147
f 381/153/149 183/142/299 135/213/148
f 375/155/151 300/145/319 136/154/150
f 304/148/324 137/156/152 138/157/153
f 131/147/143 304/148/324 138/157/153
f 303/158/323 131/147/143 139/159/155
f 301/143/321 378/214/325 140/160/156
f 383/163/326 141/162/158 185/140/248
f 229/45/327 141/66/158 142/164/160
f 214/11/227 142/164/160 143/165/161
f 186/10/197 143/165/161 144/166/162
f 184/8/195 144/166/162 145/167/163
f 182/6/193 145/167/163 146/215/328
f 180/4/191 146/215/328 147/168/164
f 176/2/188 147/168/164 148/216/329
f 149/169/165 176/2/188 148/216/329
f 187/14/200 149/169/165 150/170/166
f 189/16/202 150/170/166 151/171/167
f 191/197/256 151/217/167 152/218/168
f 193/200/207 152/218/168 153/219/169
f 154/175/170 193/23/207 153/220/169
f 155/176/171 195/25/211 154/175/170
f 156/177/172 197/26/210 155/176/171
f 157/178/173 199/28/212 156/177/172
f 203/32/330 157/178/173 158/179/174
f 159/180/175 203/32/330 158/179/174
f 160/181/176 213/31/216 159/180/175
f 204/65/247 160/181/176 161/182/177
f 202/64/245 161/182/177 162/183/178
f 200/63/244 162/183/178 163/184/179
f 198/62/331 163/184/179 164/185/180
f 196/61/243 164/185/180 165/186/181
f 194/60/242 165/186/181 166/187/182
f 192/98/275 166/187/182 167/188/183
f 190/96/271 167/188/183 168/189/184
f 188/91/269 168/189/184 169/190/185
f 178/71/253 169/190/185 170/191/186
f 175/72/254 170/191/186 132/149/145
f 288/192/309 305/129/306 306/127/305
f 307/128/307 288/192/309 306/127/305
f 308/130/332 289/131/308 307/128/307
f 290/137/312 308/130/332 305/129/306
f 89/113/333 309/112/334 310/113/335
f 94/56/54 309/112/336 86/112/105
f 97/55/53 311/56/337 94/56/54
f 97/55/338 310/113/338 312/55/338
f 90/114/339 313/113/340 314/114/341
f 97/55/342 313/113/342 89/113/342
f 98/57/55 315/55/343 97/55/53
f 98/57/344 314/114/344 316/57/344
f 88/115/345 318/116/346 317/115/347
f 99/59/348 318/116/348 91/116/348
f 96/58/56 319/59/349 99/59/57
f 96/58/56 317/115/350 320/58/350
f 91/116/351 321/114/352 322/116/353
f 98/57/354 321/114/354 90/114/354
f 99/59/57 323/57/355 98/57/55
f 99/59/356 322/116/356 324/59/356
f 271/55/357 325/113/357 263/113/357
f 271/55/237 327/56/358 326/55/359
f 268/56/239 328/112/360 327/56/360
f 263/113/361 328/112/362 260/112/363
f 272/57/364 329/114/364 264/114/364
f 272/57/240 331/55/365 330/57/366
f 271/55/367 332/113/367 331/55/367
f 264/114/368 332/113/369 263/113/370
f 270/58/241 333/115/371 262/115/290
f 270/58/241 335/59/372 334/58/373
f 273/59/374 336/116/374 335/59/374
f 262/115/375 336/116/376 265/116/377
f 273/59/378 337/116/378 265/116/378
f 273/59/379 339/57/380 338/59/380
f 272/57/381 340/114/381 339/57/381
f 265/116/382 340/114/383 264/114/384
f 358/221/385 359/139/385 360/212/130
f 361/222/130 364/221/130 362/134/130
f 366/135/310 368/211/310 365/133/386
f 370/223/310 372/210/310 369/211/310
f 290/137/312 347/210/387 297/139/315
f 288/192/309 347/210/387 290/137/312
f 114/192/187 343/222/388 122/133/137
f 116/137/132 343/222/388 114/192/187
f 120/124/121 342/221/389 124/212/390
f 118/132/129 342/221/389 120/124/121
f 292/132/304 346/223/391 299/135/392
f 348/209/317 292/132/304 294/124/303
f 122/133/137 350/222/393 349/133/394
f 344/134/395 350/222/396 343/222/397
f 125/135/136 351/134/135 344/134/135
f 125/135/136 349/133/398 352/135/398
f 348/209/399 353/210/400 347/210/401
f 348/209/317 355/212/402 354/209/402
f 298/212/316 356/139/403 355/212/403
f 347/210/387 356/139/404 297/139/315
f 342/221/405 357/138/406 358/221/407
f 341/138/133 359/139/408 357/138/409
f 124/212/390 359/139/410 123/139/134
f 342/221/389 360/212/411 124/212/390
f 344/134/412 361/222/413 362/134/414
f 343/222/388 363/138/415 361/222/416
f 342/221/417 363/138/418 341/138/419
f 344/134/135 364/221/420 342/221/389
f 299/135/392 365/133/421 296/133/313
f 299/135/392 367/223/422 366/135/422
f 346/223/423 368/211/424 367/223/425
f 296/133/313 368/211/426 345/211/314
f 346/223/427 369/211/428 345/211/429
f 346/223/391 371/209/430 370/223/430
f 348/209/431 372/210/432 371/209/433
f 345/211/314 372/210/434 347/210/387
f 373/161/157 128/146/142 374/144/140
f 375/155/151 128/146/142 137/156/152
f 137/156/152 376/144/435 375/155/151
f 376/144/435 303/158/323 377/161/320
f 377/161/320 139/159/155 378/214/325
f 378/214/325 129/158/154 373/161/157
f 379/163/159 126/145/141 380/141/138
f 381/153/149 126/145/141 136/154/150
f 136/154/150 382/141/318 381/153/149
f 383/163/326 300/145/319 301/143/321
f 383/163/326 140/160/156 384/224/436
f 384/224/436 127/143/139 379/163/159
f 45/1/1 3/12/12 2/2/2
f 44/3/3 2/2/2 6/4/4
f 43/5/5 6/4/4 8/6/6
f 42/7/7 8/6/6 10/8/8
f 41/9/9 10/8/8 12/10/10
f 3/12/12 45/1/1 31/13/13
f 13/14/14 31/13/13 32/15/15
f 15/17/16 32/225/15 33/18/17
f 67/20/19 68/89/83 69/21/20
f 19/23/22 34/37/35 35/24/23
f 35/24/23 36/27/26 23/26/25
f 36/27/26 37/29/28 25/28/27
f 37/29/28 38/41/39 27/30/29
f 27/30/29 38/41/39 39/31/30
f 31/13/13 46/53/51 47/33/32
f 32/15/15 47/33/32 48/34/33
f 33/35/17 48/34/33 49/36/34
f 34/37/35 49/36/34 50/38/36
f 36/27/26 35/24/23 50/38/36
f 37/29/28 36/27/26 51/39/37
f 38/41/39 37/29/28 52/40/38
f 38/41/39 53/42/40 54/43/41
f 102/44/42 103/47/45 40/11/11
f 104/46/44 105/49/47 103/47/45
f 106/48/46 107/120/117 105/49/47
f 109/50/48 107/120/117 106/48/46
f 56/52/50 57/99/92 45/1/1
f 45/1/1 57/99/92 46/53/51
f 95/54/52 96/58/56 97/55/53
f 98/57/55 97/55/53 96/58/56
f 48/34/33 18/98/91 20/60/58
f 50/38/36 49/36/34 20/60/58
f 51/39/37 50/38/36 22/61/59
f 51/39/37 24/62/60 26/63/61
f 52/40/38 26/63/61 28/64/62
f 53/42/40 28/64/62 30/65/63
f 102/44/42 55/45/43 11/66/64
f 111/68/66 104/46/44 102/44/42
f 112/69/67 106/48/46 104/46/44
f 108/51/49 106/48/46 112/69/67
f 4/71/69 57/99/92 56/52/50
f 100/73/71 101/119/116 95/54/52
f 17/19/18 33/18/17 59/74/72
f 34/37/35 60/204/74 59/76/72
f 19/77/22 61/80/75 60/78/74
f 17/19/18 58/75/73 61/80/75
f 58/75/73 59/74/72 63/81/76
f 59/76/72 60/204/74 64/83/78
f 61/80/75 65/86/81 64/85/80
f 58/75/73 62/82/77 65/86/81
f 62/87/77 63/84/76 67/20/19
f 64/83/78 68/89/437 67/20/82
f 65/88/81 69/21/20 68/89/83
f 62/82/77 66/226/21 69/90/20
f 14/91/84 16/96/89 72/92/85
f 46/53/51 70/100/93 73/94/87
f 47/33/32 73/94/87 74/95/88
f 16/96/89 18/98/91 75/97/90
f 18/98/91 48/34/33 74/95/88
f 57/99/92 76/101/94 70/100/93
f 4/71/69 77/102/95 76/101/94
f 14/91/84 71/93/86 77/102/95
f 72/92/85 80/107/100 79/103/96
f 73/94/87 70/100/93 78/104/97
f 74/95/88 73/94/87 81/105/98
f 75/97/90 83/108/101 80/107/100
f 75/97/90 74/95/88 82/106/99
f 70/100/93 76/101/94 84/109/102
f 77/102/95 85/110/103 84/109/102
f 71/93/86 79/103/96 85/110/103
f 80/107/100 88/115/108 87/111/104
f 81/105/98 78/104/97 86/112/105
f 82/106/99 81/105/98 89/113/106
f 83/108/101 91/116/109 88/115/108
f 83/108/101 82/106/99 90/114/107
f 78/104/97 84/109/102 92/117/110
f 85/110/103 93/118/111 92/117/110
f 79/103/96 87/111/104 93/118/111
f 87/111/104 88/115/108 96/58/56
f 309/112/112 311/56/112 312/55/112
f 314/114/113 313/113/113 315/55/113
f 317/115/114 318/116/114 319/59/114
f 321/114/115 323/57/115 324/59/115
f 92/117/110 100/73/71 94/56/54
f 93/118/111 101/119/116 100/73/71
f 93/118/111 87/111/104 95/54/52
f 41/9/9 103/47/45 105/49/47
f 42/7/7 105/49/47 107/120/117
f 56/52/50 44/3/3 109/50/48
f 43/5/5 107/120/117 109/50/48
f 7/122/119 111/68/66 110/67/65
f 7/122/119 5/126/123 112/69/67
f 56/52/50 108/51/49 113/70/68
f 119/123/120 118/132/129 120/124/121
f 5/126/123 1/72/70 172/127/124
f 113/70/68 171/129/126 172/127/124
f 112/69/67 174/130/127 171/129/126
f 112/69/67 5/126/123 173/128/125
f 115/131/128 114/192/187 118/132/129
f 349/133/130 350/222/130 351/134/130
f 117/136/131 121/125/122 120/124/121
f 117/136/131 115/131/128 119/123/120
f 120/124/121 124/212/390 123/139/134
f 118/132/129 114/192/187 122/133/137
f 11/140/64 379/163/159 380/141/138
f 127/143/139 373/161/157 374/144/140
f 128/146/142 129/158/154 131/147/143
f 132/149/145 1/72/70 5/126/123
f 133/150/146 5/126/123 7/122/119
f 135/152/148 134/151/147 7/122/119
f 381/153/149 135/213/148 9/142/118
f 136/154/150 126/145/141 374/144/140
f 137/156/152 128/146/142 130/148/144
f 140/160/156 378/214/325 373/161/157
f 141/162/158 384/224/436 379/163/159
f 141/66/158 11/66/64 55/45/43
f 143/165/161 142/164/160 55/45/43
f 143/165/161 40/11/11 12/10/10
f 10/8/8 145/167/163 144/166/162
f 8/6/6 146/215/328 145/167/163
f 147/168/164 146/215/328 8/6/6
f 2/2/2 148/216/329 147/168/164
f 149/169/165 148/216/329 2/2/2
f 149/169/165 3/12/12 13/14/14
f 150/170/166 13/14/14 15/16/16
f 151/172/167 15/17/16 17/19/18
f 152/173/168 17/19/18 19/77/22
f 154/175/170 153/220/169 19/23/22
f 155/176/171 154/175/170 21/25/24
f 156/177/172 155/176/171 23/26/25
f 157/178/173 156/177/172 25/28/27
f 157/178/173 27/30/29 29/32/31
f 159/180/175 158/179/174 29/32/31
f 160/181/176 159/180/175 39/31/30
f 160/181/176 54/43/41 30/65/63
f 28/64/62 162/183/178 161/182/177
f 26/63/61 163/184/179 162/183/178
f 24/62/60 164/185/180 163/184/179
f 22/61/59 165/186/181 164/185/180
f 20/60/58 166/187/182 165/186/181
f 18/98/91 167/188/183 166/187/182
f 16/96/89 168/189/184 167/188/183
f 14/91/84 169/190/185 168/189/184
f 4/71/69 170/191/186 169/190/185
f 170/191/186 4/71/69 1/72/70
f 171/129/126 116/137/132 114/192/187
f 173/128/125 172/127/124 114/192/187
f 174/130/127 173/128/125 115/131/128
f 174/130/127 117/136/131 116/137/132
f 176/2/188 177/12/198 219/1/189
f 218/3/190 217/5/192 180/4/191
f 217/5/192 216/7/194 182/6/193
f 216/7/194 215/9/196 184/8/195
f 215/9/196 214/11/227 186/10/197
f 177/12/198 187/14/200 205/13/199
f 187/14/200 189/16/202 206/15/201
f 189/193/202 191/197/256 207/194/203
f 243/21/204 242/89/268 241/20/205
f 193/23/207 195/25/211 209/24/208
f 197/26/210 210/27/213 209/24/208
f 199/28/212 211/29/215 210/27/213
f 201/30/214 212/41/217 211/29/215
f 201/30/214 203/32/330 213/31/216
f 205/13/199 206/15/201 221/33/218
f 222/34/220 221/33/218 206/15/201
f 223/36/221 222/34/220 207/35/203
f 224/38/222 223/36/221 208/37/209
f 210/27/213 225/39/223 224/38/222
f 211/29/215 226/40/224 225/39/223
f 212/41/217 227/42/246 226/40/224
f 228/43/225 227/42/246 212/41/217
f 276/44/226 229/45/327 214/11/227
f 278/46/229 276/44/226 277/47/228
f 280/48/231 278/46/229 279/49/230
f 280/48/231 281/120/232 283/196/233
f 230/52/235 218/3/190 219/1/189
f 220/53/219 231/99/236 219/1/189
f 271/55/237 270/58/241 269/54/238
f 272/57/240 273/59/379 270/58/241
f 194/60/242 192/98/275 222/34/220
f 224/38/222 196/61/243 194/60/242
f 225/39/223 198/62/331 196/61/243
f 200/63/244 198/62/331 225/39/223
f 202/64/245 200/63/244 226/40/224
f 204/65/247 202/64/245 227/42/246
f 185/66/248 229/45/327 276/44/226
f 285/68/250 284/67/249 276/44/226
f 285/68/250 278/46/229 280/48/231
f 286/69/251 280/48/231 282/51/234
f 230/52/235 231/99/236 178/71/253
f 269/54/238 275/119/438 274/73/255
f 191/197/256 232/203/260 233/198/257
f 233/76/257 234/204/258 208/37/209
f 234/199/258 235/202/259 193/200/207
f 235/202/259 232/203/260 191/197/256
f 232/203/260 236/208/265 237/81/261
f 233/76/257 237/84/267 238/83/262
f 238/205/263 239/206/264 235/202/259
f 239/206/264 236/208/265 232/203/260
f 236/87/265 240/22/206 241/20/205
f 241/20/266 242/89/439 238/83/262
f 242/89/268 243/21/204 239/88/264
f 243/207/204 240/227/206 236/208/265
f 188/91/269 245/93/280 246/92/270
f 247/94/272 244/100/276 220/53/219
f 248/95/273 247/94/272 221/33/218
f 190/96/271 246/92/270 249/97/274
f 192/98/275 249/97/274 248/95/273
f 244/100/276 250/101/277 231/99/236
f 250/101/277 251/102/278 178/71/253
f 251/102/278 245/93/280 188/91/269
f 253/103/279 254/107/283 246/92/270
f 247/94/272 255/105/282 252/104/281
f 248/95/273 256/106/284 255/105/282
f 254/107/283 257/108/291 249/97/274
f 249/97/274 257/108/291 256/106/284
f 244/100/276 252/104/281 258/109/285
f 258/109/285 259/110/286 251/102/278
f 259/110/286 253/103/279 245/93/280
f 261/111/287 262/115/290 254/107/283
f 255/105/282 263/113/289 260/112/288
f 256/106/284 264/114/292 263/113/289
f 262/115/290 265/116/440 257/108/291
f 257/108/291 265/116/440 264/114/292
f 252/104/281 260/112/288 266/117/293
f 266/117/293 267/118/294 259/110/286
f 267/118/294 261/111/287 253/103/279
f 261/111/287 269/54/238 270/58/241
f 325/113/295 326/55/295 327/56/295
f 329/114/296 330/57/296 331/55/296
f 333/115/297 334/58/297 335/59/297
f 338/59/298 339/57/298 340/114/298
f 268/56/239 274/73/255 266/117/293
f 274/73/255 275/119/438 267/118/294
f 267/118/294 275/119/438 269/54/238
f 279/49/230 277/47/228 215/9/196
f 281/120/232 279/49/230 216/7/194
f 230/52/235 282/51/234 283/196/233
f 283/196/233 281/120/232 217/5/192
f 284/67/249 285/68/250 181/122/300
f 181/122/300 285/68/250 286/69/251
f 287/70/252 282/51/234 230/52/235
f 293/123/302 295/125/441 294/124/303
f 179/126/301 307/128/307 306/127/305
f 306/127/305 305/129/306 287/70/252
f 305/129/306 308/130/332 286/69/251
f 286/69/251 308/130/332 307/128/307
f 289/131/308 293/123/302 292/132/304
f 354/209/310 355/212/310 356/139/310
f 294/124/303 295/125/441 291/136/311
f 291/136/311 295/125/441 293/123/302
f 297/139/315 298/212/316 294/124/303
f 292/132/304 299/135/392 296/133/313
f 382/141/318 383/163/326 185/140/248
f 300/145/319 376/144/435 377/161/320
f 302/146/322 304/148/324 131/147/143
f 179/126/301 175/72/254 132/149/145
f 181/122/300 179/126/301 133/150/146
f 135/152/148 183/121/299 181/122/300
f 381/153/149 382/141/318 183/142/299
f 375/155/151 376/144/435 300/145/319
f 304/148/324 302/146/322 137/156/152
f 301/143/321 377/161/320 378/214/325
f 383/163/326 384/224/436 141/162/158
f 229/45/327 185/66/248 141/66/158
f 214/11/227 229/45/327 142/164/160
f 186/10/197 214/11/227 143/165/161
f 184/8/195 186/10/197 144/166/162
f 182/6/193 184/8/195 145/167/163
f 180/4/191 182/6/193 146/215/328
f 176/2/188 180/4/191 147/168/164
f 149/169/165 177/12/198 176/2/188
f 187/14/200 177/12/198 149/169/165
f 189/16/202 187/14/200 150/170/166
f 191/197/256 189/193/202 151/217/167
f 193/200/207 191/197/256 152/218/168
f 154/175/170 195/25/211 193/23/207
f 155/176/171 197/26/210 195/25/211
f 156/177/172 199/28/212 197/26/210
f 157/178/173 201/30/214 199/28/212
f 203/32/330 201/30/214 157/178/173
f 159/180/175 213/31/216 203/32/330
f 160/181/176 228/43/225 213/31/216
f 204/65/247 228/43/225 160/181/176
f 202/64/245 204/65/247 161/182/177
f 200/63/244 202/64/245 162/183/178
f 198/62/331 200/63/244 163/184/179
f 196/61/243 198/62/331 164/185/180
f 194/60/242 196/61/243 165/186/181
f 192/98/275 194/60/242 166/187/182
f 190/96/271 192/98/275 167/188/183
f 188/91/269 190/96/271 168/189/184
f 178/71/253 188/91/269 169/190/185
f 175/72/254 178/71/253 170/191/186
f 288/192/309 290/137/312 305/129/306
f 307/128/307 289/131/308 288/192/309
f 308/130/332 291/136/311 289/131/308
f 290/137/312 291/136/311 308/130/332
f 89/113/333 86/112/442 309/112/334
f 94/56/54 311/56/336 309/112/336
f 97/55/53 312/55/443 311/56/337
f 97/55/338 89/113/338 310/113/338
f 90/114/339 89/113/444 313/113/340
f 97/55/342 315/55/342 313/113/342
f 98/57/55 316/57/445 315/55/343
f 98/57/344 90/114/344 314/114/344
f 88/115/345 91/116/446 318/116/346
f 99/59/348 319/59/348 318/116/348
f 96/58/56 320/58/447 319/59/349
f 96/58/56 88/115/108 317/115/350
f 91/116/351 90/114/448 321/114/352
f 98/57/354 323/57/354 321/114/354
f 99/59/57 324/59/355 323/57/355
f 99/59/356 91/116/356 322/116/356
f 271/55/357 326/55/357 325/113/357
f 271/55/237 268/56/239 327/56/358
f 268/56/239 260/112/288 328/112/360
f 263/113/361 325/113/449 328/112/362
f 272/57/364 330/57/364 329/114/364
f 272/57/240 271/55/237 331/55/365
f 271/55/367 263/113/367 332/113/367
f 264/114/368 329/114/450 332/113/369
f 270/58/241 334/58/371 333/115/371
f 270/58/241 273/59/379 335/59/372
f 273/59/374 265/116/374 336/116/374
f 262/115/375 333/115/451 336/116/376
f 273/59/378 338/59/378 337/116/378
f 273/59/379 272/57/240 339/57/380
f 272/57/381 264/114/381 340/114/381
f 265/116/382 337/116/452 340/114/383
f 358/221/385 357/138/385 359/139/385
f 361/222/130 363/138/130 364/221/130
f 366/135/310 367/223/310 368/211/310
f 370/223/310 371/209/386 372/210/310
f 288/192/309 345/211/314 347/210/387
f 116/137/132 341/138/133 343/222/388
f 118/132/129 344/134/135 342/221/389
f 348/209/317 346/223/391 292/132/304
f 122/133/137 343/222/388 350/222/393
f 344/134/395 351/134/453 350/222/396
f 125/135/136 352/135/135 351/134/135
f 125/135/136 122/133/137 349/133/398
f 348/209/399 354/209/454 353/210/400
f 348/209/317 298/212/316 355/212/402
f 298/212/316 297/139/315 356/139/403
f 347/210/387 353/210/455 356/139/404
f 342/221/405 341/138/456 357/138/406
f 341/138/133 123/139/134 359/139/408
f 124/212/390 360/212/410 359/139/410
f 342/221/389 358/221/457 360/212/411
f 344/134/412 343/222/458 361/222/413
f 343/222/388 341/138/133 363/138/415
f 342/221/417 364/221/459 363/138/418
f 344/134/135 362/134/420 364/221/420
f 299/135/392 366/135/421 365/133/421
f 299/135/392 346/223/391 367/223/422
f 346/223/423 345/211/460 368/211/424
f 296/133/313 365/133/461 368/211/426
f 346/223/427 370/223/462 369/211/428
f 346/223/391 348/209/317 371/209/430
f 348/209/431 347/210/463 372/210/432
f 345/211/314 369/211/464 372/210/434
f 373/161/157 129/158/154 128/146/142
f 375/155/151 374/144/140 128/146/142
f 137/156/152 302/146/322 376/144/435
f 376/144/435 302/146/322 303/158/323
f 377/161/320 303/158/323 139/159/155
f 378/214/325 139/159/155 129/158/154
f 379/163/159 127/143/139 126/145/141
f 381/153/149 380/141/138 126/145/141
f 136/154/150 300/145/319 382/141/318
f 383/163/326 382/141/318 300/145/319
f 383/163/326 301/143/321 140/160/156
f 384/224/436 140/160/156 127/143/139
