# Blender 4.4.3
# www.blender.org
mtllib triangle.mtl
o Pants
v 0.175742 1.261407 0.102675
v 0.175742 1.441293 0.102675
v 0.175742 1.261407 -0.102675
v 0.175742 1.441293 -0.102675
v 0.000000 1.261407 -0.102675
v 0.000000 1.441293 -0.102675
v 0.000000 1.261407 0.102675
v 0.000000 1.441293 0.102675
v 0.268901 0.154482 0.106886
v 0.268901 0.128115 -0.199337
v 0.006830 0.154482 0.106886
v 0.006830 0.128115 -0.199337
v 0.219827 0.745240 0.130472
v 0.219827 0.745240 -0.119485
v 0.005909 0.745240 -0.119485
v 0.005909 0.745240 0.130472
v 0.226181 0.669519 0.132283
v 0.006028 0.669519 -0.124959
v 0.226181 0.669519 -0.124959
v 0.006028 0.669519 0.132283
v -0.175742 1.261407 0.102675
v -0.175742 1.441293 0.102675
v -0.175742 1.261407 -0.102675
v -0.175742 1.441293 -0.102675
v 0.000000 1.261407 -0.102675
v 0.000000 1.441293 -0.102675
v 0.000000 1.261407 0.102675
v 0.000000 1.441293 0.102675
v -0.268901 0.154482 0.106886
v -0.268901 0.128115 -0.199337
v -0.006830 0.154482 0.106886
v -0.006830 0.128115 -0.199337
v -0.219827 0.745240 0.130472
v -0.219827 0.745240 -0.119485
v -0.005909 0.745240 -0.119485
v -0.005909 0.745240 0.130472
v -0.226181 0.669519 0.132283
v -0.006028 0.669519 -0.124959
v -0.226181 0.669519 -0.124959
v -0.006028 0.669519 0.132283
v -0.108941 2.042057 0.108941
v -0.108941 2.259938 0.108941
v -0.108941 2.042057 -0.108941
v -0.108941 2.259938 -0.108941
v 0.108941 2.042057 0.108941
v 0.108941 2.259938 0.108941
v 0.108941 2.042057 -0.108941
v 0.108941 2.259938 -0.108941
v 0.867023 1.917356 0.062235
v 0.910950 1.952615 0.007845
v 0.910950 1.895318 -0.008248
v 0.910950 1.929487 -0.040326
v 0.000000 1.876358 -0.008248
v 0.000000 1.929487 -0.062638
v 0.000000 1.917356 0.062235
v 0.000000 1.970484 0.007845
v 0.599173 1.929487 -0.064729
v 0.583001 1.917356 0.056111
v 0.585267 1.876358 -0.008248
v 0.592287 1.970484 0.007845
v 0.626409 1.929487 -0.062638
v 0.635523 1.917356 0.055462
v 0.634359 1.876358 -0.008248
v 0.631236 1.970484 0.007845
v 0.609813 1.876358 -0.008248
v 0.609813 1.970484 0.007845
v 0.612602 1.929487 -0.064729
v 0.609813 1.917356 0.055904
v -0.867023 1.917356 0.062235
v -0.910950 1.952615 0.007845
v -0.910950 1.895318 -0.008248
v -0.910950 1.929487 -0.040326
v -0.599173 1.929487 -0.064729
v -0.583001 1.917356 0.056111
v -0.585267 1.876358 -0.008248
v -0.592287 1.970484 0.007845
v -0.626409 1.929487 -0.062638
v -0.635523 1.917356 0.055462
v -0.634359 1.876358 -0.008248
v -0.631236 1.970484 0.007845
v -0.609813 1.876358 -0.008248
v -0.609813 1.970484 0.007845
v -0.612602 1.929487 -0.064729
v -0.609813 1.917356 0.055904
v 0.171355 1.865723 -0.106926
v 0.190571 1.277727 0.132518
v 0.190571 1.259312 -0.122518
v 0.171355 1.861178 0.102339
v 0.000000 1.269674 0.136115
v 0.000000 1.834263 0.102339
v 0.000000 1.834263 -0.095275
v 0.000000 1.250943 -0.122518
v 0.165251 1.993602 0.091242
v 0.000000 2.006349 0.091242
v 0.165251 1.992022 -0.071454
v 0.000000 2.008222 -0.076230
v 0.180963 1.609446 0.106995
v 0.160356 1.609446 -0.105425
v 0.000000 1.609446 0.114424
v 0.000000 1.609446 -0.100361
v 0.190571 1.262561 0.001996
v 0.171355 1.834902 -0.010090
v 0.180963 1.609446 -0.004047
v 0.000000 2.007286 0.007506
v 0.165251 1.994875 0.008729
v 0.304812 1.879302 -0.078019
v 0.305083 1.875881 0.073889
v 0.338496 1.971834 0.067411
v 0.337654 1.968853 -0.062329
v 0.303563 1.849448 -0.008214
v 0.339810 1.981749 0.008508
v 0.186491 1.418583 0.118223
v 0.177741 1.407987 -0.115260
v 0.000000 1.413950 0.123448
v 0.000000 1.403172 -0.113110
v 0.186491 1.409857 -0.000570
v -0.171355 1.865723 -0.106926
v -0.190571 1.277727 0.132518
v -0.190571 1.259312 -0.122518
v -0.171355 1.861178 0.102339
v -0.165251 1.993602 0.091242
v -0.165251 1.992022 -0.071454
v -0.180963 1.609446 0.106995
v -0.160356 1.609446 -0.105425
v -0.190571 1.262561 0.001996
v -0.171355 1.834902 -0.010090
v -0.180963 1.609446 -0.004047
v -0.165251 1.994875 0.008729
v -0.304812 1.879302 -0.078019
v -0.305083 1.875881 0.073889
v -0.338496 1.971834 0.067411
v -0.337654 1.968853 -0.062329
v -0.303563 1.849448 -0.008214
v -0.339810 1.981749 0.008508
v -0.186491 1.418583 0.118223
v -0.177741 1.407987 -0.115260
v -0.186491 1.409857 -0.000570
v -0.239937 0.166623 0.092511
v -0.039937 0.166623 0.092511
v -0.239937 0.049060 0.100000
v -0.039937 0.049060 0.100000
v -0.239937 0.110533 0.188509
v -0.195692 0.110206 0.232782
v -0.084182 0.110206 0.232782
v -0.039937 0.110533 0.188509
v -0.239937 0.049060 0.225740
v -0.195692 0.049060 0.270000
v -0.039937 0.049060 0.225740
v -0.084182 0.049060 0.270000
v -0.202033 0.159074 -0.191412
v -0.239937 0.166623 -0.153507
v -0.039937 0.166623 -0.153507
v -0.077841 0.159074 -0.191412
v -0.239937 0.049060 -0.146018
v -0.202033 0.049060 -0.183922
v -0.077841 0.049060 -0.183922
v -0.039937 0.049060 -0.146018
v -0.139937 0.110206 0.232782
v -0.139937 0.049060 -0.183922
v -0.139937 0.159074 -0.191412
v -0.217815 0.138415 0.162647
v -0.062059 0.138415 0.162647
v -0.194706 0.166623 -0.183366
v -0.084874 0.166623 -0.177104
v -0.140550 0.159074 -0.132540
v -0.194706 0.166623 -0.183366
v -0.035930 0.046089 0.099047
v -0.035930 0.005182 0.099047
v -0.075353 0.005182 -0.196252
v -0.139937 0.005182 -0.196252
v -0.243944 0.005182 0.099047
v -0.243944 0.046089 0.099047
v -0.243944 0.046089 0.229825
v -0.197926 0.046089 0.275858
v -0.035930 0.046089 0.229825
v -0.081948 0.046089 0.275858
v -0.081948 0.005182 0.275858
v -0.035930 0.005182 0.229825
v -0.243944 0.005182 0.229825
v -0.197926 0.005182 0.275858
v -0.139937 0.005182 0.275858
v -0.243944 0.046089 -0.156829
v -0.204521 0.046089 -0.196252
v -0.204521 0.005182 -0.196252
v -0.243944 0.005182 -0.156829
v -0.075353 0.046089 -0.196252
v -0.035930 0.046089 -0.156829
v -0.035930 0.005182 -0.156829
v -0.139937 0.046089 -0.196252
v 0.040000 0.166623 0.092511
v 0.240000 0.166623 0.092511
v 0.040000 0.049060 0.100000
v 0.240000 0.049060 0.100000
v 0.040000 0.110533 0.188509
v 0.240000 0.110533 0.188509
v 0.040000 0.049060 0.225740
v 0.084245 0.049060 0.270000
v 0.240000 0.049060 0.225740
v 0.195755 0.049060 0.270000
v 0.077904 0.159074 -0.191412
v 0.040000 0.166623 -0.153507
v 0.240000 0.166623 -0.153507
v 0.202096 0.159074 -0.191412
v 0.040000 0.049060 -0.146018
v 0.077904 0.049060 -0.183922
v 0.202096 0.049060 -0.183922
v 0.240000 0.049060 -0.146018
v 0.140000 0.049060 0.270000
v 0.140000 0.049060 -0.183922
v 0.140000 0.159074 -0.191412
v 0.140000 0.166324 0.092732
v 0.085231 0.166623 -0.183366
v 0.195064 0.166623 -0.177104
v 0.139387 0.159074 -0.132540
v 0.085231 0.166623 -0.183366
v 0.244007 0.046089 0.099047
v 0.244007 0.005182 0.099047
v 0.204584 0.005182 -0.196252
v 0.140000 0.005182 -0.196252
v 0.035993 0.005182 0.099047
v 0.035993 0.046089 0.099047
v 0.035993 0.046089 0.229825
v 0.082011 0.046089 0.275858
v 0.244007 0.046089 0.229825
v 0.197989 0.046089 0.275858
v 0.197989 0.005182 0.275858
v 0.244007 0.005182 0.229825
v 0.035993 0.005182 0.229825
v 0.082011 0.005182 0.275858
v 0.140000 0.005182 0.275858
v 0.035993 0.046089 -0.156829
v 0.075416 0.046089 -0.196252
v 0.075416 0.005182 -0.196252
v 0.035993 0.005182 -0.156829
v 0.204584 0.046089 -0.196252
v 0.244007 0.046089 -0.156829
v 0.244007 0.005182 -0.156829
v 0.140000 0.046089 -0.196252
v 0.040000 0.049060 0.225740
v 0.084245 0.049060 0.270000
v 0.084245 0.110206 0.232782
v 0.040000 0.110533 0.188509
v 0.240000 0.049060 0.225740
v 0.195755 0.049060 0.270000
v 0.240000 0.110533 0.188509
v 0.195755 0.110206 0.232782
v 0.140000 0.049060 0.270000
v 0.040000 0.166623 0.092511
v 0.140000 0.110206 0.232782
v 0.240000 0.166623 0.092511
v 0.062122 0.138415 0.162647
v 0.217878 0.138415 0.162647
v 0.140000 0.166324 0.092732
v 0.000000 1.441293 -0.102675
v 0.175742 1.441293 -0.102675
v 0.175742 1.441293 0.102675
v 0.000000 1.441293 0.102675
v 0.000000 1.261407 -0.102675
v 0.000000 1.261407 0.102675
v 0.268901 0.154482 0.106886
v 0.268901 0.128115 -0.199337
v 0.006830 0.154482 0.106886
v 0.006830 0.128115 -0.199337
v 0.000000 1.441293 -0.102675
v -0.175742 1.441293 -0.102675
v -0.175742 1.441293 0.102675
v 0.000000 1.441293 0.102675
v 0.000000 1.261407 -0.102675
v 0.000000 1.261407 0.102675
v -0.268901 0.154482 0.106886
v -0.268901 0.128115 -0.199337
v -0.006830 0.154482 0.106886
v -0.006830 0.128115 -0.199337
v 0.190571 1.262561 0.001996
v 0.190571 1.259312 -0.122518
v 0.000000 1.269674 0.136115
v 0.190571 1.277727 0.132518
v 0.000000 1.250943 -0.122518
v 0.303563 1.849448 -0.008214
v 0.305083 1.875881 0.073889
v 0.338496 1.971834 0.067411
v 0.339810 1.981749 0.008508
v 0.337654 1.968853 -0.062329
v 0.304812 1.879302 -0.078019
v -0.190571 1.262561 0.001996
v -0.190571 1.259312 -0.122518
v -0.190571 1.277727 0.132518
v -0.303563 1.849448 -0.008214
v -0.305083 1.875881 0.073889
v -0.338496 1.971834 0.067411
v -0.339810 1.981749 0.008508
v -0.337654 1.968853 -0.062329
v -0.304812 1.879302 -0.078019
v -0.139937 0.110206 0.232782
v -0.195692 0.110206 0.232782
v -0.039937 0.166623 0.092511
v -0.039937 0.166623 -0.153507
v -0.239937 0.166623 -0.153507
v -0.239937 0.166623 0.092511
v -0.084182 0.110206 0.232782
v 0.040000 0.166623 0.092511
v 0.240000 0.166623 0.092511
v 0.084245 0.110206 0.232782
v 0.195755 0.110206 0.232782
v -0.140550 0.159074 -0.132540
v 0.240000 0.166623 0.092511
v 0.240000 0.166623 -0.153507
v 0.040000 0.166623 -0.153507
v 0.040000 0.166623 0.092511
v 0.140000 0.166324 0.092732
v 0.139387 0.159074 -0.132540
v 0.140000 0.110206 0.232782
v 0.140000 0.166324 0.092732
vn -0.0000 -0.0000 -1.0000
vn 1.0000 -0.0000 -0.0000
vn -0.0000 -0.0000 1.0000
vn -0.0000 0.0326 -0.9995
vn -0.0000 0.0538 0.9986
vn -0.9999 -0.0114 -0.0000
vn 0.9964 0.0851 -0.0000
vn -0.0000 0.0721 -0.9974
vn -0.0000 0.0239 0.9997
vn -1.0000 -0.0016 -0.0000
vn 0.9965 0.0836 -0.0000
vn -1.0000 -0.0000 -0.0000
vn 0.9968 0.0796 -0.0069
vn 1.0000 -0.0016 -0.0000
vn -0.0000 0.1361 -0.9907
vn -1.0000 -0.0015 0.0001
vn -0.0000 -0.0493 0.9988
vn -0.9968 0.0796 -0.0069
vn 0.9999 -0.0114 -0.0000
vn -0.9964 0.0851 -0.0000
vn -0.9965 0.0836 -0.0000
vn -0.0000 -1.0000 -0.0000
vn -0.0000 1.0000 -0.0000
vn 0.0469 -0.6837 -0.7283
vn 0.8155 -0.1565 0.5572
vn -0.0158 -0.8407 0.5413
vn -0.0017 0.8706 -0.4920
vn 0.0073 0.7153 0.6987
vn 0.0057 0.6719 0.7406
vn -0.0000 0.8707 -0.4919
vn 0.0053 -0.8644 0.5028
vn -0.0000 -0.7154 -0.6988
vn 0.0575 0.9000 -0.4321
vn -0.0218 0.6663 0.7454
vn -0.0000 -0.8426 0.5385
vn -0.0000 -0.7284 -0.6852
vn 0.0042 -0.8433 0.5374
vn -0.0000 0.8644 -0.5028
vn 0.0128 0.6679 0.7441
vn -0.0550 -0.7102 -0.7018
vn -0.0645 -0.9403 0.3342
vn 0.0017 0.8706 -0.4920
vn -0.0000 0.6724 0.7402
vn -0.0000 0.6708 0.7416
vn -0.0000 -0.8434 0.5373
vn -0.0396 0.8625 -0.5044
vn -0.0523 0.8182 0.5726
vn -0.1028 -0.7271 -0.6788
vn -0.0740 0.8695 -0.4884
vn -0.0128 0.6679 0.7441
vn 0.0410 0.0536 0.9977
vn 0.9967 0.0263 -0.0765
vn -0.0137 0.0617 -0.9980
vn -0.0101 0.0643 0.9979
vn 0.0972 0.9952 0.0111
vn -0.0872 0.1084 -0.9903
vn -0.0673 -0.0030 -0.9977
vn 0.9990 -0.0430 -0.0137
vn 0.0410 0.0461 0.9981
vn 0.9992 0.0380 -0.0089
vn 0.9996 0.0287 -0.0021
vn 0.0748 0.9971 0.0112
vn 0.0741 0.9831 0.1671
vn 0.1536 -0.9622 0.2249
vn 0.1385 0.0186 0.9902
vn 0.1769 0.2741 -0.9453
vn 0.1062 -0.9149 -0.3894
vn 0.1349 0.9902 -0.0352
vn 0.9996 0.0277 -0.0000
vn 0.0151 0.0875 0.9961
vn -0.0315 0.0617 -0.9976
vn 0.9797 0.0237 -0.1991
vn -0.0410 0.0536 0.9977
vn -0.9967 0.0263 -0.0765
vn 0.0021 0.0486 -0.9988
vn 0.0101 0.0643 0.9979
vn -0.0751 0.9965 -0.0355
vn 0.0872 0.1084 -0.9903
vn 0.0673 -0.0030 -0.9977
vn -0.9793 0.0364 -0.1991
vn -0.0265 0.0595 0.9979
vn -0.9992 0.0380 -0.0089
vn -0.9996 0.0287 -0.0021
vn -0.0769 0.9969 0.0154
vn -0.1267 0.9918 0.0153
vn -0.1536 -0.9622 0.2249
vn -0.1977 0.0909 0.9760
vn -0.1769 0.2741 -0.9453
vn -0.1605 -0.9405 -0.2994
vn -0.1349 0.9902 -0.0352
vn -0.9996 0.0288 -0.0021
vn -0.0151 0.0875 0.9961
vn 0.0134 0.0476 -0.9988
vn -0.9797 0.0237 -0.1991
vn -0.0000 -0.0679 -0.9977
vn -0.0000 0.9722 -0.2342
vn 0.1929 0.9621 -0.1929
vn -0.6496 0.3953 0.6494
vn 0.3259 0.8875 0.3258
vn 0.6486 0.3943 0.6511
vn -0.5956 0.8033 -0.0000
vn -0.7108 -0.0447 -0.7019
vn 0.7108 -0.0447 -0.7019
vn 0.4461 0.7728 0.4515
vn -0.4461 0.7728 0.4515
vn -0.0000 0.8844 -0.4667
vn -0.0000 0.7292 -0.6843
vn 0.1990 0.9037 -0.3790
vn -0.3166 0.8184 -0.4796
vn -0.1355 0.9908 -0.0014
vn 0.1368 0.9906 0.0014
vn 0.7072 -0.0000 0.7070
vn -0.7072 -0.0000 0.7070
vn -0.0000 0.8919 0.4523
vn -0.7071 -0.0000 -0.7071
vn 0.7071 -0.0000 -0.7071
vn 0.5956 0.8033 -0.0000
vn -0.3259 0.8875 0.3258
vn -0.0000 0.5199 0.8542
vn -0.1929 0.9621 -0.1929
vn -0.0000 0.9278 0.3731
vn 0.9966 0.0827 -0.0000
vn 1.0000 -0.0015 0.0001
vn -0.9966 0.0827 -0.0000
vn 0.0550 -0.7102 -0.7018
vn 0.0645 -0.9403 0.3342
vn -0.0024 -0.7281 -0.6855
vn 0.0396 0.8625 -0.5044
vn 0.0523 0.8182 0.5726
vn 0.0093 -0.8410 0.5410
vn 0.1028 -0.7271 -0.6788
vn 0.0740 0.8695 -0.4884
vn -0.0469 -0.6837 -0.7283
vn -0.8155 -0.1565 0.5572
vn 0.0158 -0.8407 0.5413
vn -0.0073 0.7153 0.6987
vn -0.0057 0.6719 0.7406
vn -0.0053 -0.8644 0.5028
vn 0.0024 -0.7281 -0.6855
vn -0.0575 0.9000 -0.4321
vn 0.0218 0.6663 0.7454
vn -0.0093 -0.8410 0.5410
vn -0.0042 -0.8433 0.5374
vn -0.0029 0.0184 0.9998
vn 0.9963 0.0861 -0.0022
vn -0.0021 0.0486 -0.9988
vn 0.0065 0.0838 0.9965
vn 0.0751 0.9965 -0.0355
vn 0.0545 0.2724 -0.9606
vn -0.0316 0.0226 -0.9992
vn 0.9793 0.0364 -0.1991
vn 0.0265 0.0595 0.9979
vn 0.9991 0.0426 -0.0000
vn 0.9996 0.0276 -0.0032
vn 0.0769 0.9969 0.0154
vn 0.1267 0.9918 0.0153
vn 0.1000 -0.9477 0.3032
vn 0.1977 0.0909 0.9760
vn 0.0719 0.1465 -0.9866
vn 0.1605 -0.9405 -0.2994
vn 0.0735 0.9808 -0.1808
vn 0.9996 0.0288 -0.0021
vn 0.0253 0.1017 0.9945
vn -0.0134 0.0476 -0.9988
vn 0.9930 0.0895 -0.0772
vn 0.0029 0.0184 0.9998
vn -0.9963 0.0861 -0.0022
vn 0.0137 0.0617 -0.9980
vn -0.0065 0.0838 0.9965
vn -0.0972 0.9952 0.0111
vn -0.0545 0.2724 -0.9606
vn 0.0316 0.0226 -0.9992
vn -0.9990 -0.0430 -0.0137
vn -0.0410 0.0461 0.9981
vn -0.9991 0.0426 -0.0000
vn -0.9996 0.0276 -0.0032
vn -0.0748 0.9971 0.0112
vn -0.0741 0.9831 0.1671
vn -0.1000 -0.9477 0.3032
vn -0.1385 0.0186 0.9902
vn -0.0719 0.1465 -0.9866
vn -0.1062 -0.9149 -0.3894
vn -0.0735 0.9808 -0.1808
vn -0.9996 0.0277 -0.0000
vn -0.0253 0.1017 0.9945
vn 0.0315 0.0617 -0.9976
vn -0.9930 0.0895 -0.0772
vn -0.6486 0.3943 0.6511
vn 0.6496 0.3953 0.6494
vn -0.7063 -0.0481 -0.7063
vn 0.7063 -0.0481 -0.7063
vn -0.0534 0.9934 0.1016
vn 0.0573 0.9946 0.0867
vt 0.026924 0.043738
vt 0.145868 0.166735
vt 0.026190 0.166016
vt 0.031222 0.039087
vt 0.179667 0.156690
vt 0.037347 0.163689
vt 0.068091 0.044453
vt 0.193573 0.171315
vt 0.068878 0.172084
vt 0.028102 0.517595
vt 0.191640 0.537708
vt 0.039859 0.538644
vt 0.051006 0.137330
vt 0.184268 0.494092
vt 0.014940 0.485734
vt 0.043339 0.522821
vt 0.173778 0.518470
vt 0.027873 0.569292
vt 0.191887 0.591443
vt 0.035682 0.592407
vt 0.011184 0.536938
vt 0.220418 0.566839
vt 0.042133 0.575606
vt 0.075272 0.165399
vt 0.193804 0.042827
vt 0.194536 0.164683
vt 0.025911 0.079227
vt 0.120299 0.004450
vt 0.116404 0.083678
vt 0.027151 0.173102
vt 0.152890 0.045981
vt 0.152100 0.173873
vt 0.220418 0.925449
vt 0.009085 0.954149
vt 0.206048 0.862492
vt 0.037429 0.532601
vt 0.206048 0.524278
vt 0.194536 0.936359
vt 0.043455 0.567463
vt 0.192859 0.566566
vt 0.011184 0.886471
vt 0.185447 0.545539
vt 0.217747 0.914562
vt 0.027152 0.960135
vt 0.185365 0.595055
vt 0.213479 0.961285
vt 0.193573 0.956743
vt 0.007625 0.957890
vt 0.000000 0.568038
vt 0.113361 0.345592
vt 0.134375 0.586287
vt 0.026190 0.940367
vt 0.177795 0.570192
vt 0.204658 0.941439
vt 0.192631 0.515047
vt 0.029088 0.540244
vt 0.167515 0.137611
vt 0.038569 0.482820
vt 0.032911 0.144255
vt 0.112595 0.312030
vt 0.047458 0.515919
vt 0.181179 0.541182
vt 0.028840 0.594089
vt 0.202413 0.474732
vt -0.000000 0.340018
vt 0.002444 0.306613
vt 0.597410 0.789618
vt 0.511612 0.875430
vt 0.511607 0.789618
vt 0.170941 0.903318
vt 0.256664 0.817506
vt 0.256664 0.903318
vt 0.085803 0.817506
vt 0.000000 0.903323
vt 0.000000 0.817511
vt 0.597415 0.972543
vt 0.678750 0.886730
vt 0.678750 0.972543
vt 0.594121 0.961242
vt 0.511607 0.875430
vt 0.594121 0.875430
vt 0.085803 0.817506
vt 0.170941 0.903920
vt 0.085803 0.903008
vt 0.983653 0.108935
vt 0.963327 -0.000000
vt 0.976193 -0.000000
vt 0.223797 0.932545
vt 0.204249 0.919615
vt 0.223797 0.903319
vt 0.906287 0.608616
vt 0.875161 0.700251
vt 0.877726 0.609075
vt 0.907104 0.357951
vt 0.936665 0.589311
vt 0.906287 0.593071
vt 0.962558 0.588389
vt 0.936665 0.358775
vt 0.963327 0.358775
vt 0.962532 0.598949
vt 0.936665 0.592046
vt 0.936665 0.596189
vt 0.906287 0.598341
vt 0.906287 0.358775
vt 0.877480 0.588389
vt 0.875161 0.358775
vt 0.963729 0.358775
vt 0.983653 0.128269
vt 0.983653 0.358775
vt 0.915823 0.715522
vt 0.936665 0.604596
vt 0.935785 0.714955
vt 0.963327 0.700251
vt 0.936665 0.607386
vt 0.962477 0.609075
vt 0.877558 0.598949
vt 0.906287 0.598949
vt 0.983653 0.118602
vt 0.963729 0.112066
vt 0.963767 0.122792
vt 0.906287 0.589282
vt 0.907104 0.603768
vt 0.983652 0.608616
vt 0.963327 0.717551
vt 0.963729 0.605485
vt 0.223797 0.932545
vt 0.243344 0.919615
vt 0.240470 0.940462
vt 0.906287 0.108935
vt 0.875161 0.017300
vt 0.904236 -0.000000
vt 0.936665 0.124457
vt 0.906287 0.122813
vt 0.962558 0.129162
vt 0.936665 0.125505
vt 0.962532 0.118602
vt 0.936665 0.118602
vt 0.936665 0.117580
vt 0.906287 0.117543
vt 0.877480 0.129162
vt 0.906287 0.128269
vt 0.983652 0.589282
vt 0.915823 0.000566
vt 0.936665 0.109173
vt 0.907104 0.112133
vt 0.963327 0.017300
vt 0.936665 0.110165
vt 0.943336 0.000000
vt 0.877558 0.118602
vt 0.906287 0.118602
vt 0.983652 0.598949
vt 0.963767 0.600047
vt 0.963767 0.594758
vt 0.962477 0.108476
vt 0.496793 0.775256
vt 0.390356 0.896273
vt 0.395803 0.770619
vt 0.774043 0.808821
vt 0.726417 0.752685
vt 0.771541 0.750836
vt 0.503191 0.545593
vt 0.422848 0.610529
vt 0.425745 0.544203
vt 0.485344 0.915412
vt 0.386184 0.992519
vt 0.619978 0.428644
vt 0.585573 0.500651
vt 0.583501 0.428661
vt 0.437260 0.280605
vt 0.509085 0.346926
vt 0.433933 0.356769
vt 0.499454 0.457604
vt 0.475333 0.445000
vt 0.433393 0.543164
vt 0.433393 0.431496
vt 0.428113 0.533506
vt 0.348407 0.439229
vt 0.432033 0.443069
vt 0.652578 0.375813
vt 0.603873 0.268770
vt 0.656442 0.259323
vt 0.656442 0.529735
vt 0.598115 0.465486
vt 0.653204 0.464294
vt 0.656455 0.428627
vt 0.620511 0.500635
vt 0.646051 0.576098
vt 0.620416 0.576682
vt 0.595780 0.595484
vt 0.638227 0.533621
vt 0.649161 0.595484
vt 0.363370 0.261891
vt 0.296412 0.312890
vt 0.282896 0.267774
vt 0.508886 0.290548
vt 0.567483 0.342295
vt 0.672598 0.634823
vt 0.638180 0.576682
vt 0.671204 0.577226
vt 0.589523 0.575757
vt 0.601279 0.373161
vt 0.337302 0.592784
vt 0.425212 0.600421
vt 0.429671 0.454329
vt 0.728266 0.673175
vt 0.768150 0.672266
vt 0.294791 0.766499
vt 0.709257 0.480020
vt 0.656454 0.542182
vt 0.659186 0.478041
vt 0.348473 0.538835
vt 0.340063 0.603283
vt 0.294068 0.907120
vt 0.585507 0.356668
vt 0.620445 0.356652
vt 0.359925 0.340411
vt 0.359869 0.451506
vt 0.668121 0.292923
vt 0.707685 0.391961
vt 0.662886 0.391127
vt 0.515678 0.446481
vt 0.514402 0.534954
vt 0.709011 0.268770
vt 0.660306 0.375813
vt 0.714769 0.465486
vt 0.656442 0.529735
vt 0.659680 0.464294
vt 0.656388 0.356635
vt 0.645916 0.281166
vt 0.606715 0.595484
vt 0.649161 0.657347
vt 0.595780 0.657347
vt 0.516118 0.268513
vt 0.578411 0.325115
vt 0.516277 0.330038
vt 0.302153 0.330705
vt 0.365039 0.284264
vt 0.289583 0.668670
vt 0.324001 0.610529
vt 0.333820 0.668670
vt 0.589388 0.281559
vt 0.513453 0.600421
vt 0.407297 0.843663
vt 0.453594 0.749723
vt 0.453594 0.846616
vt 0.429385 0.881473
vt 0.206429 0.789938
vt 0.249577 0.765482
vt 0.249577 0.789938
vt 0.206429 0.814395
vt 0.249577 0.814395
vt 0.613760 0.702963
vt 0.638227 0.707666
vt 0.612884 0.707937
vt 0.314703 0.846615
vt 0.338911 0.881473
vt 0.314703 0.896137
vt 0.314703 0.749723
vt 0.361000 0.843663
vt 0.662493 0.702441
vt 0.679039 0.691823
vt 0.663570 0.707394
vt 0.706839 0.948074
vt 0.684898 0.965500
vt 0.679340 0.948074
vt 0.660005 0.525085
vt 0.679039 0.540727
vt 0.677367 0.542195
vt 0.706839 0.904156
vt 0.684898 0.886730
vt 0.712520 0.886730
vt 0.598887 0.543036
vt 0.597415 0.592707
vt 0.597415 0.541602
vt 0.638127 0.702702
vt 0.410050 0.731902
vt 0.407297 0.746770
vt 0.358246 0.731902
vt 0.361000 0.746770
vt 0.976183 0.781134
vt 0.958899 0.798300
vt 0.950167 0.788585
vt 0.924150 0.796036
vt 0.726175 0.956787
vt 0.712520 0.965500
vt 0.745512 0.965500
vt 0.505606 0.739173
vt 0.511569 0.760590
vt 0.505606 0.763540
vt 0.505606 0.714805
vt 0.509122 0.717463
vt 0.520790 0.778323
vt 0.520790 0.699838
vt 0.528611 0.739178
vt 0.505606 0.450821
vt 0.521873 0.350070
vt 0.521716 0.450845
vt 0.924860 0.945448
vt 0.940955 0.920012
vt 0.940955 0.945448
vt 0.505687 0.520579
vt 0.521716 0.469048
vt 0.521796 0.520554
vt 0.505844 0.298539
vt 0.521954 0.298563
vt 0.924860 0.920012
vt 0.940955 0.894576
vt 0.505606 0.280336
vt 0.521954 0.450845
vt 0.505606 0.469072
vt 0.505844 0.450869
vt 0.616248 0.525554
vt 0.660982 0.522932
vt 0.924151 0.960975
vt 0.940245 0.879049
vt 0.924860 0.894576
vt 0.924151 0.879049
vt 0.505844 0.621354
vt 0.249577 0.765482
vt 0.264848 0.811160
vt 0.249577 0.811160
vt 0.679039 0.591832
vt 0.677367 0.591331
vt 0.615472 0.523419
vt 0.679340 0.904156
vt 0.677367 0.687469
vt 0.597415 0.692697
vt 0.598887 0.688310
vt 0.598887 0.592172
vt 0.361000 0.843663
vt 0.407297 0.749723
vt 0.407297 0.846615
vt 0.834498 0.865099
vt 0.834498 0.908980
vt 0.834498 0.949018
vt 0.905879 0.943629
vt 0.950204 0.865099
vt 0.905879 0.865099
vt 0.861555 0.943629
vt 0.861555 0.865099
vt 0.905879 0.862979
vt 0.859779 0.862979
vt 0.977261 0.865099
vt 0.977261 0.908980
vt 0.977261 0.949018
vt 0.980121 0.862979
vt 0.951980 0.862979
vt 0.945678 0.865099
vt 0.980121 0.862979
vt 0.680512 0.543036
vt 0.679039 0.592707
vt 0.679039 0.541602
vt 0.834498 0.949018
vt 0.950204 0.943629
vt 0.977261 0.949018
vt 0.206429 0.298487
vt 0.905879 0.948804
vt 0.866080 0.865099
vt 0.945185 0.949018
vt 0.866784 0.949018
vt 0.505606 0.636320
vt 0.520790 0.621354
vt 0.509122 0.638978
vt 0.905442 0.943629
vt 0.980121 0.833779
vt 0.905879 0.833779
vt 0.859779 0.833779
vt 0.983733 0.069734
vt 0.999762 0.018203
vt 0.999843 0.069709
vt 0.951980 0.833779
vt 0.947273 0.862979
vt 0.864486 0.862979
vt 0.831638 0.833779
vt 0.864486 0.833779
vt 0.831638 0.862979
vt 0.983890 0.170509
vt 0.980121 0.862979
vt 0.831638 0.862979
vt 0.680512 0.688310
vt 0.680512 0.592172
vt 0.720303 0.707937
vt 0.761266 0.774897
vt 0.720303 0.886730
vt 0.866080 0.908747
vt 0.945678 0.908747
vt 0.961470 0.928882
vt 0.850289 0.928882
vt 0.762937 0.886730
vt 0.762937 0.919722
vt 0.754224 0.906066
vt 0.924150 0.717551
vt 0.950167 0.727463
vt 0.976183 0.737374
vt 0.997891 0.940351
vt 0.810821 0.940351
vt 0.810821 0.921531
vt 0.997891 0.921531
vt 0.947273 0.833779
vt 0.146603 0.044456
vt 0.173542 0.032088
vt 0.192785 0.043683
vt 0.190115 0.144197
vt 0.216575 0.514302
vt 0.074540 0.043544
vt 0.029806 -0.000000
vt 0.027941 0.045210
vt 0.006175 0.889674
vt 0.016685 0.937428
vt 0.597415 0.875430
vt 0.170941 0.817506
vt 0.085803 0.903318
vt 0.597415 0.886730
vt 0.511607 0.961242
vt 0.170941 0.818418
vt 0.207123 0.940462
vt 0.904236 0.717551
vt 0.936665 0.356884
vt 0.936665 0.598949
vt 0.943336 0.717551
vt 0.963767 0.117504
vt 0.976193 0.717551
vt 0.223797 0.903319
vt 0.877726 0.108476
vt 0.935785 -0.000000
vt 0.725053 0.811363
vt 0.505949 0.610529
vt 0.478723 0.989417
vt 0.478253 0.543205
vt 0.342022 0.527482
vt 0.595780 0.533621
vt 0.656455 0.500619
vt 0.598372 0.534324
vt 0.357887 0.323172
vt 0.583501 0.303449
vt 0.628361 0.634823
vt 0.710417 0.545007
vt 0.294260 0.981420
vt 0.710417 0.280605
vt 0.711605 0.373161
vt 0.717104 0.533621
vt 0.620280 0.280605
vt 0.646570 0.596187
vt 0.595780 0.281338
vt 0.289583 0.290610
vt 0.290977 0.611073
vt 0.453594 0.896137
vt 0.206429 0.765482
vt 0.453374 0.734854
vt 0.314922 0.734854
vt 0.505764 0.350046
vt 0.521716 0.280361
vt 0.940245 0.960975
vt 0.521954 0.621330
vt 0.264848 0.765482
vt 0.983653 0.018227
vt 1.000000 0.170484
vt 0.679039 0.692697
vt 0.694867 0.886730
vt 0.679340 0.871800
vt 0.679340 0.774897
vt 0.679340 0.725370
vt 0.697464 0.707937
vt 0.761266 0.871800
vt 0.745740 0.886730
vt 0.743142 0.707937
vt 0.761266 0.725370
s 0
usemtl Full
f 254/1/1 3/2/1 258/3/1
f 255/4/2 1/5/2 3/6/2
f 256/7/3 259/8/3 1/9/3
f 3/2/4 15/10/4 258/3/4
f 1/9/5 16/11/5 13/12/5
f 259/13/6 15/14/6 16/15/6
f 1/5/7 14/16/7 3/6/7
f 14/17/8 18/18/8 15/10/8
f 13/12/9 20/19/9 17/20/9
f 15/14/10 20/21/10 16/15/10
f 14/16/11 17/22/11 19/23/11
f 23/24/1 264/25/1 268/26/1
f 21/27/12 265/28/12 23/29/12
f 269/30/3 266/31/3 21/32/3
f 19/23/13 260/33/13 261/34/13
f 272/35/14 38/36/14 40/37/14
f 273/38/15 39/39/15 38/40/15
f 262/41/16 18/42/16 263/43/16
f 272/44/17 37/45/17 270/46/17
f 17/20/17 262/47/17 260/48/17
f 270/49/18 39/50/18 271/51/18
f 263/52/15 19/53/15 261/54/15
f 35/55/4 23/24/4 268/26/4
f 21/32/5 36/56/5 269/30/5
f 269/57/19 35/58/19 268/59/19
f 34/60/20 21/27/20 23/29/20
f 38/40/8 34/61/8 35/55/8
f 33/62/9 40/63/9 36/56/9
f 40/37/14 35/58/14 36/64/14
f 34/60/21 37/65/21 33/66/21
f 63/85/24 52/86/24 51/87/24
f 51/88/25 50/89/25 49/90/25
f 63/91/26 49/92/26 62/93/26
f 54/94/27 60/95/27 57/96/27
f 58/97/28 56/98/28 55/99/28
f 68/100/29 60/101/29 58/97/29
f 57/96/30 66/102/30 67/103/30
f 53/104/31 58/105/31 55/106/31
f 54/107/32 59/108/32 53/109/32
f 52/110/33 64/111/33 50/112/33
f 49/113/34 64/114/34 62/115/34
f 63/91/35 68/116/35 65/117/35
f 65/118/32 61/119/32 63/85/32
f 57/120/36 65/118/36 59/108/36
f 59/121/37 68/116/37 58/105/37
f 61/122/38 66/102/38 64/111/38
f 64/114/39 68/100/39 62/115/39
f 79/123/40 72/124/40 77/125/40
f 71/126/12 70/127/12 72/128/12
f 79/129/41 69/130/41 71/131/41
f 76/132/42 54/94/42 73/133/42
f 74/134/43 56/98/43 76/135/43
f 84/136/44 76/135/44 82/137/44
f 82/138/30 73/133/30 83/139/30
f 53/104/45 74/140/45 75/141/45
f 75/142/32 54/107/32 53/109/32
f 72/143/46 80/144/46 77/145/46
f 69/146/47 80/147/47 70/148/47
f 84/149/35 79/129/35 81/150/35
f 81/151/48 77/125/48 83/152/48
f 81/151/36 73/153/36 75/142/36
f 75/141/35 84/149/35 81/150/35
f 77/145/49 82/138/49 83/139/49
f 84/136/50 80/147/50 78/154/50
f 97/155/51 90/156/51 99/157/51
f 274/158/52 113/159/52 116/160/52
f 113/161/53 278/162/53 115/163/53
f 88/164/54 94/165/54 90/156/54
f 104/166/55 95/167/55 96/168/55
f 96/169/56 85/170/56 91/171/56
f 98/172/57 91/171/57 85/170/57
f 102/173/58 98/174/58 85/175/58
f 114/176/59 97/177/59 99/178/59
f 97/179/60 102/180/60 88/181/60
f 277/182/61 116/183/61 112/184/61
f 94/185/62 105/186/62 104/166/62
f 105/186/63 281/187/63 282/188/63
f 102/189/64 280/190/64 88/191/64
f 93/192/65 280/193/65 281/194/65
f 95/195/66 284/196/66 85/170/66
f 102/197/67 284/198/67 279/199/67
f 105/186/68 283/200/68 95/167/68
f 97/179/69 116/183/69 103/201/69
f 277/202/70 114/176/70 276/203/70
f 98/172/71 115/163/71 100/204/71
f 116/160/72 98/205/72 103/206/72
f 90/156/73 123/207/73 99/157/73
f 136/208/74 285/209/74 137/210/74
f 136/211/75 278/162/75 286/212/75
f 94/165/76 120/213/76 90/156/76
f 104/166/77 122/214/77 128/215/77
f 117/216/78 96/169/78 91/171/78
f 91/171/79 124/217/79 117/216/79
f 126/218/80 124/219/80 127/220/80
f 114/176/81 123/221/81 135/222/81
f 126/223/82 123/224/82 120/181/82
f 137/225/83 287/226/83 135/227/83
f 94/185/84 128/215/84 121/228/84
f 128/215/85 290/229/85 121/228/85
f 289/230/86 126/231/86 120/232/86
f 121/233/87 289/234/87 120/235/87
f 293/236/88 122/237/88 117/216/88
f 126/238/89 293/239/89 117/240/89
f 292/241/90 128/215/90 122/214/90
f 123/224/91 137/225/91 135/227/91
f 114/176/92 287/242/92 276/203/92
f 124/217/93 115/163/93 136/211/93
f 124/219/94 137/210/94 127/220/94
f 299/243/12 154/244/12 140/245/12
f 140/245/12 142/246/12 299/243/12
f 160/247/95 156/248/95 159/249/95
f 150/250/95 159/249/95 155/251/95
f 155/252/96 189/253/96 183/254/96
f 141/255/2 145/256/2 148/257/2
f 157/258/2 296/259/2 141/255/2
f 156/260/97 187/261/97 186/262/97
f 295/263/98 146/264/98 147/265/98
f 149/266/99 175/267/99 148/268/99
f 300/269/100 148/270/100 145/271/100
f 146/272/101 172/273/101 173/274/101
f 156/260/96 189/253/96 159/275/96
f 150/276/102 154/244/102 298/277/102
f 157/258/103 153/278/103 297/279/103
f 300/280/104 145/281/104 162/282/104
f 296/283/104 162/282/104 145/281/104
f 295/263/105 161/284/105 142/285/105
f 299/286/105 142/285/105 161/284/105
f 160/287/106 164/288/106 153/289/106
f 160/287/107 150/290/107 163/291/107
f 297/292/108 153/289/108 164/288/108
f 150/290/109 298/293/109 163/291/109
f 305/294/110 164/288/110 160/287/110
f 163/291/111 305/294/111 160/287/111
f 187/295/2 168/296/2 188/297/2
f 183/298/1 170/299/1 184/300/1
f 171/301/12 173/302/12 172/303/12
f 168/296/2 175/304/2 178/305/2
f 189/306/1 169/307/1 170/299/1
f 176/308/112 178/305/112 175/304/112
f 174/309/113 179/310/113 180/311/113
f 147/312/114 176/313/114 149/266/114
f 184/300/115 182/314/115 183/298/115
f 188/315/116 186/316/116 187/317/116
f 172/303/12 185/318/12 171/301/12
f 174/319/3 177/320/3 176/321/3
f 148/268/117 167/322/117 141/323/117
f 147/312/118 173/274/118 174/324/118
f 295/263/119 149/325/119 300/269/119
f 157/326/117 167/322/117 187/261/117
f 155/252/120 182/327/120 154/328/120
f 154/328/101 172/273/101 140/329/101
f 309/330/12 204/331/12 192/332/12
f 192/333/12 194/334/12 309/335/12
f 210/336/95 206/337/95 209/338/95
f 200/339/95 209/338/95 205/340/95
f 205/340/96 238/341/96 232/342/96
f 193/343/2 195/344/2 198/343/2
f 207/343/2 306/345/2 193/343/2
f 206/337/97 236/346/97 235/347/97
f 199/348/99 224/349/99 198/343/99
f 194/334/23 239/333/23 242/334/23
f 196/350/101 221/351/101 222/352/101
f 206/337/96 238/341/96 209/338/96
f 200/339/102 204/333/102 308/353/102
f 207/343/103 203/354/103 307/355/103
f 198/343/23 245/344/23 243/343/23
f 309/356/23 242/356/23 301/356/23
f 310/357/23 301/335/23 313/357/23
f 199/348/23 243/343/23 244/348/23
f 195/344/23 302/345/23 245/344/23
f 306/345/23 313/357/23 302/345/23
f 196/333/23 240/358/23 239/333/23
f 210/336/106 213/359/106 203/354/106
f 210/336/107 200/339/107 212/360/107
f 307/355/108 203/354/108 213/359/108
f 200/361/109 308/362/109 212/363/109
f 311/364/110 213/359/110 210/336/110
f 212/360/111 311/364/111 210/336/111
f 236/346/2 217/365/2 237/365/2
f 232/342/1 219/366/1 233/367/1
f 220/368/12 222/369/12 221/370/12
f 217/365/2 224/349/2 227/365/2
f 238/341/1 218/371/1 219/366/1
f 225/372/112 227/365/112 224/349/112
f 223/373/113 228/374/113 229/375/113
f 233/367/115 231/376/115 232/342/115
f 237/365/116 235/347/116 236/346/116
f 221/370/12 234/377/12 220/368/12
f 198/343/117 216/378/117 193/343/117
f 197/358/118 222/379/118 223/373/118
f 197/358/114 225/372/114 199/348/114
f 207/343/117 216/378/117 236/346/117
f 205/340/120 231/376/120 204/333/120
f 204/380/101 221/351/101 192/381/101
f 181/382/22 171/383/22 170/384/22
f 303/385/98 239/333/98 240/358/98
f 304/386/100 243/343/100 245/344/100
f 304/386/104 245/344/104 252/387/104
f 302/345/104 252/387/104 245/344/104
f 303/385/105 251/388/105 242/334/105
f 301/389/105 242/390/105 251/391/105
f 302/345/121 251/388/121 252/387/121
f 252/387/121 303/385/121 304/386/121
f 162/282/121 299/392/121 161/393/121
f 300/280/121 161/393/121 295/394/121
f 255/356/23 6/356/23 4/356/23
f 256/356/23 4/356/23 2/356/23
f 257/356/23 2/356/23 8/356/23
f 258/356/23 7/356/23 5/356/23
f 259/356/23 8/356/23 7/356/23
f 254/356/23 5/356/23 6/356/23
f 261/356/23 9/356/23 10/356/23
f 260/395/23 11/396/23 9/395/23
f 263/397/23 10/398/23 12/397/23
f 262/356/23 12/356/23 11/356/23
f 264/356/23 24/356/23 26/356/23
f 265/356/23 22/356/23 24/356/23
f 266/356/23 28/356/23 22/356/23
f 269/356/23 25/356/23 27/356/23
f 267/356/23 27/356/23 28/356/23
f 268/356/23 26/356/23 25/356/23
f 270/356/23 30/356/23 29/356/23
f 272/356/23 29/356/23 31/356/23
f 271/356/23 32/356/23 30/356/23
f 273/356/23 31/356/23 32/356/23
f 275/356/23 101/356/23 87/356/23
f 277/356/23 89/356/23 86/356/23
f 278/356/23 87/356/23 92/356/23
f 274/356/23 86/356/23 101/356/23
f 280/356/23 110/356/23 107/356/23
f 281/356/23 107/356/23 108/356/23
f 283/356/23 111/356/23 109/356/23
f 284/356/23 109/356/23 106/356/23
f 279/356/23 106/356/23 110/356/23
f 282/356/23 108/356/23 111/356/23
f 285/356/23 119/356/23 125/356/23
f 276/356/23 118/356/23 89/356/23
f 286/356/23 92/356/23 119/356/23
f 287/356/23 125/356/23 118/356/23
f 288/356/23 130/356/23 133/356/23
f 289/356/23 131/356/23 130/356/23
f 291/356/23 132/356/23 134/356/23
f 292/356/23 129/356/23 132/356/23
f 293/356/23 133/356/23 129/356/23
f 290/356/23 134/356/23 131/356/23
f 295/356/23 158/356/23 143/356/23
f 296/356/23 152/356/23 139/356/23
f 298/356/23 138/356/23 151/356/23
f 294/356/23 144/356/23 158/356/23
f 301/335/23 250/345/23 248/335/23
f 304/386/23 241/385/23 246/386/23
f 297/356/23 165/356/23 152/356/23
f 305/356/23 151/356/23 165/356/23
f 306/356/23 202/356/23 191/356/23
f 308/356/23 190/356/23 201/356/23
f 310/357/23 191/345/23 211/357/23
f 309/335/23 211/357/23 190/335/23
f 307/355/23 214/364/23 202/355/23
f 311/364/23 201/353/23 214/364/23
f 246/386/119 197/358/119 199/348/119
f 299/356/23 139/356/23 138/356/23
f 300/356/23 143/356/23 144/356/23
f 302/345/23 253/357/23 250/345/23
f 313/357/23 248/335/23 253/357/23
f 230/366/22 220/374/22 219/366/22
f 223/373/3 226/399/3 225/372/3
f 254/1/1 255/400/1 3/2/1
f 255/4/2 256/401/2 1/5/2
f 256/7/3 257/402/3 259/8/3
f 3/2/4 14/17/4 15/10/4
f 1/9/5 259/8/5 16/11/5
f 259/13/6 258/403/6 15/14/6
f 1/5/7 13/404/7 14/16/7
f 14/17/8 19/53/8 18/18/8
f 13/12/9 16/11/9 20/19/9
f 15/14/10 18/42/10 20/21/10
f 14/16/11 13/404/11 17/22/11
f 23/24/1 265/405/1 264/25/1
f 21/27/12 266/406/12 265/28/12
f 269/30/3 267/407/3 266/31/3
f 19/23/122 17/22/122 260/33/122
f 272/35/123 273/408/123 38/36/123
f 273/38/15 271/409/15 39/39/15
f 262/41/10 20/21/10 18/42/10
f 272/44/17 40/63/17 37/45/17
f 17/20/17 20/19/17 262/47/17
f 270/49/124 37/65/124 39/50/124
f 263/52/15 18/18/15 19/53/15
f 35/55/4 34/61/4 23/24/4
f 21/32/5 33/62/5 36/56/5
f 269/57/19 36/64/19 35/58/19
f 34/60/20 33/66/20 21/27/20
f 38/40/8 39/39/8 34/61/8
f 33/62/9 37/45/9 40/63/9
f 40/37/14 38/36/14 35/58/14
f 34/60/21 39/50/21 37/65/21
f 63/85/125 61/119/125 52/86/125
f 51/88/2 52/416/2 50/89/2
f 63/91/126 51/417/126 49/92/126
f 54/94/38 56/418/38 60/95/38
f 58/97/43 60/101/43 56/98/43
f 68/100/44 66/419/44 60/101/44
f 57/96/30 60/95/30 66/102/30
f 53/104/45 59/121/45 58/105/45
f 54/107/127 57/120/127 59/108/127
f 52/110/128 61/122/128 64/111/128
f 49/113/129 50/420/129 64/114/129
f 63/91/130 62/93/130 68/116/130
f 65/118/131 67/421/131 61/119/131
f 57/120/36 67/421/36 65/118/36
f 59/121/35 65/117/35 68/116/35
f 61/122/132 67/103/132 66/102/132
f 64/114/44 66/419/44 68/100/44
f 79/123/133 71/422/133 72/124/133
f 71/126/134 69/423/134 70/127/134
f 79/129/135 78/424/135 69/130/135
f 76/132/38 56/418/38 54/94/38
f 74/134/136 55/99/136 56/98/136
f 84/136/137 74/134/137 76/135/137
f 82/138/30 76/132/30 73/133/30
f 53/104/138 55/106/138 74/140/138
f 75/142/139 73/153/139 54/107/139
f 72/143/140 70/425/140 80/144/140
f 69/146/141 78/154/141 80/147/141
f 84/149/142 78/424/142 79/129/142
f 81/151/32 79/123/32 77/125/32
f 81/151/36 83/152/36 73/153/36
f 75/141/143 74/140/143 84/149/143
f 77/145/38 80/144/38 82/138/38
f 84/136/44 82/137/44 80/147/44
f 97/155/144 88/164/144 90/156/144
f 274/158/145 275/426/145 113/159/145
f 113/161/146 275/427/146 278/162/146
f 88/164/147 93/428/147 94/165/147
f 104/166/148 105/186/148 95/167/148
f 96/169/149 95/195/149 85/170/149
f 98/172/150 100/204/150 91/171/150
f 102/173/151 103/429/151 98/174/151
f 114/176/152 112/430/152 97/177/152
f 97/179/153 103/201/153 102/180/153
f 277/182/154 274/431/154 116/183/154
f 94/185/155 93/432/155 105/186/155
f 105/186/156 93/432/156 281/187/156
f 102/189/157 279/433/157 280/190/157
f 93/192/158 88/434/158 280/193/158
f 95/195/159 283/435/159 284/196/159
f 102/197/160 85/436/160 284/198/160
f 105/186/161 282/188/161 283/200/161
f 97/179/162 112/184/162 116/183/162
f 277/202/163 112/430/163 114/176/163
f 98/172/164 113/161/164 115/163/164
f 116/160/165 113/159/165 98/205/165
f 90/156/166 120/213/166 123/207/166
f 136/208/167 286/437/167 285/209/167
f 136/211/168 115/163/168 278/162/168
f 94/165/169 121/438/169 120/213/169
f 104/166/170 96/168/170 122/214/170
f 117/216/171 122/237/171 96/169/171
f 91/171/172 100/204/172 124/217/172
f 126/218/173 117/439/173 124/219/173
f 114/176/174 99/178/174 123/221/174
f 126/223/175 127/440/175 123/224/175
f 137/225/176 285/441/176 287/226/176
f 94/185/177 104/166/177 128/215/177
f 128/215/178 291/442/178 290/229/178
f 289/230/179 288/443/179 126/231/179
f 121/233/180 290/444/180 289/234/180
f 293/236/181 292/445/181 122/237/181
f 126/238/182 288/446/182 293/239/182
f 292/241/183 291/442/183 128/215/183
f 123/224/184 127/440/184 137/225/184
f 114/176/185 135/222/185 287/242/185
f 124/217/186 100/204/186 115/163/186
f 124/219/187 136/208/187 137/210/187
f 299/243/12 298/277/12 154/244/12
f 140/245/12 146/447/12 142/246/12
f 160/247/95 153/448/95 156/248/95
f 150/250/95 160/247/95 159/249/95
f 155/252/96 159/275/96 189/253/96
f 141/255/2 296/259/2 145/256/2
f 157/258/2 297/279/2 296/259/2
f 156/260/97 157/326/97 187/261/97
f 295/263/188 142/285/188 146/264/188
f 149/266/99 176/313/99 175/267/99
f 300/269/189 149/325/189 148/270/189
f 146/272/101 140/329/101 172/273/101
f 156/260/96 186/262/96 189/253/96
f 150/276/190 155/449/190 154/244/190
f 157/258/191 156/450/191 153/278/191
f 305/294/192 297/292/192 164/288/192
f 163/291/193 298/293/193 305/294/193
f 187/295/2 167/451/2 168/296/2
f 183/298/1 189/306/1 170/299/1
f 171/301/12 179/310/12 173/302/12
f 168/296/2 167/451/2 175/304/2
f 189/306/1 186/316/1 169/307/1
f 176/308/112 177/452/112 178/305/112
f 174/309/113 173/302/113 179/310/113
f 147/312/114 174/324/114 176/313/114
f 184/300/115 185/453/115 182/314/115
f 188/315/116 169/307/116 186/316/116
f 172/303/12 182/454/12 185/318/12
f 174/319/3 180/455/3 177/320/3
f 148/268/117 175/267/117 167/322/117
f 147/312/118 146/272/118 173/274/118
f 295/263/119 147/265/119 149/325/119
f 157/326/117 141/323/117 167/322/117
f 155/252/120 183/254/120 182/327/120
f 154/328/101 182/327/101 172/273/101
f 309/330/12 308/279/12 204/331/12
f 192/333/12 196/333/12 194/334/12
f 210/336/95 203/354/95 206/337/95
f 200/339/95 210/336/95 209/338/95
f 205/340/96 209/338/96 238/341/96
f 193/343/2 306/345/2 195/344/2
f 207/343/2 307/355/2 306/345/2
f 206/337/97 207/343/97 236/346/97
f 199/348/99 225/372/99 224/349/99
f 194/334/23 196/333/23 239/333/23
f 196/350/101 192/381/101 221/351/101
f 206/337/96 235/347/96 238/341/96
f 200/339/190 205/340/190 204/333/190
f 207/343/191 206/337/191 203/354/191
f 198/343/23 195/344/23 245/344/23
f 309/356/23 194/356/23 242/356/23
f 310/357/23 309/335/23 301/335/23
f 199/348/23 198/343/23 243/343/23
f 195/344/23 306/345/23 302/345/23
f 306/345/23 310/357/23 313/357/23
f 196/333/23 197/358/23 240/358/23
f 311/364/192 307/355/192 213/359/192
f 212/360/193 308/353/193 311/364/193
f 236/346/2 216/378/2 217/365/2
f 232/342/1 238/341/1 219/366/1
f 220/368/12 228/456/12 222/369/12
f 217/365/2 216/378/2 224/349/2
f 238/341/1 235/347/1 218/371/1
f 225/372/112 226/399/112 227/365/112
f 223/373/113 222/379/113 228/374/113
f 233/367/115 234/374/115 231/376/115
f 237/365/116 218/371/116 235/347/116
f 221/370/12 231/457/12 234/377/12
f 198/343/117 224/349/117 216/378/117
f 197/358/118 196/333/118 222/379/118
f 197/358/114 223/373/114 225/372/114
f 207/343/117 193/343/117 216/378/117
f 205/340/120 232/342/120 231/376/120
f 204/380/101 231/458/101 221/351/101
f 170/384/22 169/459/22 188/460/22
f 168/461/22 178/462/22 177/463/22
f 170/384/22 188/460/22 168/461/22
f 185/464/22 184/465/22 170/384/22
f 180/466/22 179/467/22 171/383/22
f 171/383/22 185/464/22 170/384/22
f 170/384/22 168/461/22 177/463/22
f 181/382/22 180/466/22 171/383/22
f 170/384/22 177/463/22 181/382/22
f 303/385/188 242/334/188 239/333/188
f 304/386/189 244/348/189 243/343/189
f 302/345/121 301/335/121 251/388/121
f 252/387/121 251/388/121 303/385/121
f 162/282/121 296/283/121 299/392/121
f 300/280/121 162/282/121 161/393/121
f 255/356/23 254/356/23 6/356/23
f 256/356/23 255/356/23 4/356/23
f 257/356/23 256/356/23 2/356/23
f 258/356/23 259/356/23 7/356/23
f 259/356/23 257/356/23 8/356/23
f 254/356/23 258/356/23 5/356/23
f 261/356/23 260/356/23 9/356/23
f 260/395/23 262/396/23 11/396/23
f 263/397/23 261/398/23 10/398/23
f 262/356/23 263/356/23 12/356/23
f 264/356/23 265/356/23 24/356/23
f 265/356/23 266/356/23 22/356/23
f 266/356/23 267/356/23 28/356/23
f 269/356/23 268/356/23 25/356/23
f 267/356/23 269/356/23 27/356/23
f 268/356/23 264/356/23 26/356/23
f 270/356/23 271/356/23 30/356/23
f 272/356/23 270/356/23 29/356/23
f 271/356/23 273/356/23 32/356/23
f 273/356/23 272/356/23 31/356/23
f 275/356/23 274/356/23 101/356/23
f 277/356/23 276/356/23 89/356/23
f 278/356/23 275/356/23 87/356/23
f 274/356/23 277/356/23 86/356/23
f 280/356/23 279/356/23 110/356/23
f 281/356/23 280/356/23 107/356/23
f 283/356/23 282/356/23 111/356/23
f 284/356/23 283/356/23 109/356/23
f 279/356/23 284/356/23 106/356/23
f 282/356/23 281/356/23 108/356/23
f 285/356/23 286/356/23 119/356/23
f 276/356/23 287/356/23 118/356/23
f 286/356/23 278/356/23 92/356/23
f 287/356/23 285/356/23 125/356/23
f 288/356/23 289/356/23 130/356/23
f 289/356/23 290/356/23 131/356/23
f 291/356/23 292/356/23 132/356/23
f 292/356/23 293/356/23 129/356/23
f 293/356/23 288/356/23 133/356/23
f 290/356/23 291/356/23 134/356/23
f 295/356/23 294/356/23 158/356/23
f 296/356/23 297/356/23 152/356/23
f 298/356/23 299/356/23 138/356/23
f 294/356/23 300/356/23 144/356/23
f 301/335/23 302/345/23 250/345/23
f 304/386/23 303/385/23 241/385/23
f 297/356/23 305/356/23 165/356/23
f 305/356/23 298/356/23 151/356/23
f 306/356/23 307/356/23 202/356/23
f 308/356/23 309/356/23 190/356/23
f 310/357/23 306/345/23 191/345/23
f 309/335/23 310/357/23 211/357/23
f 307/355/23 311/364/23 214/364/23
f 311/364/23 308/353/23 201/353/23
f 246/386/119 241/385/119 197/358/119
f 299/356/23 296/356/23 139/356/23
f 300/356/23 295/356/23 143/356/23
f 302/345/23 313/357/23 253/357/23
f 313/357/23 301/335/23 248/335/23
f 219/366/22 218/371/22 237/365/22
f 217/365/22 227/365/22 226/399/22
f 219/366/22 237/365/22 217/365/22
f 234/374/22 233/367/22 219/366/22
f 229/375/22 228/374/22 220/374/22
f 220/374/22 234/374/22 219/366/22
f 219/366/22 217/365/22 226/399/22
f 230/366/22 229/375/22 220/374/22
f 219/366/22 226/399/22 230/366/22
f 223/373/3 229/375/3 226/399/3
usemtl 
f 42/67/12 43/68/12 41/69/12
f 44/70/1 47/71/1 43/72/1
f 48/73/2 45/74/2 47/75/2
f 46/76/3 41/77/3 45/78/3
f 47/79/22 41/80/22 43/81/22
f 44/82/23 46/83/23 48/84/23
f 42/67/12 44/410/12 43/68/12
f 44/70/1 48/411/1 47/71/1
f 48/73/2 46/412/2 45/74/2
f 46/76/3 42/413/3 41/77/3
f 47/79/22 45/414/22 41/80/22
f 44/82/23 42/415/23 46/83/23

